{"glyphs":{"0":{"ha":638,"x_min":44,"x_max":618,"o":"m 279 -10 q 104 82 164 -10 q 44 353 44 174 q 51 486 44 425 q 163 856 78 731 q 383 982 249 982 q 558 892 499 982 q 618 624 618 801 q 610 486 618 561 q 500 116 585 242 q 279 -10 415 -10 m 293 129 q 376 207 343 129 q 431 486 410 285 q 442 669 442 586 q 423 804 442 765 q 368 843 404 843 q 285 766 318 843 q 231 486 253 689 q 219 304 219 367 q 238 168 219 207 q 293 129 257 129 z "},"1":{"ha":638,"x_min":28,"x_max":572,"o":"m 60 0 q 28 39 28 0 q 29 60 28 53 l 31 81 q 74 140 36 140 l 236 140 l 306 808 l 133 783 q 104 854 104 783 q 106 883 104 875 q 142 918 110 913 l 444 976 q 478 967 463 976 q 493 944 494 957 l 408 140 l 540 140 q 572 97 572 140 l 571 81 l 568 60 q 555 14 565 28 q 526 0 544 0 l 60 0 z "},"2":{"ha":638,"x_min":-12,"x_max":614,"o":"m 14 0 q -5 26 3 0 q -12 82 -12 53 l -11 100 q -4 122 -8 118 l 354 571 q 419 667 401 631 q 436 744 436 703 q 406 817 436 792 q 322 842 375 842 q 247 828 281 842 q 179 793 213 814 q 143 776 150 776 q 103 805 121 776 q 85 860 85 833 q 127 922 85 894 q 233 966 169 950 q 358 982 297 982 q 547 924 481 982 q 614 767 614 865 q 613 736 614 747 q 574 613 606 672 q 467 467 542 554 l 211 139 l 519 139 q 551 97 551 139 l 550 81 l 547 60 q 534 14 544 28 q 506 0 524 0 l 14 0 z "},"3":{"ha":638,"x_min":-8,"x_max":589,"o":"m 249 -10 q 74 17 157 -10 q -8 88 -8 43 q 4 122 -8 99 q 33 165 17 146 q 63 183 50 183 q 92 171 69 183 q 153 141 122 153 q 228 129 185 129 q 347 176 299 129 q 396 315 396 222 q 357 411 396 381 q 242 442 318 442 l 190 442 q 158 485 158 442 l 160 501 l 163 522 q 176 568 165 554 q 206 582 186 582 l 246 582 q 336 606 299 582 q 392 666 374 629 q 411 740 411 703 q 385 814 411 786 q 300 842 358 842 q 234 833 261 842 q 184 810 207 824 q 156 797 161 797 q 122 829 139 797 q 104 888 104 861 q 180 956 104 931 q 349 982 256 982 q 525 926 461 982 q 589 774 589 871 q 546 628 589 688 q 432 539 503 568 l 432 533 q 535 455 497 510 q 572 319 572 400 q 571 282 572 294 q 467 67 557 144 q 249 -10 378 -10 z "},"4":{"ha":638,"x_min":0,"x_max":614,"o":"m 389 -3 q 326 36 319 -3 l 343 210 l 36 210 q 10 250 21 210 q 3 318 0 290 l 7 333 l 397 947 q 426 969 408 964 q 472 975 443 975 l 528 975 q 593 936 596 975 l 532 350 l 583 350 q 614 313 614 350 q 613 290 614 299 l 611 269 q 568 210 606 210 l 515 210 l 499 36 q 425 -3 492 -3 l 389 -3 m 358 350 l 378 536 q 408 719 383 606 l 404 721 l 175 350 l 358 350 z "},"5":{"ha":638,"x_min":4,"x_max":607,"o":"m 235 -10 q 115 3 168 -10 q 33 36 63 15 q 4 81 4 57 q 18 117 4 93 q 50 160 32 140 q 81 179 68 179 q 110 165 85 179 q 169 140 136 150 q 243 129 201 129 q 357 181 311 129 q 403 325 403 233 q 250 463 403 463 l 128 463 q 96 471 106 463 q 86 499 86 479 l 88 513 l 156 922 q 174 960 161 949 q 214 972 188 972 l 575 972 q 607 933 607 972 q 606 913 607 919 l 603 883 q 590 844 600 856 q 561 832 581 832 l 307 832 l 267 601 l 303 601 q 581 353 581 601 q 578 297 581 336 q 463 63 561 136 q 235 -10 364 -10 z "},"6":{"ha":638,"x_min":39,"x_max":599,"o":"m 283 -10 q 107 64 175 -10 q 39 282 39 138 q 42 346 39 324 q 170 706 65 565 q 389 912 275 847 q 544 976 503 976 q 585 940 572 976 q 596 876 597 904 q 590 860 593 865 q 578 853 586 856 q 383 733 463 811 q 263 546 304 656 q 396 583 328 583 q 492 558 446 583 q 569 478 539 532 q 599 343 599 424 q 596 294 599 328 q 539 126 585 194 q 426 24 493 57 q 283 -10 358 -10 m 300 131 q 358 153 329 131 q 404 217 386 175 q 422 317 422 260 q 395 410 422 378 q 324 443 368 443 q 228 414 278 443 q 217 335 219 361 q 214 275 214 313 q 238 164 214 197 q 300 131 261 131 z "},"7":{"ha":638,"x_min":47,"x_max":650,"o":"m 117 -3 q 49 22 47 -3 q 53 35 50 26 q 60 49 57 44 l 451 832 l 122 832 q 90 872 90 832 q 92 892 90 885 l 94 913 q 108 958 97 944 q 136 972 118 972 l 621 972 q 640 934 631 972 q 647 867 650 896 q 642 850 644 853 l 229 24 q 156 -3 218 -3 l 117 -3 z "},"8":{"ha":638,"x_min":29,"x_max":617,"o":"m 281 -10 q 94 56 158 -10 q 29 232 29 121 q 31 272 29 258 q 188 518 50 446 q 123 593 146 551 q 100 694 100 635 q 136 846 100 781 q 238 947 172 911 q 389 982 303 982 q 555 926 493 982 q 617 774 617 869 q 615 742 617 753 q 474 525 600 592 q 558 441 528 490 q 589 314 589 392 q 586 271 589 301 q 492 70 572 150 q 281 -10 413 -10 m 361 596 q 447 754 447 657 q 426 820 447 797 q 372 843 406 843 q 308 816 336 843 q 275 739 281 789 q 293 656 271 688 q 361 596 315 624 m 293 129 q 377 176 344 129 q 410 290 410 224 q 381 377 410 346 q 296 442 353 408 q 228 364 251 410 q 206 246 206 318 q 230 158 206 188 q 293 129 254 129 z "},"9":{"ha":638,"x_min":61,"x_max":621,"o":"m 115 -8 q 85 10 97 -8 q 69 53 74 29 q 67 92 64 78 q 70 108 67 103 q 83 117 74 114 q 276 235 197 157 q 397 424 356 314 q 264 386 335 386 q 166 413 213 386 q 90 494 119 439 q 61 629 61 549 q 64 675 61 642 q 121 843 75 775 q 234 944 167 911 q 376 978 301 978 q 553 905 485 978 q 621 690 621 832 q 617 622 621 658 q 490 262 594 403 q 271 56 385 121 q 115 -8 157 -8 m 336 525 q 432 556 379 525 q 443 635 438 585 q 446 694 446 657 q 358 839 446 839 q 283 796 318 839 q 239 681 247 753 q 238 651 238 671 q 265 558 238 590 q 336 525 292 525 z "},"\u0000":{"ha":0,"x_min":0,"x_max":0,"o":""},"\r":{"ha":190,"x_min":0,"x_max":0,"o":""}," ":{"ha":190,"x_min":0,"x_max":0,"o":""},"A":{"ha":701,"x_min":-29,"x_max":658,"o":"m 32 -3 q -26 25 -29 -3 q -21 47 -26 31 l 303 940 q 381 975 317 975 l 446 975 q 517 940 511 975 l 657 47 q 658 25 658 39 q 599 -3 656 -3 l 546 -3 q 486 24 490 -3 l 461 214 l 213 214 l 149 24 q 86 -3 139 -3 l 32 -3 m 447 358 l 407 689 q 400 788 400 742 l 393 788 q 365 689 374 713 l 253 358 l 447 358 z "},"Á":{"ha":701,"x_min":-26,"x_max":658,"o":"m 32 -3 q -26 25 -29 -3 q -21 47 -26 31 l 303 940 q 381 975 317 975 l 446 975 q 517 940 511 975 l 657 47 q 658 25 658 39 q 599 -3 656 -3 l 546 -3 q 486 24 490 -3 l 461 214 l 213 214 l 149 24 q 86 -3 139 -3 l 32 -3 m 447 358 l 407 689 q 400 788 400 742 l 393 788 q 365 689 374 713 l 253 358 l 447 358 m 383 1050 q 355 1054 363 1050 q 347 1068 347 1058 q 356 1095 347 1075 q 376 1136 365 1115 q 392 1167 386 1157 l 422 1228 q 519 1264 439 1264 q 572 1260 556 1264 q 589 1246 589 1256 q 582 1226 589 1238 q 544 1176 575 1214 l 472 1081 q 442 1058 461 1065 q 383 1050 422 1050 z "},"Ă":{"ha":701,"x_min":-26,"x_max":658,"o":"m 32 -3 q -26 25 -29 -3 q -21 47 -26 31 l 303 940 q 381 975 317 975 l 446 975 q 517 940 511 975 l 657 47 q 658 25 658 39 q 599 -3 656 -3 l 546 -3 q 486 24 490 -3 l 461 214 l 213 214 l 149 24 q 86 -3 139 -3 l 32 -3 m 447 358 l 407 689 q 400 788 400 742 l 393 788 q 365 689 374 713 l 253 358 l 447 358 m 425 1050 q 302 1094 344 1050 q 267 1201 260 1138 q 315 1239 271 1239 q 338 1232 331 1239 q 349 1210 344 1225 q 376 1176 357 1188 q 438 1164 394 1164 q 503 1177 483 1164 q 536 1213 524 1190 q 553 1233 544 1226 q 575 1239 561 1239 q 615 1201 619 1239 q 558 1094 608 1138 q 425 1050 507 1050 z "},"Ắ":{"ha":701,"x_min":-29,"x_max":658,"o":"m 415 1192 q 392 1196 399 1192 q 385 1210 385 1200 q 408 1275 385 1218 l 438 1346 q 531 1383 456 1383 q 570 1378 558 1383 q 582 1356 582 1372 q 564 1322 582 1347 q 507 1246 546 1296 l 482 1214 q 458 1197 474 1203 q 415 1192 443 1192 m 425 1050 q 307 1085 350 1050 q 264 1168 264 1119 q 276 1210 264 1199 q 311 1222 289 1222 q 334 1215 326 1222 q 347 1193 342 1208 q 374 1157 357 1171 q 435 1143 392 1143 q 501 1158 481 1143 q 535 1194 521 1172 q 551 1215 542 1208 q 574 1222 560 1222 q 613 1189 613 1222 q 589 1122 613 1154 q 522 1070 565 1090 q 425 1050 479 1050 m 32 -3 q -26 25 -29 -3 q -21 47 -26 31 l 303 940 q 381 975 317 975 l 446 975 q 517 940 511 975 l 657 47 q 658 25 658 39 q 599 -3 656 -3 l 546 -3 q 486 24 490 -3 l 461 214 l 213 214 l 149 24 q 86 -3 139 -3 l 32 -3 m 447 358 l 407 689 q 400 788 400 742 l 393 788 q 365 689 374 713 l 253 358 l 447 358 z "},"Ặ":{"ha":701,"x_min":-26,"x_max":658,"o":"m 32 -3 q -26 25 -29 -3 q -21 47 -26 31 l 303 940 q 381 975 317 975 l 446 975 q 517 940 511 975 l 657 47 q 658 25 658 39 q 599 -3 656 -3 l 546 -3 q 486 24 490 -3 l 461 214 l 213 214 l 149 24 q 86 -3 139 -3 l 32 -3 m 447 358 l 407 689 q 400 788 400 742 l 393 788 q 365 689 374 713 l 253 358 l 447 358 m 288 -268 q 225 -258 244 -268 q 208 -229 206 -249 l 217 -150 q 303 -111 221 -111 q 383 -150 388 -111 l 375 -229 q 288 -268 371 -268 m 425 1050 q 302 1094 344 1050 q 267 1201 260 1138 q 315 1239 271 1239 q 338 1232 331 1239 q 349 1210 344 1225 q 376 1176 357 1188 q 438 1164 394 1164 q 503 1177 483 1164 q 536 1213 524 1190 q 553 1233 544 1226 q 575 1239 561 1239 q 615 1201 619 1239 q 558 1094 608 1138 q 425 1050 507 1050 z "},"Ằ":{"ha":701,"x_min":-29,"x_max":658,"o":"m 476 1192 q 407 1217 429 1192 l 358 1283 q 322 1333 333 1317 q 310 1358 310 1350 q 323 1378 310 1372 q 365 1383 336 1383 q 461 1346 444 1383 q 510 1210 510 1226 q 503 1195 510 1199 q 476 1192 496 1192 m 425 1050 q 307 1085 350 1050 q 264 1168 264 1119 q 276 1210 264 1199 q 311 1222 289 1222 q 334 1215 326 1222 q 347 1193 342 1208 q 374 1157 357 1171 q 435 1143 392 1143 q 501 1158 481 1143 q 535 1194 521 1172 q 551 1215 542 1208 q 574 1222 560 1222 q 613 1189 613 1222 q 589 1122 613 1154 q 522 1070 565 1090 q 425 1050 479 1050 m 32 -3 q -26 25 -29 -3 q -21 47 -26 31 l 303 940 q 381 975 317 975 l 446 975 q 517 940 511 975 l 657 47 q 658 25 658 39 q 599 -3 656 -3 l 546 -3 q 486 24 490 -3 l 461 214 l 213 214 l 149 24 q 86 -3 139 -3 l 32 -3 m 447 358 l 407 689 q 400 788 400 742 l 393 788 q 365 689 374 713 l 253 358 l 447 358 z "},"Ẳ":{"ha":701,"x_min":-29,"x_max":658,"o":"m 442 1201 q 401 1210 417 1201 q 385 1231 385 1219 q 414 1256 385 1242 q 447 1276 438 1268 q 457 1299 457 1285 q 446 1320 457 1313 q 419 1328 435 1328 q 372 1317 390 1328 q 349 1306 353 1306 q 326 1326 340 1306 q 311 1360 311 1346 q 347 1386 311 1374 q 421 1399 383 1399 q 510 1374 475 1399 q 546 1306 546 1350 q 506 1232 546 1264 q 473 1211 492 1221 q 442 1201 454 1201 m 425 1050 q 307 1085 350 1050 q 264 1168 264 1119 q 276 1210 264 1199 q 311 1222 289 1222 q 334 1215 326 1222 q 347 1193 342 1208 q 374 1157 357 1171 q 435 1143 392 1143 q 501 1158 481 1143 q 535 1194 521 1172 q 551 1215 542 1208 q 574 1222 560 1222 q 613 1189 613 1222 q 589 1122 613 1154 q 522 1070 565 1090 q 425 1050 479 1050 m 32 -3 q -26 25 -29 -3 q -21 47 -26 31 l 303 940 q 381 975 317 975 l 446 975 q 517 940 511 975 l 657 47 q 658 25 658 39 q 599 -3 656 -3 l 546 -3 q 486 24 490 -3 l 461 214 l 213 214 l 149 24 q 86 -3 139 -3 l 32 -3 m 447 358 l 407 689 q 400 788 400 742 l 393 788 q 365 689 374 713 l 253 358 l 447 358 z "},"Ẵ":{"ha":701,"x_min":-29,"x_max":658,"o":"m 282 1290 q 258 1319 258 1297 q 263 1340 258 1326 q 372 1436 297 1436 q 457 1411 399 1436 q 525 1390 507 1390 q 543 1395 535 1390 q 563 1417 551 1400 q 594 1439 576 1439 q 610 1436 599 1439 l 621 1432 q 644 1403 644 1422 q 640 1383 644 1392 q 597 1313 625 1339 q 531 1286 568 1286 q 446 1311 504 1286 q 378 1332 396 1332 q 358 1326 367 1332 q 340 1304 350 1321 q 311 1282 325 1282 q 294 1285 306 1282 l 282 1290 m 425 1050 q 307 1085 350 1050 q 264 1168 264 1119 q 276 1210 264 1199 q 311 1222 289 1222 q 334 1215 326 1222 q 347 1193 342 1208 q 374 1157 357 1171 q 435 1143 392 1143 q 501 1158 481 1143 q 535 1194 521 1172 q 551 1215 542 1208 q 574 1222 560 1222 q 613 1189 613 1222 q 589 1122 613 1154 q 522 1070 565 1090 q 425 1050 479 1050 m 32 -3 q -26 25 -29 -3 q -21 47 -26 31 l 303 940 q 381 975 317 975 l 446 975 q 517 940 511 975 l 657 47 q 658 25 658 39 q 599 -3 656 -3 l 546 -3 q 486 24 490 -3 l 461 214 l 213 214 l 149 24 q 86 -3 139 -3 l 32 -3 m 447 358 l 407 689 q 400 788 400 742 l 393 788 q 365 689 374 713 l 253 358 l 447 358 z "},"Â":{"ha":701,"x_min":-26,"x_max":658,"o":"m 32 -3 q -26 25 -29 -3 q -21 47 -26 31 l 303 940 q 381 975 317 975 l 446 975 q 517 940 511 975 l 657 47 q 658 25 658 39 q 599 -3 656 -3 l 546 -3 q 486 24 490 -3 l 461 214 l 213 214 l 149 24 q 86 -3 139 -3 l 32 -3 m 447 358 l 407 689 q 400 788 400 742 l 393 788 q 365 689 374 713 l 253 358 l 447 358 m 286 1042 q 265 1047 272 1042 q 260 1058 258 1051 q 265 1069 260 1061 q 271 1082 269 1078 l 364 1215 q 394 1237 376 1231 q 439 1243 411 1243 l 449 1243 q 492 1237 475 1243 q 517 1215 508 1231 l 582 1082 q 590 1058 590 1069 q 581 1047 589 1051 q 561 1042 574 1042 l 525 1042 q 471 1065 481 1042 l 432 1143 l 379 1067 q 319 1042 363 1042 l 286 1042 z "},"Ấ":{"ha":701,"x_min":-29,"x_max":746,"o":"m 579 1183 q 556 1188 563 1183 q 549 1201 549 1192 q 572 1267 549 1210 l 601 1338 q 694 1375 619 1375 q 734 1369 722 1375 q 746 1347 746 1364 q 728 1313 746 1339 q 671 1238 710 1288 l 646 1206 q 622 1189 638 1194 q 579 1183 607 1183 m 296 1042 q 269 1058 268 1042 q 273 1069 269 1063 q 278 1081 276 1076 l 367 1215 q 395 1238 378 1232 q 440 1243 413 1243 l 451 1243 q 494 1238 478 1243 q 518 1215 510 1232 l 576 1081 q 583 1058 583 1071 q 574 1047 582 1051 q 554 1042 567 1042 l 519 1042 q 464 1065 475 1042 l 435 1143 l 389 1065 q 365 1047 379 1051 q 329 1042 350 1042 l 296 1042 m 32 -3 q -26 25 -29 -3 q -21 47 -26 31 l 303 940 q 381 975 317 975 l 446 975 q 517 940 511 975 l 657 47 q 658 25 658 39 q 599 -3 656 -3 l 546 -3 q 486 24 490 -3 l 461 214 l 213 214 l 149 24 q 86 -3 139 -3 l 32 -3 m 447 358 l 407 689 q 400 788 400 742 l 393 788 q 365 689 374 713 l 253 358 l 447 358 z "},"Ậ":{"ha":701,"x_min":-26,"x_max":658,"o":"m 32 -3 q -26 25 -29 -3 q -21 47 -26 31 l 303 940 q 381 975 317 975 l 446 975 q 517 940 511 975 l 657 47 q 658 25 658 39 q 599 -3 656 -3 l 546 -3 q 486 24 490 -3 l 461 214 l 213 214 l 149 24 q 86 -3 139 -3 l 32 -3 m 447 358 l 407 689 q 400 788 400 742 l 393 788 q 365 689 374 713 l 253 358 l 447 358 m 288 -268 q 225 -258 244 -268 q 208 -229 206 -249 l 217 -150 q 303 -111 221 -111 q 383 -150 388 -111 l 375 -229 q 288 -268 371 -268 m 286 1042 q 265 1047 272 1042 q 260 1058 258 1051 q 265 1069 260 1061 q 271 1082 269 1078 l 364 1215 q 394 1237 376 1231 q 439 1243 411 1243 l 449 1243 q 492 1237 475 1243 q 517 1215 508 1231 l 582 1082 q 590 1058 590 1069 q 581 1047 589 1051 q 561 1042 574 1042 l 525 1042 q 471 1065 481 1042 l 432 1143 l 379 1067 q 319 1042 363 1042 l 286 1042 z "},"Ầ":{"ha":701,"x_min":-29,"x_max":674,"o":"m 640 1183 q 571 1208 593 1183 l 522 1275 q 485 1325 497 1308 q 474 1350 474 1342 q 487 1369 474 1364 q 529 1375 500 1375 q 625 1338 608 1375 q 674 1201 674 1218 q 667 1187 674 1190 q 640 1183 660 1183 m 296 1042 q 269 1058 268 1042 q 273 1069 269 1063 q 278 1081 276 1076 l 367 1215 q 395 1238 378 1232 q 440 1243 413 1243 l 451 1243 q 494 1238 478 1243 q 518 1215 510 1232 l 576 1081 q 583 1058 583 1071 q 574 1047 582 1051 q 554 1042 567 1042 l 519 1042 q 464 1065 475 1042 l 435 1143 l 389 1065 q 365 1047 379 1051 q 329 1042 350 1042 l 296 1042 m 32 -3 q -26 25 -29 -3 q -21 47 -26 31 l 303 940 q 381 975 317 975 l 446 975 q 517 940 511 975 l 657 47 q 658 25 658 39 q 599 -3 656 -3 l 546 -3 q 486 24 490 -3 l 461 214 l 213 214 l 149 24 q 86 -3 139 -3 l 32 -3 m 447 358 l 407 689 q 400 788 400 742 l 393 788 q 365 689 374 713 l 253 358 l 447 358 z "},"Ẩ":{"ha":701,"x_min":-29,"x_max":710,"o":"m 606 1193 q 565 1202 581 1193 q 549 1222 549 1211 q 578 1247 549 1233 q 611 1268 601 1260 q 621 1290 621 1276 q 610 1312 621 1304 q 583 1319 599 1319 q 535 1308 554 1319 q 513 1297 517 1297 q 490 1317 504 1297 q 475 1351 475 1338 q 511 1378 475 1365 q 585 1390 547 1390 q 674 1366 639 1390 q 710 1297 710 1342 q 669 1224 710 1256 q 637 1203 656 1213 q 606 1193 618 1193 m 296 1042 q 269 1058 268 1042 q 273 1069 269 1063 q 278 1081 276 1076 l 367 1215 q 395 1238 378 1232 q 440 1243 413 1243 l 451 1243 q 494 1238 478 1243 q 518 1215 510 1232 l 576 1081 q 583 1058 583 1071 q 574 1047 582 1051 q 554 1042 567 1042 l 519 1042 q 464 1065 475 1042 l 435 1143 l 389 1065 q 365 1047 379 1051 q 329 1042 350 1042 l 296 1042 m 32 -3 q -26 25 -29 -3 q -21 47 -26 31 l 303 940 q 381 975 317 975 l 446 975 q 517 940 511 975 l 657 47 q 658 25 658 39 q 599 -3 656 -3 l 546 -3 q 486 24 490 -3 l 461 214 l 213 214 l 149 24 q 86 -3 139 -3 l 32 -3 m 447 358 l 407 689 q 400 788 400 742 l 393 788 q 365 689 374 713 l 253 358 l 447 358 z "},"Ẫ":{"ha":701,"x_min":-29,"x_max":658,"o":"m 276 1235 q 253 1264 253 1242 q 257 1285 253 1271 q 367 1381 292 1381 q 451 1356 393 1381 q 519 1335 501 1335 q 538 1340 529 1335 q 557 1361 546 1344 q 589 1383 571 1383 q 604 1381 593 1383 l 615 1376 q 639 1347 639 1367 q 635 1328 639 1336 q 591 1257 619 1283 q 525 1231 563 1231 q 440 1256 499 1231 q 372 1276 390 1276 q 353 1271 361 1276 q 335 1249 344 1265 q 306 1226 319 1226 q 289 1229 300 1226 l 276 1235 m 296 1042 q 269 1058 268 1042 q 283 1086 269 1064 l 363 1185 q 392 1206 375 1200 q 438 1213 408 1213 l 449 1213 q 492 1206 476 1213 q 517 1185 507 1200 l 574 1086 q 583 1058 583 1067 q 554 1042 581 1042 l 519 1042 q 485 1047 496 1042 q 464 1065 474 1051 l 433 1129 l 388 1065 q 363 1047 374 1051 q 329 1042 351 1042 l 296 1042 m 32 -3 q -26 25 -29 -3 q -21 47 -26 31 l 303 940 q 381 975 317 975 l 446 975 q 517 940 511 975 l 657 47 q 658 25 658 39 q 599 -3 656 -3 l 546 -3 q 486 24 490 -3 l 461 214 l 213 214 l 149 24 q 86 -3 139 -3 l 32 -3 m 447 358 l 407 689 q 400 788 400 742 l 393 788 q 365 689 374 713 l 253 358 l 447 358 z "},"Ä":{"ha":701,"x_min":-26,"x_max":658,"o":"m 32 -3 q -26 25 -29 -3 q -21 47 -26 31 l 303 940 q 381 975 317 975 l 446 975 q 517 940 511 975 l 657 47 q 658 25 658 39 q 599 -3 656 -3 l 546 -3 q 486 24 490 -3 l 461 214 l 213 214 l 149 24 q 86 -3 139 -3 l 32 -3 m 447 358 l 407 689 q 400 788 400 742 l 393 788 q 365 689 374 713 l 253 358 l 447 358 m 324 1064 q 271 1074 286 1064 q 258 1103 256 1083 l 265 1182 q 339 1221 269 1221 q 406 1182 410 1221 l 399 1103 q 324 1064 392 1064 m 531 1064 q 478 1074 493 1064 q 465 1103 463 1083 l 472 1182 q 546 1221 476 1221 q 613 1182 617 1221 l 606 1103 q 531 1064 599 1064 z "},"Ạ":{"ha":701,"x_min":-26,"x_max":658,"o":"m 32 -3 q -26 25 -29 -3 q -21 47 -26 31 l 303 940 q 381 975 317 975 l 446 975 q 517 940 511 975 l 657 47 q 658 25 658 39 q 599 -3 656 -3 l 546 -3 q 486 24 490 -3 l 461 214 l 213 214 l 149 24 q 86 -3 139 -3 l 32 -3 m 447 358 l 407 689 q 400 788 400 742 l 393 788 q 365 689 374 713 l 253 358 l 447 358 m 288 -268 q 225 -258 244 -268 q 208 -229 206 -249 l 217 -150 q 303 -111 221 -111 q 383 -150 388 -111 l 375 -229 q 288 -268 371 -268 z "},"À":{"ha":701,"x_min":-26,"x_max":658,"o":"m 32 -3 q -26 25 -29 -3 q -21 47 -26 31 l 303 940 q 381 975 317 975 l 446 975 q 517 940 511 975 l 657 47 q 658 25 658 39 q 599 -3 656 -3 l 546 -3 q 486 24 490 -3 l 461 214 l 213 214 l 149 24 q 86 -3 139 -3 l 32 -3 m 447 358 l 407 689 q 400 788 400 742 l 393 788 q 365 689 374 713 l 253 358 l 447 358 m 453 1050 q 395 1058 414 1050 q 367 1081 376 1067 l 317 1144 q 257 1222 267 1207 q 247 1246 247 1236 q 264 1260 247 1256 q 317 1264 281 1264 q 417 1228 396 1264 q 470 1117 451 1157 q 489 1068 489 1078 q 482 1053 489 1057 q 453 1050 475 1050 z "},"Ả":{"ha":701,"x_min":-26,"x_max":658,"o":"m 32 -3 q -26 25 -29 -3 q -21 47 -26 31 l 303 940 q 381 975 317 975 l 446 975 q 517 940 511 975 l 657 47 q 658 25 658 39 q 599 -3 656 -3 l 546 -3 q 486 24 490 -3 l 461 214 l 213 214 l 149 24 q 86 -3 139 -3 l 32 -3 m 447 358 l 407 689 q 400 788 400 742 l 393 788 q 365 689 374 713 l 253 358 l 447 358 m 442 1033 q 399 1044 422 1033 q 376 1063 376 1054 q 388 1083 376 1072 q 414 1104 400 1093 q 454 1140 440 1125 q 468 1175 468 1156 q 454 1199 468 1190 q 421 1208 440 1208 q 381 1200 399 1208 q 360 1192 364 1192 q 337 1212 351 1192 q 322 1246 322 1232 q 359 1274 322 1260 q 432 1289 396 1289 q 536 1262 496 1289 q 576 1183 576 1235 q 549 1113 576 1147 q 489 1056 522 1078 q 442 1033 456 1033 z "},"Ā":{"ha":701,"x_min":-26,"x_max":658,"o":"m 32 -3 q -26 25 -29 -3 q -21 47 -26 31 l 303 940 q 381 975 317 975 l 446 975 q 517 940 511 975 l 657 47 q 658 25 658 39 q 599 -3 656 -3 l 546 -3 q 486 24 490 -3 l 461 214 l 213 214 l 149 24 q 86 -3 139 -3 l 32 -3 m 447 358 l 407 689 q 400 788 400 742 l 393 788 q 365 689 374 713 l 253 358 l 447 358 m 293 1082 q 268 1094 275 1082 q 264 1133 261 1106 l 265 1151 q 306 1201 271 1201 l 575 1201 q 601 1190 594 1201 q 606 1151 608 1178 l 603 1133 q 591 1094 600 1106 q 563 1082 582 1082 l 293 1082 z "},"Ą":{"ha":701,"x_min":-29,"x_max":675,"o":"m 639 -136 q 666 -145 657 -136 q 675 -175 675 -154 q 654 -215 675 -204 q 571 -236 617 -236 q 466 -195 493 -236 q 439 -108 439 -154 q 449 -39 439 -78 q 485 36 460 0 l 461 214 l 213 214 l 149 24 q 86 -3 139 -3 l 32 -3 q -26 25 -29 -3 q -21 47 -26 31 l 303 940 q 381 975 317 975 l 446 975 q 517 940 511 975 l 657 47 q 658 25 658 39 q 599 -3 656 -3 l 546 -3 q 529 -83 529 -47 q 549 -131 529 -118 q 597 -143 568 -143 q 620 -140 608 -143 q 639 -136 632 -136 m 447 358 l 407 689 q 400 788 400 742 l 393 788 q 365 689 374 713 l 253 358 l 447 358 z "},"Å":{"ha":701,"x_min":-26,"x_max":658,"o":"m 32 -3 q -26 25 -29 -3 q -21 47 -26 31 l 303 940 q 381 975 317 975 l 446 975 q 517 940 511 975 l 657 47 q 658 25 658 39 q 599 -3 656 -3 l 546 -3 q 486 24 490 -3 l 461 214 l 213 214 l 149 24 q 86 -3 139 -3 l 32 -3 m 447 358 l 407 689 q 400 788 400 742 l 393 788 q 365 689 374 713 l 253 358 l 447 358 m 421 1017 q 335 1047 367 1017 q 304 1129 304 1078 q 344 1236 304 1194 q 449 1278 385 1278 q 535 1246 504 1278 q 567 1163 567 1214 q 526 1058 567 1099 q 421 1017 485 1017 m 429 1089 q 474 1107 457 1089 q 492 1156 492 1125 q 442 1204 492 1204 q 396 1186 413 1204 q 379 1136 379 1168 q 429 1089 379 1089 z "},"Ǻ":{"ha":701,"x_min":-29,"x_max":658,"o":"m 404 1133 q 374 1138 382 1133 q 367 1151 365 1142 q 432 1256 396 1203 q 543 1292 460 1292 q 601 1288 583 1292 q 618 1274 619 1283 q 606 1257 618 1268 q 567 1222 594 1246 l 499 1164 q 404 1133 468 1133 m 657 47 q 658 25 658 39 q 599 -3 656 -3 l 546 -3 q 486 24 490 -3 l 461 214 l 213 214 l 149 24 q 86 -3 139 -3 l 32 -3 q -26 25 -29 -3 q -21 47 -26 31 l 293 914 q 286 956 286 935 q 326 1063 286 1021 q 431 1104 367 1104 q 517 1072 486 1104 q 549 989 549 1040 q 522 904 549 942 l 657 47 m 361 963 q 411 915 361 915 q 456 933 439 915 q 474 982 474 951 q 424 1031 474 1031 q 378 1013 394 1031 q 361 963 361 994 m 447 358 l 407 689 q 400 788 400 742 l 393 788 q 365 689 374 713 l 253 358 l 447 358 z "},"Ã":{"ha":701,"x_min":-26,"x_max":658,"o":"m 32 -3 q -26 25 -29 -3 q -21 47 -26 31 l 303 940 q 381 975 317 975 l 446 975 q 517 940 511 975 l 657 47 q 658 25 658 39 q 599 -3 656 -3 l 546 -3 q 486 24 490 -3 l 461 214 l 213 214 l 149 24 q 86 -3 139 -3 l 32 -3 m 447 358 l 407 689 q 400 788 400 742 l 393 788 q 365 689 374 713 l 253 358 l 447 358 m 228 1063 q 203 1092 203 1069 q 207 1113 203 1099 q 255 1183 224 1157 q 329 1208 286 1208 q 421 1183 357 1208 q 496 1163 474 1163 q 517 1167 507 1163 q 538 1189 526 1172 q 571 1211 551 1211 q 589 1208 575 1211 l 601 1204 q 628 1175 628 1194 q 626 1164 628 1169 q 624 1156 624 1158 q 574 1084 606 1110 q 501 1058 543 1058 q 408 1083 472 1058 q 333 1104 354 1104 q 293 1076 311 1104 q 276 1060 283 1065 q 260 1054 269 1054 q 242 1057 253 1054 l 228 1063 z "},"Æ":{"ha":1036,"x_min":-36,"x_max":999,"o":"m 36 -3 q -32 25 -36 -3 q -25 49 -32 35 l 414 935 q 437 963 425 954 q 467 972 449 972 l 968 972 q 999 933 999 972 q 997 913 999 919 l 994 878 q 953 818 989 818 l 639 818 l 644 575 l 925 575 q 956 536 956 575 q 954 515 956 522 l 951 481 q 937 435 947 449 q 908 421 926 421 l 649 421 l 656 154 l 913 154 q 942 115 942 154 q 940 94 942 103 l 938 60 q 924 14 933 28 q 896 0 914 0 l 519 0 q 486 42 485 0 l 481 214 l 231 214 l 138 24 q 83 -3 125 -3 l 36 -3 m 300 369 l 481 369 l 476 667 l 486 760 l 482 760 l 442 668 l 300 369 z "},"Ǽ":{"ha":1036,"x_min":-32,"x_max":999,"o":"m 36 -3 q -32 25 -36 -3 q -25 49 -32 35 l 414 935 q 437 963 425 954 q 467 972 449 972 l 968 972 q 999 933 999 972 q 997 913 999 919 l 994 878 q 953 818 989 818 l 639 818 l 644 575 l 925 575 q 956 536 956 575 q 954 515 956 522 l 951 481 q 937 435 947 449 q 908 421 926 421 l 649 421 l 656 154 l 913 154 q 942 115 942 154 q 940 94 942 103 l 938 60 q 924 14 933 28 q 896 0 914 0 l 519 0 q 486 42 485 0 l 481 214 l 231 214 l 138 24 q 83 -3 125 -3 l 36 -3 m 300 369 l 481 369 l 476 667 l 486 760 l 482 760 l 442 668 l 300 369 m 579 1050 q 551 1054 558 1050 q 543 1068 543 1058 q 552 1095 543 1075 q 572 1136 561 1115 q 588 1167 582 1157 l 618 1228 q 715 1264 635 1264 q 768 1260 751 1264 q 785 1246 785 1256 q 778 1226 785 1238 q 740 1176 771 1214 l 668 1081 q 638 1058 657 1065 q 579 1050 618 1050 z "},"B":{"ha":749,"x_min":56,"x_max":706,"o":"m 100 0 q 65 12 75 0 q 58 50 56 24 l 150 922 q 165 960 153 949 q 203 972 178 972 l 443 972 q 641 919 576 972 q 706 768 706 867 q 663 610 706 679 q 556 511 621 542 l 556 506 q 649 439 611 488 q 686 311 686 390 q 685 275 686 288 q 347 0 658 0 l 100 0 m 403 568 q 493 610 460 568 q 526 729 526 653 q 503 804 526 781 q 431 828 481 828 l 317 828 l 289 568 l 403 568 m 376 146 q 507 290 493 146 q 508 318 508 300 q 481 398 508 372 q 399 424 454 424 l 274 424 l 244 146 l 376 146 z "},"C":{"ha":638,"x_min":64,"x_max":651,"o":"m 401 -10 q 64 372 64 -10 q 71 488 64 418 q 199 861 97 740 q 494 982 300 982 q 621 963 572 982 q 651 919 651 954 q 642 865 651 896 q 616 815 632 833 q 583 804 600 796 q 485 824 536 824 q 333 741 388 824 q 258 488 278 658 q 253 390 253 442 q 417 150 253 150 q 525 172 471 150 q 538 175 533 175 q 568 153 558 175 q 578 99 578 131 q 565 47 578 67 q 528 13 553 26 q 401 -10 479 -10 z "},"Ć":{"ha":638,"x_min":64,"x_max":651,"o":"m 401 -10 q 64 372 64 -10 q 71 488 64 418 q 199 861 97 740 q 494 982 300 982 q 621 963 572 982 q 651 919 651 954 q 642 865 651 896 q 616 815 632 833 q 583 804 600 796 q 485 824 536 824 q 333 741 388 824 q 258 488 278 658 q 253 390 253 442 q 417 150 253 150 q 525 172 471 150 q 538 175 533 175 q 568 153 558 175 q 578 99 578 131 q 565 47 578 67 q 528 13 553 26 q 401 -10 479 -10 m 411 1050 q 383 1054 390 1050 q 375 1068 375 1058 q 384 1095 375 1075 q 403 1136 393 1115 q 419 1167 414 1157 l 450 1228 q 547 1264 467 1264 q 600 1260 583 1264 q 617 1246 617 1256 q 610 1226 617 1238 q 572 1176 603 1214 l 500 1081 q 469 1058 489 1065 q 411 1050 450 1050 z "},"Č":{"ha":638,"x_min":64,"x_max":651,"o":"m 401 -10 q 64 372 64 -10 q 71 488 64 418 q 199 861 97 740 q 494 982 300 982 q 621 963 572 982 q 651 919 651 954 q 642 865 651 896 q 616 815 632 833 q 583 804 600 796 q 485 824 536 824 q 333 741 388 824 q 258 488 278 658 q 253 390 253 442 q 417 150 253 150 q 525 172 471 150 q 538 175 533 175 q 568 153 558 175 q 578 99 578 131 q 565 47 578 67 q 528 13 553 26 q 401 -10 479 -10 m 446 1046 q 403 1052 419 1046 q 379 1074 388 1058 l 314 1207 q 307 1231 307 1221 q 336 1247 310 1247 l 371 1247 q 425 1222 411 1247 l 463 1146 l 515 1224 q 576 1247 531 1247 l 611 1247 q 631 1242 624 1247 q 636 1231 638 1238 q 625 1207 636 1224 l 531 1074 q 501 1052 518 1058 q 458 1046 485 1046 l 446 1046 z "},"Ç":{"ha":638,"x_min":64,"x_max":651,"o":"m 621 963 q 651 919 651 954 q 642 865 651 896 q 616 815 632 833 q 583 804 600 796 q 485 824 536 824 q 333 741 388 824 q 258 488 278 658 q 253 390 253 442 q 417 150 253 150 q 525 172 471 150 q 538 175 533 175 q 568 153 558 175 q 578 99 578 131 q 565 47 578 67 q 528 13 553 26 q 401 -10 479 -10 q 357 -8 371 -10 l 338 -72 q 405 -101 378 -76 q 432 -172 432 -126 q 393 -263 432 -233 q 290 -293 354 -293 q 193 -274 236 -293 q 150 -226 150 -254 q 163 -190 150 -206 q 188 -175 176 -175 q 221 -186 196 -175 q 281 -204 257 -204 q 306 -197 296 -204 q 315 -175 315 -190 q 306 -153 315 -160 q 278 -137 297 -147 q 246 -110 246 -126 q 253 -79 246 -101 q 269 -33 260 -57 q 282 4 278 -8 q 64 374 64 63 q 71 488 64 421 q 199 861 97 740 q 494 982 300 982 q 621 963 572 982 z "},"Ĉ":{"ha":638,"x_min":64,"x_max":651,"o":"m 401 -10 q 64 372 64 -10 q 71 488 64 418 q 199 861 97 740 q 494 982 300 982 q 621 963 572 982 q 651 919 651 954 q 642 865 651 896 q 616 815 632 833 q 583 804 600 796 q 485 824 536 824 q 333 741 388 824 q 258 488 278 658 q 253 390 253 442 q 417 150 253 150 q 525 172 471 150 q 538 175 533 175 q 568 153 558 175 q 578 99 578 131 q 565 47 578 67 q 528 13 553 26 q 401 -10 479 -10 m 314 1042 q 293 1047 300 1042 q 288 1058 286 1051 q 292 1069 288 1061 q 299 1082 297 1078 l 392 1215 q 422 1237 404 1231 q 467 1243 439 1243 l 476 1243 q 519 1237 503 1243 q 544 1215 536 1231 l 610 1082 q 618 1058 618 1069 q 609 1047 617 1051 q 589 1042 601 1042 l 553 1042 q 499 1065 508 1042 l 460 1143 l 407 1067 q 347 1042 390 1042 l 314 1042 z "},"Ċ":{"ha":638,"x_min":64,"x_max":651,"o":"m 401 -10 q 64 372 64 -10 q 71 488 64 418 q 199 861 97 740 q 494 982 300 982 q 621 963 572 982 q 651 919 651 954 q 642 865 651 896 q 616 815 632 833 q 583 804 600 796 q 485 824 536 824 q 333 741 388 824 q 258 488 278 658 q 253 390 253 442 q 417 150 253 150 q 525 172 471 150 q 538 175 533 175 q 568 153 558 175 q 578 99 578 131 q 565 47 578 67 q 528 13 553 26 q 401 -10 479 -10 m 454 1064 q 392 1074 411 1064 q 375 1103 372 1083 l 383 1182 q 469 1221 388 1221 q 550 1182 554 1221 l 542 1103 q 454 1064 538 1064 z "},"D":{"ha":801,"x_min":50,"x_max":756,"o":"m 94 0 q 60 12 71 0 q 53 50 50 24 l 146 922 q 161 960 149 949 q 197 972 174 972 l 450 972 q 678 883 601 972 q 756 607 756 793 q 749 486 756 558 q 622 119 722 238 q 347 0 522 0 l 94 0 m 358 154 q 493 231 443 154 q 563 486 543 308 q 569 597 569 556 q 534 766 569 714 q 428 818 499 818 l 321 818 l 250 154 l 358 154 z "},"Ǳ":{"ha":1506,"x_min":53,"x_max":1508,"o":"m 94 0 q 60 12 71 0 q 53 50 50 24 l 146 922 q 161 960 149 949 q 197 972 174 972 l 450 972 q 678 883 601 972 q 756 607 756 793 q 749 486 756 558 q 622 119 722 238 q 347 0 522 0 l 94 0 m 358 154 q 493 231 443 154 q 563 486 543 308 q 569 597 569 556 q 534 766 569 714 q 428 818 499 818 l 321 818 l 250 154 l 358 154 m 846 0 q 819 38 831 0 q 811 106 808 76 q 815 121 811 115 l 1275 818 l 953 818 q 931 828 938 818 q 924 858 924 838 q 925 879 924 871 l 929 911 q 942 958 932 943 q 969 972 951 972 l 1476 972 q 1501 932 1492 972 q 1508 864 1511 892 q 1507 851 1508 854 l 1050 154 l 1400 154 q 1431 113 1431 154 l 1429 93 l 1426 61 q 1385 0 1421 0 l 846 0 z "},"Ǆ":{"ha":1506,"x_min":53,"x_max":1508,"o":"m 94 0 q 60 12 71 0 q 53 50 50 24 l 146 922 q 161 960 149 949 q 197 972 174 972 l 450 972 q 678 883 601 972 q 756 607 756 793 q 749 486 756 558 q 622 119 722 238 q 347 0 522 0 l 94 0 m 358 154 q 493 231 443 154 q 563 486 543 308 q 569 597 569 556 q 534 766 569 714 q 428 818 499 818 l 321 818 l 250 154 l 358 154 m 846 0 q 819 38 831 0 q 811 106 808 76 q 815 121 811 115 l 1275 818 l 953 818 q 931 828 938 818 q 924 858 924 838 q 925 879 924 871 l 929 911 q 942 958 932 943 q 969 972 951 972 l 1476 972 q 1501 932 1492 972 q 1508 864 1511 892 q 1507 851 1508 854 l 1050 154 l 1400 154 q 1431 113 1431 154 l 1429 93 l 1426 61 q 1385 0 1421 0 l 846 0 m 1222 1046 q 1180 1052 1196 1046 q 1156 1074 1164 1058 l 1090 1207 q 1083 1231 1083 1221 q 1113 1247 1086 1247 l 1147 1247 q 1201 1222 1188 1247 l 1239 1146 l 1292 1224 q 1353 1247 1307 1247 l 1388 1247 q 1407 1242 1400 1247 q 1413 1231 1414 1238 q 1401 1207 1413 1224 l 1307 1074 q 1278 1052 1294 1058 q 1235 1046 1261 1046 l 1222 1046 z "},"Ð":{"ha":801,"x_min":24,"x_max":756,"o":"m 450 972 q 678 883 601 972 q 756 607 756 793 q 749 486 756 558 q 622 119 722 238 q 347 0 522 0 l 94 0 q 60 12 71 0 q 53 50 50 24 l 92 418 l 56 418 q 31 429 39 418 q 24 464 24 440 q 34 543 24 514 q 71 572 44 572 l 108 572 l 146 922 q 161 960 149 949 q 197 972 174 972 l 450 972 m 563 486 q 569 597 569 556 q 534 766 569 714 q 428 818 499 818 l 321 818 l 294 572 l 414 572 q 437 561 429 572 q 444 525 444 550 q 435 447 444 475 q 399 418 425 418 l 278 418 l 250 154 l 358 154 q 493 231 443 154 q 563 486 543 308 z "},"Ď":{"ha":801,"x_min":53,"x_max":756,"o":"m 94 0 q 60 12 71 0 q 53 50 50 24 l 146 922 q 161 960 149 949 q 197 972 174 972 l 450 972 q 678 883 601 972 q 756 607 756 793 q 749 486 756 558 q 622 119 722 238 q 347 0 522 0 l 94 0 m 358 154 q 493 231 443 154 q 563 486 543 308 q 569 597 569 556 q 534 766 569 714 q 428 818 499 818 l 321 818 l 250 154 l 358 154 m 450 1046 q 408 1052 424 1046 q 383 1074 392 1058 l 318 1207 q 311 1231 311 1221 q 340 1247 314 1247 l 375 1247 q 429 1222 415 1247 l 467 1146 l 519 1224 q 581 1247 535 1247 l 615 1247 q 635 1242 628 1247 q 640 1231 642 1238 q 629 1207 640 1224 l 535 1074 q 506 1052 522 1058 q 463 1046 489 1046 l 450 1046 z "},"Đ":{"ha":801,"x_min":24,"x_max":756,"o":"m 450 972 q 678 883 601 972 q 756 607 756 793 q 749 486 756 558 q 622 119 722 238 q 347 0 522 0 l 94 0 q 60 12 71 0 q 53 50 50 24 l 92 418 l 56 418 q 31 429 39 418 q 24 464 24 440 q 34 543 24 514 q 71 572 44 572 l 108 572 l 146 922 q 161 960 149 949 q 197 972 174 972 l 450 972 m 563 486 q 569 597 569 556 q 534 766 569 714 q 428 818 499 818 l 321 818 l 294 572 l 414 572 q 437 561 429 572 q 444 525 444 550 q 435 447 444 475 q 399 418 425 418 l 278 418 l 250 154 l 358 154 q 493 231 443 154 q 563 486 543 308 z "},"Ḍ":{"ha":801,"x_min":53,"x_max":756,"o":"m 94 0 q 60 12 71 0 q 53 50 50 24 l 146 922 q 161 960 149 949 q 197 972 174 972 l 450 972 q 678 883 601 972 q 756 607 756 793 q 749 486 756 558 q 622 119 722 238 q 347 0 522 0 l 94 0 m 358 154 q 493 231 443 154 q 563 486 543 308 q 569 597 569 556 q 534 766 569 714 q 428 818 499 818 l 321 818 l 250 154 l 358 154 m 311 -268 q 249 -258 268 -268 q 232 -229 229 -249 l 240 -150 q 326 -111 244 -111 q 407 -150 411 -111 l 399 -229 q 311 -268 394 -268 z "},"ǲ":{"ha":1364,"x_min":53,"x_max":1350,"o":"m 94 0 q 60 12 71 0 q 53 50 50 24 l 146 922 q 161 960 149 949 q 197 972 174 972 l 450 972 q 678 883 601 972 q 756 607 756 793 q 749 486 756 558 q 622 119 722 238 q 347 0 522 0 l 94 0 m 358 154 q 493 231 443 154 q 563 486 543 308 q 569 597 569 556 q 534 766 569 714 q 428 818 499 818 l 321 818 l 250 154 l 358 154 m 838 0 q 818 33 826 0 q 813 93 810 67 q 817 111 813 99 l 1132 586 l 917 586 q 886 629 886 586 l 888 646 l 890 667 q 903 712 893 697 q 931 726 913 726 l 1325 726 q 1343 692 1335 726 q 1349 632 1351 657 q 1343 614 1349 622 l 1029 140 l 1268 140 q 1293 126 1286 140 q 1297 81 1300 113 l 1294 60 q 1281 14 1290 28 q 1253 0 1271 0 l 838 0 z "},"ǅ":{"ha":1364,"x_min":53,"x_max":1350,"o":"m 94 0 q 60 12 71 0 q 53 50 50 24 l 146 922 q 161 960 149 949 q 197 972 174 972 l 450 972 q 678 883 601 972 q 756 607 756 793 q 749 486 756 558 q 622 119 722 238 q 347 0 522 0 l 94 0 m 358 154 q 493 231 443 154 q 563 486 543 308 q 569 597 569 556 q 534 766 569 714 q 428 818 499 818 l 321 818 l 250 154 l 358 154 m 838 0 q 818 33 826 0 q 813 93 810 67 q 817 111 813 99 l 1132 586 l 917 586 q 886 629 886 586 l 888 646 l 890 667 q 903 712 893 697 q 931 726 913 726 l 1325 726 q 1343 692 1335 726 q 1349 632 1351 657 q 1343 614 1349 622 l 1029 140 l 1268 140 q 1293 126 1286 140 q 1297 81 1300 113 l 1294 60 q 1281 14 1290 28 q 1253 0 1271 0 l 838 0 m 1125 800 q 1083 806 1099 800 q 1058 828 1067 813 l 993 961 q 986 985 986 975 q 1015 1001 989 1001 l 1050 1001 q 1104 976 1090 1001 l 1142 900 l 1194 978 q 1256 1001 1210 1001 l 1290 1001 q 1310 997 1303 1001 q 1315 985 1317 992 q 1304 961 1315 978 l 1210 828 q 1181 806 1197 813 q 1138 800 1164 800 l 1125 800 z "},"E":{"ha":635,"x_min":56,"x_max":639,"o":"m 99 0 q 65 12 75 0 q 58 50 56 24 l 150 922 q 165 960 153 949 q 201 972 178 972 l 608 972 q 639 929 639 972 l 638 913 l 633 878 q 592 818 629 818 l 322 818 l 297 575 l 538 575 q 563 561 556 575 q 567 515 569 547 l 563 481 q 521 421 557 421 l 281 421 l 253 154 l 522 154 q 547 140 540 154 q 551 94 554 126 l 547 60 q 534 14 544 28 q 506 0 524 0 l 99 0 z "},"É":{"ha":635,"x_min":57,"x_max":639,"o":"m 99 0 q 65 12 75 0 q 58 50 56 24 l 150 922 q 165 960 153 949 q 201 972 178 972 l 608 972 q 639 929 639 972 l 638 913 l 633 878 q 592 818 629 818 l 322 818 l 297 575 l 538 575 q 563 561 556 575 q 567 515 569 547 l 563 481 q 521 421 557 421 l 281 421 l 253 154 l 522 154 q 547 140 540 154 q 551 94 554 126 l 547 60 q 534 14 544 28 q 506 0 524 0 l 99 0 m 375 1050 q 347 1054 354 1050 q 339 1068 339 1058 q 348 1095 339 1075 q 367 1136 357 1115 q 383 1167 378 1157 l 414 1228 q 511 1264 431 1264 q 564 1260 547 1264 q 581 1246 581 1256 q 574 1226 581 1238 q 536 1176 567 1214 l 464 1081 q 433 1058 453 1065 q 375 1050 414 1050 z "},"Ĕ":{"ha":635,"x_min":57,"x_max":639,"o":"m 99 0 q 65 12 75 0 q 58 50 56 24 l 150 922 q 165 960 153 949 q 201 972 178 972 l 608 972 q 639 929 639 972 l 638 913 l 633 878 q 592 818 629 818 l 322 818 l 297 575 l 538 575 q 563 561 556 575 q 567 515 569 547 l 563 481 q 521 421 557 421 l 281 421 l 253 154 l 522 154 q 547 140 540 154 q 551 94 554 126 l 547 60 q 534 14 544 28 q 506 0 524 0 l 99 0 m 417 1050 q 294 1094 336 1050 q 258 1201 251 1138 q 307 1239 263 1239 q 329 1232 322 1239 q 340 1210 336 1225 q 367 1176 349 1188 q 429 1164 386 1164 q 495 1177 475 1164 q 528 1213 515 1190 q 544 1233 536 1226 q 567 1239 553 1239 q 607 1201 611 1239 q 549 1094 600 1138 q 417 1050 499 1050 z "},"Ě":{"ha":635,"x_min":57,"x_max":639,"o":"m 99 0 q 65 12 75 0 q 58 50 56 24 l 150 922 q 165 960 153 949 q 201 972 178 972 l 608 972 q 639 929 639 972 l 638 913 l 633 878 q 592 818 629 818 l 322 818 l 297 575 l 538 575 q 563 561 556 575 q 567 515 569 547 l 563 481 q 521 421 557 421 l 281 421 l 253 154 l 522 154 q 547 140 540 154 q 551 94 554 126 l 547 60 q 534 14 544 28 q 506 0 524 0 l 99 0 m 410 1046 q 367 1052 383 1046 q 343 1074 351 1058 l 278 1207 q 271 1231 271 1221 q 300 1247 274 1247 l 335 1247 q 389 1222 375 1247 l 426 1146 l 479 1224 q 540 1247 494 1247 l 575 1247 q 594 1242 588 1247 q 600 1231 601 1238 q 589 1207 600 1224 l 494 1074 q 465 1052 482 1058 q 422 1046 449 1046 l 410 1046 z "},"Ê":{"ha":635,"x_min":57,"x_max":639,"o":"m 99 0 q 65 12 75 0 q 58 50 56 24 l 150 922 q 165 960 153 949 q 201 972 178 972 l 608 972 q 639 929 639 972 l 638 913 l 633 878 q 592 818 629 818 l 322 818 l 297 575 l 538 575 q 563 561 556 575 q 567 515 569 547 l 563 481 q 521 421 557 421 l 281 421 l 253 154 l 522 154 q 547 140 540 154 q 551 94 554 126 l 547 60 q 534 14 544 28 q 506 0 524 0 l 99 0 m 278 1042 q 257 1047 264 1042 q 251 1058 250 1051 q 256 1069 251 1061 q 263 1082 261 1078 l 356 1215 q 385 1237 368 1231 q 431 1243 403 1243 l 440 1243 q 483 1237 467 1243 q 508 1215 500 1231 l 574 1082 q 582 1058 582 1069 q 573 1047 581 1051 q 553 1042 565 1042 l 517 1042 q 463 1065 472 1042 l 424 1143 l 371 1067 q 311 1042 354 1042 l 278 1042 z "},"Ế":{"ha":635,"x_min":56,"x_max":738,"o":"m 571 1183 q 547 1188 554 1183 q 540 1201 540 1192 q 564 1267 540 1210 l 593 1338 q 686 1375 611 1375 q 726 1369 714 1375 q 738 1347 738 1364 q 719 1313 738 1339 q 663 1238 701 1288 l 638 1206 q 614 1189 629 1194 q 571 1183 599 1183 m 288 1042 q 261 1058 260 1042 q 265 1069 261 1063 q 269 1081 268 1076 l 358 1215 q 387 1238 369 1232 q 432 1243 404 1243 l 443 1243 q 485 1238 469 1243 q 510 1215 501 1232 l 568 1081 q 575 1058 575 1071 q 566 1047 574 1051 q 546 1042 558 1042 l 511 1042 q 456 1065 467 1042 l 426 1143 l 381 1065 q 356 1047 371 1051 q 321 1042 342 1042 l 288 1042 m 99 0 q 65 12 75 0 q 58 50 56 24 l 150 922 q 165 960 153 949 q 201 972 178 972 l 608 972 q 639 929 639 972 l 638 913 l 633 878 q 592 818 629 818 l 322 818 l 297 575 l 538 575 q 563 561 556 575 q 567 515 569 547 l 563 481 q 521 421 557 421 l 281 421 l 253 154 l 522 154 q 547 140 540 154 q 551 94 554 126 l 547 60 q 534 14 544 28 q 506 0 524 0 l 99 0 z "},"Ệ":{"ha":635,"x_min":57,"x_max":639,"o":"m 99 0 q 65 12 75 0 q 58 50 56 24 l 150 922 q 165 960 153 949 q 201 972 178 972 l 608 972 q 639 929 639 972 l 638 913 l 633 878 q 592 818 629 818 l 322 818 l 297 575 l 538 575 q 563 561 556 575 q 567 515 569 547 l 563 481 q 521 421 557 421 l 281 421 l 253 154 l 522 154 q 547 140 540 154 q 551 94 554 126 l 547 60 q 534 14 544 28 q 506 0 524 0 l 99 0 m 269 -268 q 207 -258 226 -268 q 190 -229 188 -249 l 199 -150 q 285 -111 203 -111 q 365 -150 369 -111 l 357 -229 q 269 -268 353 -268 m 278 1042 q 257 1047 264 1042 q 251 1058 250 1051 q 256 1069 251 1061 q 263 1082 261 1078 l 356 1215 q 385 1237 368 1231 q 431 1243 403 1243 l 440 1243 q 483 1237 467 1243 q 508 1215 500 1231 l 574 1082 q 582 1058 582 1069 q 573 1047 581 1051 q 553 1042 565 1042 l 517 1042 q 463 1065 472 1042 l 424 1143 l 371 1067 q 311 1042 354 1042 l 278 1042 z "},"Ề":{"ha":635,"x_min":56,"x_max":667,"o":"m 633 1183 q 564 1208 586 1183 l 515 1275 q 478 1325 490 1308 q 467 1350 467 1342 q 480 1369 467 1364 q 522 1375 493 1375 q 618 1338 601 1375 q 667 1201 667 1218 q 660 1187 667 1190 q 633 1183 653 1183 m 288 1042 q 261 1058 260 1042 q 265 1069 261 1063 q 269 1081 268 1076 l 358 1215 q 387 1238 369 1232 q 432 1243 404 1243 l 443 1243 q 485 1238 469 1243 q 510 1215 501 1232 l 568 1081 q 575 1058 575 1071 q 566 1047 574 1051 q 546 1042 558 1042 l 511 1042 q 456 1065 467 1042 l 426 1143 l 381 1065 q 356 1047 371 1051 q 321 1042 342 1042 l 288 1042 m 99 0 q 65 12 75 0 q 58 50 56 24 l 150 922 q 165 960 153 949 q 201 972 178 972 l 608 972 q 639 929 639 972 l 638 913 l 633 878 q 592 818 629 818 l 322 818 l 297 575 l 538 575 q 563 561 556 575 q 567 515 569 547 l 563 481 q 521 421 557 421 l 281 421 l 253 154 l 522 154 q 547 140 540 154 q 551 94 554 126 l 547 60 q 534 14 544 28 q 506 0 524 0 l 99 0 z "},"Ể":{"ha":635,"x_min":56,"x_max":703,"o":"m 599 1193 q 558 1202 574 1193 q 542 1222 542 1211 q 571 1247 542 1233 q 604 1268 594 1260 q 614 1290 614 1276 q 603 1312 614 1304 q 576 1319 592 1319 q 528 1308 547 1319 q 506 1297 510 1297 q 483 1317 497 1297 q 468 1351 468 1338 q 504 1378 468 1365 q 578 1390 540 1390 q 667 1366 632 1390 q 703 1297 703 1342 q 663 1224 703 1256 q 630 1203 649 1213 q 599 1193 611 1193 m 288 1042 q 261 1058 260 1042 q 265 1069 261 1063 q 269 1081 268 1076 l 358 1215 q 387 1238 369 1232 q 432 1243 404 1243 l 443 1243 q 485 1238 469 1243 q 510 1215 501 1232 l 568 1081 q 575 1058 575 1071 q 566 1047 574 1051 q 546 1042 558 1042 l 511 1042 q 456 1065 467 1042 l 426 1143 l 381 1065 q 356 1047 371 1051 q 321 1042 342 1042 l 288 1042 m 99 0 q 65 12 75 0 q 58 50 56 24 l 150 922 q 165 960 153 949 q 201 972 178 972 l 608 972 q 639 929 639 972 l 638 913 l 633 878 q 592 818 629 818 l 322 818 l 297 575 l 538 575 q 563 561 556 575 q 567 515 569 547 l 563 481 q 521 421 557 421 l 281 421 l 253 154 l 522 154 q 547 140 540 154 q 551 94 554 126 l 547 60 q 534 14 544 28 q 506 0 524 0 l 99 0 z "},"Ễ":{"ha":635,"x_min":56,"x_max":639,"o":"m 268 1235 q 244 1264 244 1242 q 249 1285 244 1271 q 358 1381 283 1381 q 443 1356 385 1381 q 511 1335 493 1335 q 529 1340 521 1335 q 549 1361 538 1344 q 581 1383 563 1383 q 596 1381 585 1383 l 607 1376 q 631 1347 631 1367 q 626 1328 631 1336 q 583 1257 611 1283 q 517 1231 554 1231 q 432 1256 490 1231 q 364 1276 382 1276 q 344 1271 353 1276 q 326 1249 336 1265 q 297 1226 311 1226 q 281 1229 292 1226 l 268 1235 m 288 1042 q 261 1058 260 1042 q 275 1086 261 1064 l 354 1185 q 383 1206 367 1200 q 429 1213 400 1213 l 440 1213 q 483 1206 468 1213 q 508 1185 499 1200 l 565 1086 q 575 1058 575 1067 q 546 1042 572 1042 l 511 1042 q 476 1047 488 1042 q 456 1065 465 1051 l 425 1129 l 379 1065 q 354 1047 365 1051 q 321 1042 343 1042 l 288 1042 m 99 0 q 65 12 75 0 q 58 50 56 24 l 150 922 q 165 960 153 949 q 201 972 178 972 l 608 972 q 639 929 639 972 l 638 913 l 633 878 q 592 818 629 818 l 322 818 l 297 575 l 538 575 q 563 561 556 575 q 567 515 569 547 l 563 481 q 521 421 557 421 l 281 421 l 253 154 l 522 154 q 547 140 540 154 q 551 94 554 126 l 547 60 q 534 14 544 28 q 506 0 524 0 l 99 0 z "},"Ë":{"ha":635,"x_min":57,"x_max":639,"o":"m 99 0 q 65 12 75 0 q 58 50 56 24 l 150 922 q 165 960 153 949 q 201 972 178 972 l 608 972 q 639 929 639 972 l 638 913 l 633 878 q 592 818 629 818 l 322 818 l 297 575 l 538 575 q 563 561 556 575 q 567 515 569 547 l 563 481 q 521 421 557 421 l 281 421 l 253 154 l 522 154 q 547 140 540 154 q 551 94 554 126 l 547 60 q 534 14 544 28 q 506 0 524 0 l 99 0 m 315 1064 q 263 1074 278 1064 q 250 1103 247 1083 l 257 1182 q 331 1221 261 1221 q 397 1182 401 1221 l 390 1103 q 315 1064 383 1064 m 522 1064 q 469 1074 485 1064 q 457 1103 454 1083 l 464 1182 q 538 1221 468 1221 q 604 1182 608 1221 l 597 1103 q 522 1064 590 1064 z "},"Ė":{"ha":635,"x_min":57,"x_max":639,"o":"m 99 0 q 65 12 75 0 q 58 50 56 24 l 150 922 q 165 960 153 949 q 201 972 178 972 l 608 972 q 639 929 639 972 l 638 913 l 633 878 q 592 818 629 818 l 322 818 l 297 575 l 538 575 q 563 561 556 575 q 567 515 569 547 l 563 481 q 521 421 557 421 l 281 421 l 253 154 l 522 154 q 547 140 540 154 q 551 94 554 126 l 547 60 q 534 14 544 28 q 506 0 524 0 l 99 0 m 418 1064 q 356 1074 375 1064 q 339 1103 336 1083 l 347 1182 q 433 1221 351 1221 q 514 1182 518 1221 l 506 1103 q 418 1064 501 1064 z "},"Ẹ":{"ha":635,"x_min":57,"x_max":639,"o":"m 99 0 q 65 12 75 0 q 58 50 56 24 l 150 922 q 165 960 153 949 q 201 972 178 972 l 608 972 q 639 929 639 972 l 638 913 l 633 878 q 592 818 629 818 l 322 818 l 297 575 l 538 575 q 563 561 556 575 q 567 515 569 547 l 563 481 q 521 421 557 421 l 281 421 l 253 154 l 522 154 q 547 140 540 154 q 551 94 554 126 l 547 60 q 534 14 544 28 q 506 0 524 0 l 99 0 m 269 -268 q 207 -258 226 -268 q 190 -229 188 -249 l 199 -150 q 285 -111 203 -111 q 365 -150 369 -111 l 357 -229 q 269 -268 353 -268 z "},"È":{"ha":635,"x_min":57,"x_max":639,"o":"m 99 0 q 65 12 75 0 q 58 50 56 24 l 150 922 q 165 960 153 949 q 201 972 178 972 l 608 972 q 639 929 639 972 l 638 913 l 633 878 q 592 818 629 818 l 322 818 l 297 575 l 538 575 q 563 561 556 575 q 567 515 569 547 l 563 481 q 521 421 557 421 l 281 421 l 253 154 l 522 154 q 547 140 540 154 q 551 94 554 126 l 547 60 q 534 14 544 28 q 506 0 524 0 l 99 0 m 444 1050 q 387 1058 406 1050 q 358 1081 368 1067 l 308 1144 q 249 1222 258 1207 q 239 1246 239 1236 q 256 1260 239 1256 q 308 1264 272 1264 q 408 1228 388 1264 q 462 1117 443 1157 q 481 1068 481 1078 q 474 1053 481 1057 q 444 1050 467 1050 z "},"Ẻ":{"ha":635,"x_min":57,"x_max":639,"o":"m 99 0 q 65 12 75 0 q 58 50 56 24 l 150 922 q 165 960 153 949 q 201 972 178 972 l 608 972 q 639 929 639 972 l 638 913 l 633 878 q 592 818 629 818 l 322 818 l 297 575 l 538 575 q 563 561 556 575 q 567 515 569 547 l 563 481 q 521 421 557 421 l 281 421 l 253 154 l 522 154 q 547 140 540 154 q 551 94 554 126 l 547 60 q 534 14 544 28 q 506 0 524 0 l 99 0 m 433 1033 q 391 1044 414 1033 q 368 1063 368 1054 q 380 1083 368 1072 q 406 1104 392 1093 q 446 1140 432 1125 q 460 1175 460 1156 q 446 1199 460 1190 q 413 1208 432 1208 q 373 1200 390 1208 q 351 1192 356 1192 q 328 1212 343 1192 q 314 1246 314 1232 q 351 1274 314 1260 q 424 1289 388 1289 q 528 1262 488 1289 q 568 1183 568 1235 q 541 1113 568 1147 q 481 1056 514 1078 q 433 1033 447 1033 z "},"Ē":{"ha":635,"x_min":57,"x_max":639,"o":"m 99 0 q 65 12 75 0 q 58 50 56 24 l 150 922 q 165 960 153 949 q 201 972 178 972 l 608 972 q 639 929 639 972 l 638 913 l 633 878 q 592 818 629 818 l 322 818 l 297 575 l 538 575 q 563 561 556 575 q 567 515 569 547 l 563 481 q 521 421 557 421 l 281 421 l 253 154 l 522 154 q 547 140 540 154 q 551 94 554 126 l 547 60 q 534 14 544 28 q 506 0 524 0 l 99 0 m 285 1082 q 260 1094 267 1082 q 256 1133 253 1106 l 257 1151 q 297 1201 263 1201 l 567 1201 q 593 1190 586 1201 q 597 1151 600 1178 l 594 1133 q 583 1094 592 1106 q 554 1082 574 1082 l 285 1082 z "},"Ę":{"ha":635,"x_min":56,"x_max":651,"o":"m 615 -146 q 642 -155 633 -146 q 651 -185 651 -164 q 631 -225 651 -214 q 547 -246 593 -246 q 442 -205 469 -246 q 415 -118 415 -164 q 446 0 415 -60 l 99 0 q 65 12 75 0 q 58 50 56 24 l 150 922 q 165 960 153 949 q 201 972 178 972 l 608 972 q 639 929 639 972 l 638 913 l 633 878 q 592 818 629 818 l 322 818 l 297 575 l 538 575 q 563 561 556 575 q 567 515 569 547 l 563 481 q 521 421 557 421 l 281 421 l 253 154 l 522 154 q 547 140 540 154 q 551 94 554 126 l 547 60 q 532 11 543 24 q 506 -93 506 -42 q 525 -140 506 -128 q 574 -153 544 -153 q 597 -149 585 -153 q 615 -146 608 -146 z "},"Ẽ":{"ha":635,"x_min":57,"x_max":639,"o":"m 99 0 q 65 12 75 0 q 58 50 56 24 l 150 922 q 165 960 153 949 q 201 972 178 972 l 608 972 q 639 929 639 972 l 638 913 l 633 878 q 592 818 629 818 l 322 818 l 297 575 l 538 575 q 563 561 556 575 q 567 515 569 547 l 563 481 q 521 421 557 421 l 281 421 l 253 154 l 522 154 q 547 140 540 154 q 551 94 554 126 l 547 60 q 534 14 544 28 q 506 0 524 0 l 99 0 m 219 1063 q 194 1092 194 1069 q 199 1113 194 1099 q 247 1183 215 1157 q 321 1208 278 1208 q 413 1183 349 1208 q 488 1163 465 1163 q 508 1167 499 1163 q 529 1189 518 1172 q 563 1211 543 1211 q 581 1208 567 1211 l 593 1204 q 619 1175 619 1194 q 617 1164 619 1169 q 615 1156 615 1158 q 566 1084 597 1110 q 493 1058 535 1058 q 400 1083 464 1058 q 325 1104 346 1104 q 285 1076 303 1104 q 268 1060 275 1065 q 251 1054 261 1054 q 233 1057 244 1054 l 219 1063 z "},"F":{"ha":588,"x_min":53,"x_max":607,"o":"m 124 -3 q 57 36 53 -3 l 150 922 q 165 960 153 949 q 201 972 178 972 l 576 972 q 607 929 607 972 l 606 913 l 601 878 q 588 832 599 846 q 560 818 578 818 l 322 818 l 297 574 l 518 574 q 549 531 549 574 l 547 514 l 543 479 q 530 433 540 447 q 501 419 519 419 l 281 419 l 240 36 q 165 -3 236 -3 l 124 -3 z "},"G":{"ha":767,"x_min":65,"x_max":731,"o":"m 492 824 q 333 741 389 824 q 261 489 278 658 q 254 381 254 424 q 292 206 254 264 q 408 149 331 149 q 490 158 453 149 l 514 400 l 426 400 q 397 438 397 400 q 399 460 397 451 l 401 496 q 415 542 404 528 q 443 556 425 556 l 664 556 q 704 504 710 556 l 663 97 q 570 19 657 47 q 389 -10 483 -10 q 148 85 231 -10 q 65 372 65 179 q 72 485 65 418 q 200 861 99 740 q 500 982 301 982 q 610 969 557 982 q 697 934 664 956 q 731 892 731 913 q 715 849 731 876 q 680 801 700 822 q 646 779 660 779 q 617 792 640 779 q 565 814 594 804 q 492 824 535 824 z "},"Ğ":{"ha":767,"x_min":65,"x_max":731,"o":"m 492 824 q 333 741 389 824 q 261 489 278 658 q 254 381 254 424 q 292 206 254 264 q 408 149 331 149 q 490 158 453 149 l 514 400 l 426 400 q 397 438 397 400 q 399 460 397 451 l 401 496 q 415 542 404 528 q 443 556 425 556 l 664 556 q 704 504 710 556 l 663 97 q 570 19 657 47 q 389 -10 483 -10 q 148 85 231 -10 q 65 372 65 179 q 72 485 65 418 q 200 861 99 740 q 500 982 301 982 q 610 969 557 982 q 697 934 664 956 q 731 892 731 913 q 715 849 731 876 q 680 801 700 822 q 646 779 660 779 q 617 792 640 779 q 565 814 594 804 q 492 824 535 824 m 485 1050 q 362 1094 404 1050 q 326 1201 319 1138 q 375 1239 331 1239 q 397 1232 390 1239 q 408 1210 404 1225 q 435 1176 417 1188 q 497 1164 454 1164 q 563 1177 543 1164 q 596 1213 583 1190 q 613 1233 604 1226 q 635 1239 621 1239 q 675 1201 679 1239 q 617 1094 668 1138 q 485 1050 567 1050 z "},"Ĝ":{"ha":767,"x_min":65,"x_max":731,"o":"m 492 824 q 333 741 389 824 q 261 489 278 658 q 254 381 254 424 q 292 206 254 264 q 408 149 331 149 q 490 158 453 149 l 514 400 l 426 400 q 397 438 397 400 q 399 460 397 451 l 401 496 q 415 542 404 528 q 443 556 425 556 l 664 556 q 704 504 710 556 l 663 97 q 570 19 657 47 q 389 -10 483 -10 q 148 85 231 -10 q 65 372 65 179 q 72 485 65 418 q 200 861 99 740 q 500 982 301 982 q 610 969 557 982 q 697 934 664 956 q 731 892 731 913 q 715 849 731 876 q 680 801 700 822 q 646 779 660 779 q 617 792 640 779 q 565 814 594 804 q 492 824 535 824 m 346 1042 q 325 1047 332 1042 q 319 1058 318 1051 q 324 1069 319 1061 q 331 1082 329 1078 l 424 1215 q 453 1237 436 1231 q 499 1243 471 1243 l 508 1243 q 551 1237 535 1243 q 576 1215 568 1231 l 642 1082 q 650 1058 650 1069 q 641 1047 649 1051 q 621 1042 633 1042 l 585 1042 q 531 1065 540 1042 l 492 1143 l 439 1067 q 379 1042 422 1042 l 346 1042 z "},"Ģ":{"ha":767,"x_min":65,"x_max":731,"o":"m 492 824 q 333 741 389 824 q 261 489 278 658 q 254 381 254 424 q 292 206 254 264 q 408 149 331 149 q 490 158 453 149 l 514 400 l 426 400 q 397 438 397 400 q 399 460 397 451 l 401 496 q 415 542 404 528 q 443 556 425 556 l 664 556 q 704 504 710 556 l 663 97 q 570 19 657 47 q 389 -10 483 -10 q 148 85 231 -10 q 65 372 65 179 q 72 485 65 418 q 200 861 99 740 q 500 982 301 982 q 610 969 557 982 q 697 934 664 956 q 731 892 731 913 q 715 849 731 876 q 680 801 700 822 q 646 779 660 779 q 617 792 640 779 q 565 814 594 804 q 492 824 535 824 m 342 -331 q 306 -324 322 -331 q 289 -304 289 -317 q 294 -269 289 -297 q 313 -126 313 -207 q 383 -71 313 -71 l 406 -71 q 449 -85 435 -71 q 463 -124 463 -100 q 442 -223 463 -175 q 392 -301 421 -271 q 342 -331 363 -331 z "},"Ġ":{"ha":767,"x_min":65,"x_max":731,"o":"m 492 824 q 333 741 389 824 q 261 489 278 658 q 254 381 254 424 q 292 206 254 264 q 408 149 331 149 q 490 158 453 149 l 514 400 l 426 400 q 397 438 397 400 q 399 460 397 451 l 401 496 q 415 542 404 528 q 443 556 425 556 l 664 556 q 704 504 710 556 l 663 97 q 570 19 657 47 q 389 -10 483 -10 q 148 85 231 -10 q 65 372 65 179 q 72 485 65 418 q 200 861 99 740 q 500 982 301 982 q 610 969 557 982 q 697 934 664 956 q 731 892 731 913 q 715 849 731 876 q 680 801 700 822 q 646 779 660 779 q 617 792 640 779 q 565 814 594 804 q 492 824 535 824 m 486 1064 q 424 1074 443 1064 q 407 1103 404 1083 l 415 1182 q 501 1221 419 1221 q 582 1182 586 1221 l 574 1103 q 486 1064 569 1064 z "},"H":{"ha":835,"x_min":53,"x_max":808,"o":"m 124 -3 q 57 36 53 -3 l 151 936 q 226 975 156 975 l 271 975 q 336 936 340 975 l 299 575 l 582 575 l 619 936 q 694 975 624 975 l 738 975 q 804 936 808 975 l 708 36 q 635 -3 706 -3 l 592 -3 q 525 36 521 -3 l 565 419 l 282 419 l 240 36 q 168 -3 238 -3 l 124 -3 z "},"Ħ":{"ha":835,"x_min":-10,"x_max":913,"o":"m 881 789 q 913 749 913 789 q 903 694 913 719 q 868 668 894 668 l 775 668 l 708 36 q 635 -3 706 -3 l 592 -3 q 525 36 521 -3 l 565 419 l 282 419 l 240 36 q 168 -3 238 -3 l 124 -3 q 57 36 53 -3 l 124 668 l 22 668 q -2 678 6 668 q -10 708 -10 688 q 36 789 -10 789 l 136 789 l 151 936 q 226 975 156 975 l 271 975 q 336 936 340 975 l 321 789 l 604 789 l 619 936 q 694 975 624 975 l 738 975 q 804 936 808 975 l 789 789 l 881 789 m 582 575 l 592 668 l 308 668 l 299 575 l 582 575 z "},"Ĥ":{"ha":835,"x_min":57,"x_max":804,"o":"m 124 -3 q 57 36 53 -3 l 151 936 q 226 975 156 975 l 271 975 q 336 936 340 975 l 299 575 l 582 575 l 619 936 q 694 975 624 975 l 738 975 q 804 936 808 975 l 708 36 q 635 -3 706 -3 l 592 -3 q 525 36 521 -3 l 565 419 l 282 419 l 240 36 q 168 -3 238 -3 l 124 -3 m 351 1042 q 331 1047 338 1042 q 325 1058 324 1051 q 330 1069 325 1061 q 336 1082 335 1078 l 429 1215 q 459 1237 442 1231 q 504 1243 476 1243 l 514 1243 q 557 1237 540 1243 q 582 1215 574 1231 l 647 1082 q 656 1058 656 1069 q 647 1047 654 1051 q 626 1042 639 1042 l 590 1042 q 536 1065 546 1042 l 497 1143 l 444 1067 q 385 1042 428 1042 l 351 1042 z "},"Ḥ":{"ha":835,"x_min":57,"x_max":804,"o":"m 124 -3 q 57 36 53 -3 l 151 936 q 226 975 156 975 l 271 975 q 336 936 340 975 l 299 575 l 582 575 l 619 936 q 694 975 624 975 l 738 975 q 804 936 808 975 l 708 36 q 635 -3 706 -3 l 592 -3 q 525 36 521 -3 l 565 419 l 282 419 l 240 36 q 168 -3 238 -3 l 124 -3 m 351 -268 q 289 -258 308 -268 q 272 -229 269 -249 l 281 -150 q 367 -111 285 -111 q 447 -150 451 -111 l 439 -229 q 351 -268 435 -268 z "},"I":{"ha":364,"x_min":51,"x_max":339,"o":"m 122 -4 q 56 36 51 -4 l 150 936 q 225 976 154 976 l 269 976 q 335 936 339 976 l 239 36 q 167 -4 236 -4 l 122 -4 z "},"Ĳ":{"ha":857,"x_min":56,"x_max":818,"o":"m 122 -4 q 56 36 51 -4 l 150 936 q 225 976 154 976 l 269 976 q 335 936 339 976 l 239 36 q 167 -4 236 -4 l 122 -4 m 471 -10 q 372 6 417 -10 q 329 47 328 22 q 352 117 333 79 q 390 157 371 156 q 417 152 396 157 q 460 147 438 147 q 534 183 510 147 q 567 299 558 218 l 633 936 q 707 976 638 976 l 751 976 q 818 936 822 976 l 750 282 q 471 -10 719 -10 z "},"Í":{"ha":364,"x_min":56,"x_max":419,"o":"m 122 -4 q 56 36 51 -4 l 150 936 q 225 976 154 976 l 269 976 q 335 936 339 976 l 239 36 q 167 -4 236 -4 l 122 -4 m 214 1050 q 185 1054 193 1050 q 178 1068 178 1058 q 187 1095 178 1075 q 206 1136 196 1115 q 222 1167 217 1157 l 253 1228 q 350 1264 269 1264 q 403 1260 386 1264 q 419 1246 419 1256 q 413 1226 419 1238 q 375 1176 406 1214 l 303 1081 q 272 1058 292 1065 q 214 1050 253 1050 z "},"Ĭ":{"ha":364,"x_min":56,"x_max":446,"o":"m 122 -4 q 56 36 51 -4 l 150 936 q 225 976 154 976 l 269 976 q 335 936 339 976 l 239 36 q 167 -4 236 -4 l 122 -4 m 256 1050 q 133 1094 175 1050 q 97 1201 90 1138 q 146 1239 101 1239 q 168 1232 161 1239 q 179 1210 175 1225 q 206 1176 188 1188 q 268 1164 225 1164 q 334 1177 314 1164 q 367 1213 354 1190 q 383 1233 375 1226 q 406 1239 392 1239 q 446 1201 450 1239 q 388 1094 439 1138 q 256 1050 338 1050 z "},"Î":{"ha":364,"x_min":56,"x_max":421,"o":"m 122 -4 q 56 36 51 -4 l 150 936 q 225 976 154 976 l 269 976 q 335 936 339 976 l 239 36 q 167 -4 236 -4 l 122 -4 m 117 1042 q 96 1047 103 1042 q 90 1058 89 1051 q 95 1069 90 1061 q 101 1082 100 1078 l 194 1215 q 224 1237 207 1231 q 269 1243 242 1243 l 279 1243 q 322 1237 306 1243 q 347 1215 339 1231 l 413 1082 q 421 1058 421 1069 q 412 1047 419 1051 q 392 1042 404 1042 l 356 1042 q 301 1065 311 1042 l 263 1143 l 210 1067 q 150 1042 193 1042 l 117 1042 z "},"Ï":{"ha":364,"x_min":56,"x_max":443,"o":"m 122 -4 q 56 36 51 -4 l 150 936 q 225 976 154 976 l 269 976 q 335 936 339 976 l 239 36 q 167 -4 236 -4 l 122 -4 m 154 1064 q 101 1074 117 1064 q 89 1103 86 1083 l 96 1182 q 169 1221 100 1221 q 236 1182 240 1221 l 229 1103 q 154 1064 222 1064 m 361 1064 q 308 1074 324 1064 q 296 1103 293 1083 l 303 1182 q 376 1221 307 1221 q 443 1182 447 1221 l 436 1103 q 361 1064 429 1064 z "},"İ":{"ha":364,"x_min":56,"x_max":353,"o":"m 122 -4 q 56 36 51 -4 l 150 936 q 225 976 154 976 l 269 976 q 335 936 339 976 l 239 36 q 167 -4 236 -4 l 122 -4 m 257 1064 q 194 1074 214 1064 q 178 1103 175 1083 l 186 1182 q 272 1221 190 1221 q 353 1182 357 1221 l 344 1103 q 257 1064 340 1064 z "},"Ị":{"ha":364,"x_min":36,"x_max":335,"o":"m 122 -4 q 56 36 51 -4 l 150 936 q 225 976 154 976 l 269 976 q 335 936 339 976 l 239 36 q 167 -4 236 -4 l 122 -4 m 115 -268 q 53 -258 72 -268 q 36 -229 33 -249 l 44 -150 q 131 -111 49 -111 q 211 -150 215 -111 l 203 -229 q 115 -268 199 -268 z "},"Ì":{"ha":364,"x_min":56,"x_max":335,"o":"m 122 -4 q 56 36 51 -4 l 150 936 q 225 976 154 976 l 269 976 q 335 936 339 976 l 239 36 q 167 -4 236 -4 l 122 -4 m 283 1050 q 226 1058 244 1050 q 197 1081 207 1067 l 147 1144 q 88 1222 97 1207 q 78 1246 78 1236 q 94 1260 78 1256 q 147 1264 111 1264 q 247 1228 226 1264 q 301 1117 282 1157 q 319 1068 319 1078 q 313 1053 319 1057 q 283 1050 306 1050 z "},"Ỉ":{"ha":364,"x_min":56,"x_max":407,"o":"m 122 -4 q 56 36 51 -4 l 150 936 q 225 976 154 976 l 269 976 q 335 936 339 976 l 239 36 q 167 -4 236 -4 l 122 -4 m 272 1033 q 230 1044 253 1033 q 207 1063 207 1054 q 219 1083 207 1072 q 244 1104 231 1093 q 285 1140 271 1125 q 299 1175 299 1156 q 285 1199 299 1190 q 251 1208 271 1208 q 212 1200 229 1208 q 190 1192 194 1192 q 167 1212 182 1192 q 153 1246 153 1232 q 190 1274 153 1260 q 263 1289 226 1289 q 367 1262 326 1289 q 407 1183 407 1235 q 380 1113 407 1147 q 319 1056 353 1078 q 272 1033 286 1033 z "},"Ī":{"ha":364,"x_min":56,"x_max":436,"o":"m 122 -4 q 56 36 51 -4 l 150 936 q 225 976 154 976 l 269 976 q 335 936 339 976 l 239 36 q 167 -4 236 -4 l 122 -4 m 124 1082 q 99 1094 106 1082 q 94 1133 92 1106 l 96 1151 q 136 1201 101 1201 l 406 1201 q 432 1190 425 1201 q 436 1151 439 1178 l 433 1133 q 422 1094 431 1106 q 393 1082 413 1082 l 124 1082 z "},"Į":{"ha":364,"x_min":51,"x_max":351,"o":"m 315 -140 q 342 -149 333 -140 q 351 -179 351 -158 q 331 -219 351 -208 q 247 -240 293 -240 q 142 -199 169 -240 q 115 -112 115 -158 q 140 -4 115 -58 l 122 -4 q 56 36 51 -4 l 150 936 q 225 976 154 976 l 269 976 q 335 936 339 976 l 239 36 q 232 17 239 26 q 206 -87 206 -37 q 225 -135 206 -122 q 274 -147 244 -147 q 297 -144 285 -147 q 315 -140 308 -140 z "},"Ĩ":{"ha":364,"x_min":51,"x_max":438,"o":"m 78 1063 q 56 1092 56 1069 q 58 1113 56 1093 q 103 1183 75 1158 q 169 1208 131 1208 q 251 1183 196 1208 q 319 1163 301 1163 q 338 1167 329 1163 q 357 1189 346 1172 q 386 1211 369 1211 q 403 1208 389 1211 l 414 1204 q 438 1175 438 1194 q 435 1164 438 1169 q 433 1156 433 1158 q 389 1084 417 1110 q 324 1058 361 1058 q 239 1083 297 1058 q 172 1104 192 1104 q 136 1076 153 1104 q 122 1059 128 1064 q 107 1054 115 1054 q 90 1057 99 1054 l 78 1063 m 122 -4 q 56 36 51 -4 l 150 936 q 225 976 154 976 l 269 976 q 335 936 339 976 l 239 36 q 167 -4 236 -4 l 122 -4 z "},"J":{"ha":493,"x_min":-36,"x_max":458,"o":"m 107 -10 q 8 6 53 -10 q -35 47 -36 22 q -12 117 -31 79 q 26 157 7 156 q 53 152 32 157 q 96 147 74 147 q 170 183 146 147 q 203 299 194 218 l 269 936 q 343 976 274 976 l 388 976 q 454 936 458 976 l 386 282 q 107 -10 356 -10 z "},"Ĵ":{"ha":493,"x_min":-35,"x_max":538,"o":"m 107 -10 q 8 6 53 -10 q -35 47 -36 22 q -12 117 -31 79 q 26 157 7 156 q 53 152 32 157 q 96 147 74 147 q 170 183 146 147 q 203 299 194 218 l 269 936 q 343 976 274 976 l 388 976 q 454 936 458 976 l 386 282 q 107 -10 356 -10 m 233 1042 q 213 1047 219 1042 q 207 1058 206 1051 q 212 1069 207 1061 q 218 1082 217 1078 l 311 1215 q 341 1237 324 1231 q 386 1243 358 1243 l 396 1243 q 439 1237 422 1243 q 464 1215 456 1231 l 529 1082 q 538 1058 538 1069 q 528 1047 536 1051 q 508 1042 521 1042 l 472 1042 q 418 1065 428 1042 l 379 1143 l 326 1067 q 267 1042 310 1042 l 233 1042 z "},"K":{"ha":708,"x_min":53,"x_max":751,"o":"m 124 -3 q 57 36 53 -3 l 151 936 q 226 975 156 975 l 268 975 q 336 936 340 975 l 289 525 l 297 525 l 558 951 q 583 970 567 965 q 629 975 600 975 l 686 975 q 735 969 719 975 q 750 956 751 964 q 738 926 750 946 l 453 490 l 663 44 q 668 18 668 32 q 600 -3 667 -3 l 543 -3 q 497 2 514 -3 q 474 21 479 7 l 289 463 l 282 463 l 240 36 q 165 -3 238 -3 l 124 -3 z "},"Ķ":{"ha":708,"x_min":57,"x_max":750,"o":"m 124 -3 q 57 36 53 -3 l 151 936 q 226 975 156 975 l 268 975 q 336 936 340 975 l 289 525 l 297 525 l 558 951 q 583 970 567 965 q 629 975 600 975 l 686 975 q 735 969 719 975 q 750 956 751 964 q 738 926 750 946 l 453 490 l 663 44 q 668 18 668 32 q 600 -3 667 -3 l 543 -3 q 497 2 514 -3 q 474 21 479 7 l 289 463 l 282 463 l 240 36 q 165 -3 238 -3 l 124 -3 m 279 -331 q 243 -324 260 -331 q 226 -304 226 -317 q 232 -269 226 -297 q 250 -126 250 -207 q 321 -71 250 -71 l 343 -71 q 386 -85 372 -71 q 400 -124 400 -100 q 379 -223 400 -175 q 329 -301 358 -271 q 279 -331 300 -331 z "},"L":{"ha":567,"x_min":56,"x_max":521,"o":"m 99 0 q 65 12 75 0 q 58 50 56 24 l 151 936 q 226 975 156 975 l 268 975 q 335 936 339 975 l 253 154 l 489 154 q 513 144 506 154 q 521 113 521 135 l 519 94 l 515 60 q 502 14 513 28 q 472 0 492 0 l 99 0 z "},"Ǉ":{"ha":997,"x_min":57,"x_max":947,"o":"m 263 975 q 332 936 332 975 l 250 154 l 490 154 q 521 108 521 154 q 511 28 521 57 q 475 0 501 0 l 103 0 q 67 10 76 0 q 57 43 57 19 l 150 936 q 228 975 154 975 l 263 975 m 878 975 q 947 936 947 975 l 851 51 q 758 -165 838 -87 q 531 -242 679 -242 q 440 -230 478 -242 q 401 -187 401 -218 q 426 -71 401 -71 q 453 -77 432 -71 q 515 -83 474 -83 q 627 -47 590 -83 q 672 71 664 -11 l 765 936 q 843 975 769 975 l 878 975 z "},"Ĺ":{"ha":567,"x_min":57,"x_max":521,"o":"m 99 0 q 65 12 75 0 q 58 50 56 24 l 151 936 q 226 975 156 975 l 268 975 q 335 936 339 975 l 253 154 l 489 154 q 513 144 506 154 q 521 113 521 135 l 519 94 l 515 60 q 502 14 513 28 q 472 0 492 0 l 99 0 m 217 1051 q 188 1056 196 1051 q 181 1069 181 1060 q 190 1097 181 1076 q 209 1138 199 1117 q 225 1168 219 1158 l 256 1229 q 353 1265 272 1265 q 406 1261 389 1265 q 422 1247 422 1257 q 415 1227 422 1239 q 378 1178 408 1215 l 306 1082 q 275 1059 294 1067 q 217 1051 256 1051 z "},"Ľ":{"ha":567,"x_min":57,"x_max":574,"o":"m 99 0 q 65 12 75 0 q 58 50 56 24 l 151 936 q 226 975 156 975 l 268 975 q 335 936 339 975 l 253 154 l 489 154 q 513 144 506 154 q 521 113 521 135 l 519 94 l 515 60 q 502 14 513 28 q 472 0 492 0 l 99 0 m 468 717 q 430 724 447 717 q 413 744 413 731 q 418 822 413 769 q 424 917 424 881 q 442 958 424 943 q 496 972 460 972 l 518 972 q 560 958 546 972 q 574 919 574 943 q 556 824 574 871 q 512 748 538 778 q 468 717 486 718 z "},"Ļ":{"ha":567,"x_min":57,"x_max":521,"o":"m 99 0 q 65 12 75 0 q 58 50 56 24 l 151 936 q 226 975 156 975 l 268 975 q 335 936 339 975 l 253 154 l 489 154 q 513 144 506 154 q 521 113 521 135 l 519 94 l 515 60 q 502 14 513 28 q 472 0 492 0 l 99 0 m 225 -331 q 189 -324 206 -331 q 172 -304 172 -317 q 178 -269 172 -297 q 196 -126 196 -207 q 267 -71 196 -71 l 289 -71 q 332 -85 318 -71 q 346 -124 346 -100 q 325 -223 346 -175 q 275 -301 304 -271 q 225 -331 246 -331 z "},"Ŀ":{"ha":567,"x_min":57,"x_max":526,"o":"m 99 0 q 65 12 75 0 q 58 50 56 24 l 151 936 q 226 975 156 975 l 268 975 q 335 936 339 975 l 253 154 l 489 154 q 513 144 506 154 q 521 113 521 135 l 519 94 l 515 60 q 502 14 513 28 q 472 0 492 0 l 99 0 m 432 411 q 376 431 397 411 q 356 488 356 451 q 383 560 356 533 q 450 588 411 588 q 506 568 485 588 q 526 513 526 549 l 525 499 q 496 435 522 458 q 432 411 469 411 z "},"ǈ":{"ha":913,"x_min":57,"x_max":878,"o":"m 99 0 q 65 12 75 0 q 58 50 56 24 l 151 936 q 226 975 156 975 l 268 975 q 335 936 339 975 l 253 154 l 489 154 q 513 144 506 154 q 521 113 521 135 l 519 94 l 515 60 q 502 14 513 28 q 472 0 492 0 l 99 0 m 581 -294 q 494 -283 525 -294 q 464 -240 464 -271 q 478 -184 464 -219 q 511 -149 493 -149 q 529 -151 517 -149 q 556 -154 542 -154 q 588 -137 576 -154 q 603 -82 599 -121 l 683 690 q 763 729 690 729 l 789 729 q 857 690 864 729 l 776 -85 q 710 -243 765 -192 q 581 -294 654 -294 m 782 818 q 719 828 739 818 q 703 857 700 838 l 711 936 q 797 975 715 975 q 878 936 882 975 l 869 857 q 782 818 865 818 z "},"Ł":{"ha":567,"x_min":54,"x_max":519,"o":"m 488 154 q 512 144 504 154 q 519 113 519 135 l 518 94 l 514 60 q 501 14 511 28 q 471 0 490 0 l 97 0 q 64 12 74 0 q 57 50 54 24 l 150 936 q 225 975 154 975 l 267 975 q 333 936 338 975 l 251 154 l 488 154 z "},"M":{"ha":957,"x_min":46,"x_max":936,"o":"m 458 318 q 431 324 440 318 q 414 346 421 331 l 314 583 l 297 632 l 289 660 l 283 658 l 285 624 q 282 574 285 607 l 226 36 q 206 7 224 17 q 150 -3 188 -3 l 114 -3 q 61 7 76 -3 q 49 36 46 17 l 143 936 q 163 965 146 956 q 217 975 179 975 l 256 975 q 300 967 283 975 q 324 942 317 960 l 476 575 q 494 508 488 549 q 525 575 507 547 l 753 942 q 783 967 765 960 q 829 975 800 975 l 867 975 q 920 965 904 975 q 935 936 936 956 l 840 36 q 819 7 838 17 q 764 -3 801 -3 l 728 -3 q 676 7 692 -3 q 663 36 660 17 l 719 574 q 736 658 722 604 l 731 660 q 689 583 708 614 l 539 346 q 519 324 531 331 q 490 318 508 318 l 458 318 z "},"N":{"ha":819,"x_min":44,"x_max":800,"o":"m 114 -3 q 49 36 44 -3 l 143 936 q 217 975 147 975 l 253 975 q 291 968 276 975 q 314 940 306 961 l 533 413 q 567 311 549 376 l 572 314 q 569 371 569 353 q 572 418 569 388 l 629 936 q 703 975 632 975 l 731 975 q 797 936 800 975 l 703 36 q 628 -3 696 -3 l 601 -3 q 562 4 576 -3 q 539 29 547 11 l 308 578 q 291 628 299 600 q 281 665 283 656 l 274 663 q 276 604 276 624 q 275 568 276 581 l 217 36 q 142 -3 214 -3 l 114 -3 z "},"Ǌ":{"ha":1313,"x_min":49,"x_max":1274,"o":"m 114 -3 q 49 36 44 -3 l 143 936 q 217 975 147 975 l 253 975 q 291 968 276 975 q 314 940 306 961 l 533 413 q 567 311 549 376 l 572 314 q 569 371 569 353 q 572 418 569 388 l 629 936 q 703 975 632 975 l 731 975 q 797 936 800 975 l 703 36 q 628 -3 696 -3 l 601 -3 q 562 4 576 -3 q 539 29 547 11 l 308 578 q 291 628 299 600 q 281 665 283 656 l 274 663 q 276 604 276 624 q 275 568 276 581 l 217 36 q 142 -3 214 -3 l 114 -3 m 926 -10 q 828 6 872 -10 q 785 47 783 22 q 808 117 789 79 q 846 157 826 156 q 872 152 851 157 q 915 147 893 147 q 990 183 965 147 q 1022 299 1014 218 l 1089 936 q 1163 976 1093 976 l 1207 976 q 1274 936 1278 976 l 1206 282 q 926 -10 1175 -10 z "},"Ń":{"ha":819,"x_min":49,"x_max":797,"o":"m 114 -3 q 49 36 44 -3 l 143 936 q 217 975 147 975 l 253 975 q 291 968 276 975 q 314 940 306 961 l 533 413 q 567 311 549 376 l 572 314 q 569 371 569 353 q 572 418 569 388 l 629 936 q 703 975 632 975 l 731 975 q 797 936 800 975 l 703 36 q 628 -3 696 -3 l 601 -3 q 562 4 576 -3 q 539 29 547 11 l 308 578 q 291 628 299 600 q 281 665 283 656 l 274 663 q 276 604 276 624 q 275 568 276 581 l 217 36 q 142 -3 214 -3 l 114 -3 m 440 1050 q 412 1054 419 1050 q 404 1068 404 1058 q 413 1095 404 1075 q 433 1136 422 1115 q 449 1167 443 1157 l 479 1228 q 576 1264 496 1264 q 629 1260 613 1264 q 646 1246 646 1256 q 639 1226 646 1238 q 601 1176 632 1214 l 529 1081 q 499 1058 518 1065 q 440 1050 479 1050 z "},"Ň":{"ha":819,"x_min":49,"x_max":797,"o":"m 114 -3 q 49 36 44 -3 l 143 936 q 217 975 147 975 l 253 975 q 291 968 276 975 q 314 940 306 961 l 533 413 q 567 311 549 376 l 572 314 q 569 371 569 353 q 572 418 569 388 l 629 936 q 703 975 632 975 l 731 975 q 797 936 800 975 l 703 36 q 628 -3 696 -3 l 601 -3 q 562 4 576 -3 q 539 29 547 11 l 308 578 q 291 628 299 600 q 281 665 283 656 l 274 663 q 276 604 276 624 q 275 568 276 581 l 217 36 q 142 -3 214 -3 l 114 -3 m 475 1046 q 433 1052 449 1046 q 408 1074 417 1058 l 343 1207 q 336 1231 336 1221 q 365 1247 339 1247 l 400 1247 q 454 1222 440 1247 l 492 1146 l 544 1224 q 606 1247 560 1247 l 640 1247 q 660 1242 653 1247 q 665 1231 667 1238 q 654 1207 665 1224 l 560 1074 q 531 1052 547 1058 q 488 1046 514 1046 l 475 1046 z "},"Ņ":{"ha":819,"x_min":49,"x_max":797,"o":"m 114 -3 q 49 36 44 -3 l 143 936 q 217 975 147 975 l 253 975 q 291 968 276 975 q 314 940 306 961 l 533 413 q 567 311 549 376 l 572 314 q 569 371 569 353 q 572 418 569 388 l 629 936 q 703 975 632 975 l 731 975 q 797 936 800 975 l 703 36 q 628 -3 696 -3 l 601 -3 q 562 4 576 -3 q 539 29 547 11 l 308 578 q 291 628 299 600 q 281 665 283 656 l 274 663 q 276 604 276 624 q 275 568 276 581 l 217 36 q 142 -3 214 -3 l 114 -3 m 331 -331 q 294 -324 311 -331 q 278 -304 278 -317 q 283 -269 278 -297 q 301 -126 301 -207 q 372 -71 301 -71 l 394 -71 q 438 -85 424 -71 q 451 -124 451 -100 q 431 -223 451 -175 q 381 -301 410 -271 q 331 -331 351 -331 z "},"Ṅ":{"ha":819,"x_min":49,"x_max":797,"o":"m 114 -3 q 49 36 44 -3 l 143 936 q 217 975 147 975 l 253 975 q 291 968 276 975 q 314 940 306 961 l 533 413 q 567 311 549 376 l 572 314 q 569 371 569 353 q 572 418 569 388 l 629 936 q 703 975 632 975 l 731 975 q 797 936 800 975 l 703 36 q 628 -3 696 -3 l 601 -3 q 562 4 576 -3 q 539 29 547 11 l 308 578 q 291 628 299 600 q 281 665 283 656 l 274 663 q 276 604 276 624 q 275 568 276 581 l 217 36 q 142 -3 214 -3 l 114 -3 m 483 1064 q 421 1074 440 1064 q 404 1103 401 1083 l 413 1182 q 499 1221 417 1221 q 579 1182 583 1221 l 571 1103 q 483 1064 567 1064 z "},"Ŋ":{"ha":819,"x_min":44,"x_max":800,"o":"m 731 975 q 797 936 800 975 l 690 -85 q 624 -243 679 -192 q 494 -294 568 -294 q 408 -283 439 -294 q 378 -240 378 -271 q 392 -184 378 -219 q 425 -149 407 -149 q 443 -151 431 -149 q 469 -154 456 -154 q 501 -138 490 -154 q 517 -82 513 -122 l 531 47 l 308 578 q 291 628 299 600 q 281 665 283 656 l 274 663 q 276 604 276 624 q 275 568 276 581 l 217 36 q 142 -3 214 -3 l 114 -3 q 49 36 44 -3 l 143 936 q 217 975 147 975 l 253 975 q 291 968 276 975 q 314 940 306 961 l 533 413 q 567 311 549 376 l 572 314 q 569 371 569 353 q 572 418 569 388 l 629 936 q 703 975 632 975 l 731 975 z "},"ǋ":{"ha":1165,"x_min":49,"x_max":1131,"o":"m 114 -3 q 49 36 44 -3 l 143 936 q 217 975 147 975 l 253 975 q 291 968 276 975 q 314 940 306 961 l 533 413 q 567 311 549 376 l 572 314 q 569 371 569 353 q 572 418 569 388 l 629 936 q 703 975 632 975 l 731 975 q 797 936 800 975 l 703 36 q 628 -3 696 -3 l 601 -3 q 562 4 576 -3 q 539 29 547 11 l 308 578 q 291 628 299 600 q 281 665 283 656 l 274 663 q 276 604 276 624 q 275 568 276 581 l 217 36 q 142 -3 214 -3 l 114 -3 m 833 -294 q 747 -283 778 -294 q 717 -240 717 -271 q 731 -184 717 -219 q 764 -149 746 -149 q 782 -151 769 -149 q 808 -154 794 -154 q 840 -137 829 -154 q 856 -82 851 -121 l 936 690 q 1015 729 943 729 l 1042 729 q 1110 690 1117 729 l 1029 -85 q 963 -243 1018 -192 q 833 -294 907 -294 m 1035 818 q 972 828 992 818 q 956 857 953 838 l 964 936 q 1050 975 968 975 q 1131 936 1135 975 l 1122 857 q 1035 818 1118 818 z "},"Ñ":{"ha":819,"x_min":49,"x_max":797,"o":"m 114 -3 q 49 36 44 -3 l 143 936 q 217 975 147 975 l 253 975 q 291 968 276 975 q 314 940 306 961 l 533 413 q 567 311 549 376 l 572 314 q 569 371 569 353 q 572 418 569 388 l 629 936 q 703 975 632 975 l 731 975 q 797 936 800 975 l 703 36 q 628 -3 696 -3 l 601 -3 q 562 4 576 -3 q 539 29 547 11 l 308 578 q 291 628 299 600 q 281 665 283 656 l 274 663 q 276 604 276 624 q 275 568 276 581 l 217 36 q 142 -3 214 -3 l 114 -3 m 285 1063 q 260 1092 260 1069 q 264 1113 260 1099 q 312 1183 281 1157 q 386 1208 343 1208 q 478 1183 414 1208 q 553 1163 531 1163 q 574 1167 564 1163 q 594 1189 583 1172 q 628 1211 608 1211 q 646 1208 632 1211 l 658 1204 q 685 1175 685 1194 q 683 1164 685 1169 q 681 1156 681 1158 q 631 1084 663 1110 q 558 1058 600 1058 q 465 1083 529 1058 q 390 1104 411 1104 q 350 1076 368 1104 q 333 1060 340 1065 q 317 1054 326 1054 q 299 1057 310 1054 l 285 1063 z "},"O":{"ha":832,"x_min":65,"x_max":792,"o":"m 376 -10 q 148 88 231 -10 q 65 382 65 186 q 71 488 65 438 q 199 863 97 743 q 482 982 300 982 q 710 886 628 982 q 792 597 792 790 q 786 488 792 539 q 658 111 760 232 q 376 -10 557 -10 m 394 144 q 531 223 482 144 q 600 488 581 301 q 607 610 607 544 q 572 777 607 726 q 467 828 538 828 q 328 751 378 828 q 258 488 279 674 q 251 368 251 414 q 287 197 251 249 q 394 144 322 144 z "},"Ó":{"ha":832,"x_min":65,"x_max":792,"o":"m 376 -10 q 148 88 231 -10 q 65 382 65 186 q 71 488 65 438 q 199 863 97 743 q 482 982 300 982 q 710 886 628 982 q 792 597 792 790 q 786 488 792 539 q 658 111 760 232 q 376 -10 557 -10 m 394 144 q 531 223 482 144 q 600 488 581 301 q 607 610 607 544 q 572 777 607 726 q 467 828 538 828 q 328 751 378 828 q 258 488 279 674 q 251 368 251 414 q 287 197 251 249 q 394 144 322 144 m 447 1050 q 419 1054 426 1050 q 411 1068 411 1058 q 420 1095 411 1075 q 440 1136 429 1115 q 456 1167 450 1157 l 486 1228 q 583 1264 503 1264 q 636 1260 619 1264 q 653 1246 653 1256 q 646 1226 653 1238 q 608 1176 639 1214 l 536 1081 q 506 1058 525 1065 q 447 1050 486 1050 z "},"Ŏ":{"ha":832,"x_min":65,"x_max":792,"o":"m 376 -10 q 148 88 231 -10 q 65 382 65 186 q 71 488 65 438 q 199 863 97 743 q 482 982 300 982 q 710 886 628 982 q 792 597 792 790 q 786 488 792 539 q 658 111 760 232 q 376 -10 557 -10 m 394 144 q 531 223 482 144 q 600 488 581 301 q 607 610 607 544 q 572 777 607 726 q 467 828 538 828 q 328 751 378 828 q 258 488 279 674 q 251 368 251 414 q 287 197 251 249 q 394 144 322 144 m 489 1050 q 366 1094 408 1050 q 331 1201 324 1138 q 379 1239 335 1239 q 401 1232 394 1239 q 413 1210 408 1225 q 440 1176 421 1188 q 501 1164 458 1164 q 567 1177 547 1164 q 600 1213 588 1190 q 617 1233 608 1226 q 639 1239 625 1239 q 679 1201 683 1239 q 622 1094 672 1138 q 489 1050 571 1050 z "},"Ô":{"ha":832,"x_min":65,"x_max":792,"o":"m 376 -10 q 148 88 231 -10 q 65 382 65 186 q 71 488 65 438 q 199 863 97 743 q 482 982 300 982 q 710 886 628 982 q 792 597 792 790 q 786 488 792 539 q 658 111 760 232 q 376 -10 557 -10 m 394 144 q 531 223 482 144 q 600 488 581 301 q 607 610 607 544 q 572 777 607 726 q 467 828 538 828 q 328 751 378 828 q 258 488 279 674 q 251 368 251 414 q 287 197 251 249 q 394 144 322 144 m 350 1042 q 329 1047 336 1042 q 324 1058 322 1051 q 328 1069 324 1061 q 335 1082 333 1078 l 428 1215 q 458 1237 440 1231 q 503 1243 475 1243 l 513 1243 q 556 1237 539 1243 q 581 1215 572 1231 l 646 1082 q 654 1058 654 1069 q 645 1047 653 1051 q 625 1042 638 1042 l 589 1042 q 535 1065 544 1042 l 496 1143 l 443 1067 q 383 1042 426 1042 l 350 1042 z "},"Ố":{"ha":832,"x_min":65,"x_max":810,"o":"m 643 1183 q 619 1188 626 1183 q 613 1201 613 1192 q 636 1267 613 1210 l 665 1338 q 758 1375 683 1375 q 798 1369 786 1375 q 810 1347 810 1364 q 792 1313 810 1339 q 735 1238 774 1288 l 710 1206 q 686 1189 701 1194 q 643 1183 671 1183 m 360 1042 q 333 1058 332 1042 q 337 1069 333 1063 q 342 1081 340 1076 l 431 1215 q 459 1238 442 1232 q 504 1243 476 1243 l 515 1243 q 558 1238 542 1243 q 582 1215 574 1232 l 640 1081 q 647 1058 647 1071 q 638 1047 646 1051 q 618 1042 631 1042 l 583 1042 q 528 1065 539 1042 l 499 1143 l 453 1065 q 428 1047 443 1051 q 393 1042 414 1042 l 360 1042 m 376 -10 q 148 88 231 -10 q 65 382 65 186 q 71 488 65 438 q 199 863 97 743 q 482 982 300 982 q 710 886 628 982 q 792 597 792 790 q 786 488 792 539 q 658 111 760 232 q 376 -10 557 -10 m 394 144 q 531 223 482 144 q 600 488 581 301 q 607 610 607 544 q 572 777 607 726 q 467 828 538 828 q 328 751 378 828 q 258 488 279 674 q 251 368 251 414 q 287 197 251 249 q 394 144 322 144 z "},"Ộ":{"ha":832,"x_min":65,"x_max":792,"o":"m 376 -10 q 148 88 231 -10 q 65 382 65 186 q 71 488 65 438 q 199 863 97 743 q 482 982 300 982 q 710 886 628 982 q 792 597 792 790 q 786 488 792 539 q 658 111 760 232 q 376 -10 557 -10 m 394 144 q 531 223 482 144 q 600 488 581 301 q 607 610 607 544 q 572 777 607 726 q 467 828 538 828 q 328 751 378 828 q 258 488 279 674 q 251 368 251 414 q 287 197 251 249 q 394 144 322 144 m 350 -268 q 288 -258 307 -268 q 271 -229 268 -249 l 279 -150 q 365 -111 283 -111 q 446 -150 450 -111 l 438 -229 q 350 -268 433 -268 m 350 1042 q 329 1047 336 1042 q 324 1058 322 1051 q 328 1069 324 1061 q 335 1082 333 1078 l 428 1215 q 458 1237 440 1231 q 503 1243 475 1243 l 513 1243 q 556 1237 539 1243 q 581 1215 572 1231 l 646 1082 q 654 1058 654 1069 q 645 1047 653 1051 q 625 1042 638 1042 l 589 1042 q 535 1065 544 1042 l 496 1143 l 443 1067 q 383 1042 426 1042 l 350 1042 z "},"Ồ":{"ha":832,"x_min":65,"x_max":792,"o":"m 706 1183 q 636 1208 658 1183 l 588 1275 q 551 1325 563 1308 q 539 1350 539 1342 q 552 1369 539 1364 q 594 1375 565 1375 q 690 1338 674 1375 q 739 1201 739 1218 q 732 1187 739 1190 q 706 1183 725 1183 m 360 1042 q 333 1058 332 1042 q 337 1069 333 1063 q 342 1081 340 1076 l 431 1215 q 459 1238 442 1232 q 504 1243 476 1243 l 515 1243 q 558 1238 542 1243 q 582 1215 574 1232 l 640 1081 q 647 1058 647 1071 q 638 1047 646 1051 q 618 1042 631 1042 l 583 1042 q 528 1065 539 1042 l 499 1143 l 453 1065 q 428 1047 443 1051 q 393 1042 414 1042 l 360 1042 m 376 -10 q 148 88 231 -10 q 65 382 65 186 q 71 488 65 438 q 199 863 97 743 q 482 982 300 982 q 710 886 628 982 q 792 597 792 790 q 786 488 792 539 q 658 111 760 232 q 376 -10 557 -10 m 394 144 q 531 223 482 144 q 600 488 581 301 q 607 610 607 544 q 572 777 607 726 q 467 828 538 828 q 328 751 378 828 q 258 488 279 674 q 251 368 251 414 q 287 197 251 249 q 394 144 322 144 z "},"Ổ":{"ha":832,"x_min":65,"x_max":792,"o":"m 671 1193 q 630 1202 646 1193 q 614 1222 614 1211 q 643 1247 614 1233 q 676 1268 667 1260 q 686 1290 686 1276 q 675 1312 686 1304 q 649 1319 664 1319 q 601 1308 619 1319 q 578 1297 582 1297 q 555 1317 569 1297 q 540 1351 540 1338 q 576 1378 540 1365 q 650 1390 613 1390 q 740 1366 704 1390 q 775 1297 775 1342 q 735 1224 775 1256 q 702 1203 721 1213 q 671 1193 683 1193 m 360 1042 q 333 1058 332 1042 q 337 1069 333 1063 q 342 1081 340 1076 l 431 1215 q 459 1238 442 1232 q 504 1243 476 1243 l 515 1243 q 558 1238 542 1243 q 582 1215 574 1232 l 640 1081 q 647 1058 647 1071 q 638 1047 646 1051 q 618 1042 631 1042 l 583 1042 q 528 1065 539 1042 l 499 1143 l 453 1065 q 428 1047 443 1051 q 393 1042 414 1042 l 360 1042 m 376 -10 q 148 88 231 -10 q 65 382 65 186 q 71 488 65 438 q 199 863 97 743 q 482 982 300 982 q 710 886 628 982 q 792 597 792 790 q 786 488 792 539 q 658 111 760 232 q 376 -10 557 -10 m 394 144 q 531 223 482 144 q 600 488 581 301 q 607 610 607 544 q 572 777 607 726 q 467 828 538 828 q 328 751 378 828 q 258 488 279 674 q 251 368 251 414 q 287 197 251 249 q 394 144 322 144 z "},"Ỗ":{"ha":832,"x_min":65,"x_max":792,"o":"m 340 1235 q 317 1264 317 1242 q 321 1285 317 1271 q 431 1381 356 1381 q 515 1356 457 1381 q 583 1335 565 1335 q 601 1340 593 1335 q 621 1361 610 1344 q 653 1383 635 1383 q 668 1381 657 1383 l 679 1376 q 703 1347 703 1367 q 699 1328 703 1336 q 655 1257 683 1283 q 589 1231 626 1231 q 504 1256 563 1231 q 436 1276 454 1276 q 417 1271 425 1276 q 399 1249 408 1265 q 369 1226 383 1226 q 353 1229 364 1226 l 340 1235 m 360 1042 q 333 1058 332 1042 q 347 1086 333 1064 l 426 1185 q 456 1206 439 1200 q 501 1213 472 1213 l 513 1213 q 556 1206 540 1213 q 581 1185 571 1200 l 638 1086 q 647 1058 647 1067 q 618 1042 644 1042 l 583 1042 q 549 1047 560 1042 q 528 1065 538 1051 l 497 1129 l 451 1065 q 426 1047 438 1051 q 393 1042 415 1042 l 360 1042 m 376 -10 q 148 88 231 -10 q 65 382 65 186 q 71 488 65 438 q 199 863 97 743 q 482 982 300 982 q 710 886 628 982 q 792 597 792 790 q 786 488 792 539 q 658 111 760 232 q 376 -10 557 -10 m 394 144 q 531 223 482 144 q 600 488 581 301 q 607 610 607 544 q 572 777 607 726 q 467 828 538 828 q 328 751 378 828 q 258 488 279 674 q 251 368 251 414 q 287 197 251 249 q 394 144 322 144 z "},"Ö":{"ha":832,"x_min":65,"x_max":792,"o":"m 376 -10 q 148 88 231 -10 q 65 382 65 186 q 71 488 65 438 q 199 863 97 743 q 482 982 300 982 q 710 886 628 982 q 792 597 792 790 q 786 488 792 539 q 658 111 760 232 q 376 -10 557 -10 m 394 144 q 531 223 482 144 q 600 488 581 301 q 607 610 607 544 q 572 777 607 726 q 467 828 538 828 q 328 751 378 828 q 258 488 279 674 q 251 368 251 414 q 287 197 251 249 q 394 144 322 144 m 388 1064 q 335 1074 350 1064 q 322 1103 319 1083 l 329 1182 q 403 1221 333 1221 q 469 1182 474 1221 l 463 1103 q 388 1064 456 1064 m 594 1064 q 542 1074 557 1064 q 529 1103 526 1083 l 536 1182 q 610 1221 540 1221 q 676 1182 681 1221 l 669 1103 q 594 1064 663 1064 z "},"Ọ":{"ha":832,"x_min":65,"x_max":792,"o":"m 376 -10 q 148 88 231 -10 q 65 382 65 186 q 71 488 65 438 q 199 863 97 743 q 482 982 300 982 q 710 886 628 982 q 792 597 792 790 q 786 488 792 539 q 658 111 760 232 q 376 -10 557 -10 m 394 144 q 531 223 482 144 q 600 488 581 301 q 607 610 607 544 q 572 777 607 726 q 467 828 538 828 q 328 751 378 828 q 258 488 279 674 q 251 368 251 414 q 287 197 251 249 q 394 144 322 144 m 350 -268 q 288 -258 307 -268 q 271 -229 268 -249 l 279 -150 q 365 -111 283 -111 q 446 -150 450 -111 l 438 -229 q 350 -268 433 -268 z "},"Ò":{"ha":832,"x_min":65,"x_max":792,"o":"m 376 -10 q 148 88 231 -10 q 65 382 65 186 q 71 488 65 438 q 199 863 97 743 q 482 982 300 982 q 710 886 628 982 q 792 597 792 790 q 786 488 792 539 q 658 111 760 232 q 376 -10 557 -10 m 394 144 q 531 223 482 144 q 600 488 581 301 q 607 610 607 544 q 572 777 607 726 q 467 828 538 828 q 328 751 378 828 q 258 488 279 674 q 251 368 251 414 q 287 197 251 249 q 394 144 322 144 m 517 1050 q 459 1058 478 1050 q 431 1081 440 1067 l 381 1144 q 321 1222 331 1207 q 311 1246 311 1236 q 328 1260 311 1256 q 381 1264 344 1264 q 481 1228 460 1264 q 534 1117 515 1157 q 553 1068 553 1078 q 546 1053 553 1057 q 517 1050 539 1050 z "},"Ỏ":{"ha":832,"x_min":65,"x_max":792,"o":"m 376 -10 q 148 88 231 -10 q 65 382 65 186 q 71 488 65 438 q 199 863 97 743 q 482 982 300 982 q 710 886 628 982 q 792 597 792 790 q 786 488 792 539 q 658 111 760 232 q 376 -10 557 -10 m 394 144 q 531 223 482 144 q 600 488 581 301 q 607 610 607 544 q 572 777 607 726 q 467 828 538 828 q 328 751 378 828 q 258 488 279 674 q 251 368 251 414 q 287 197 251 249 q 394 144 322 144 m 506 1033 q 463 1044 486 1033 q 440 1063 440 1054 q 452 1083 440 1072 q 478 1104 464 1093 q 518 1140 504 1125 q 532 1175 532 1156 q 518 1199 532 1190 q 485 1208 504 1208 q 445 1200 463 1208 q 424 1192 428 1192 q 401 1212 415 1192 q 386 1246 386 1232 q 423 1274 386 1260 q 496 1289 460 1289 q 600 1262 560 1289 q 640 1183 640 1235 q 613 1113 640 1147 q 553 1056 586 1078 q 506 1033 519 1033 z "},"Ơ":{"ha":832,"x_min":65,"x_max":878,"o":"m 878 981 q 842 890 878 924 q 735 853 807 856 q 793 599 793 758 q 786 488 793 553 q 658 111 760 232 q 376 -10 557 -10 q 148 88 231 -10 q 65 382 65 186 q 71 488 65 438 q 199 860 97 739 q 479 982 300 982 q 578 969 536 982 q 663 931 619 956 q 699 912 683 918 q 729 906 714 906 q 764 918 750 906 q 778 953 778 931 q 772 980 778 968 q 753 1008 765 992 q 739 1033 739 1028 q 753 1058 739 1049 l 794 1085 q 814 1092 801 1092 q 858 1053 839 1092 q 878 981 878 1015 m 600 488 q 607 610 607 544 q 572 777 607 726 q 467 828 538 828 q 328 751 378 828 q 258 488 279 674 q 251 368 251 414 q 287 197 251 249 q 394 144 322 144 q 531 223 482 144 q 600 488 581 301 z "},"Ớ":{"ha":832,"x_min":65,"x_max":878,"o":"m 878 981 q 842 890 878 924 q 735 853 807 856 q 793 599 793 758 q 786 488 793 553 q 658 111 760 232 q 376 -10 557 -10 q 148 88 231 -10 q 65 382 65 186 q 71 488 65 438 q 199 860 97 739 q 479 982 300 982 q 578 969 536 982 q 663 931 619 956 q 699 912 683 918 q 729 906 714 906 q 764 918 750 906 q 778 953 778 931 q 772 980 778 968 q 753 1008 765 992 q 739 1033 739 1028 q 753 1058 739 1049 l 794 1085 q 814 1092 801 1092 q 858 1053 839 1092 q 878 981 878 1015 m 600 488 q 607 610 607 544 q 572 777 607 726 q 467 828 538 828 q 328 751 378 828 q 258 488 279 674 q 251 368 251 414 q 287 197 251 249 q 394 144 322 144 q 531 223 482 144 q 600 488 581 301 m 458 1050 q 430 1054 438 1050 q 422 1068 422 1058 q 431 1095 422 1075 q 451 1136 440 1115 q 467 1167 461 1157 l 497 1228 q 594 1264 514 1264 q 647 1260 631 1264 q 664 1246 664 1256 q 657 1226 664 1238 q 619 1176 650 1214 l 547 1081 q 517 1058 536 1065 q 458 1050 497 1050 z "},"Ợ":{"ha":832,"x_min":65,"x_max":878,"o":"m 878 981 q 842 890 878 924 q 735 853 807 856 q 793 599 793 758 q 786 488 793 553 q 658 111 760 232 q 376 -10 557 -10 q 148 88 231 -10 q 65 382 65 186 q 71 488 65 438 q 199 860 97 739 q 479 982 300 982 q 578 969 536 982 q 663 931 619 956 q 699 912 683 918 q 729 906 714 906 q 764 918 750 906 q 778 953 778 931 q 772 980 778 968 q 753 1008 765 992 q 739 1033 739 1028 q 753 1058 739 1049 l 794 1085 q 814 1092 801 1092 q 858 1053 839 1092 q 878 981 878 1015 m 600 488 q 607 610 607 544 q 572 777 607 726 q 467 828 538 828 q 328 751 378 828 q 258 488 279 674 q 251 368 251 414 q 287 197 251 249 q 394 144 322 144 q 531 223 482 144 q 600 488 581 301 m 350 -268 q 288 -258 307 -268 q 271 -229 268 -249 l 279 -150 q 365 -111 283 -111 q 446 -150 450 -111 l 438 -229 q 350 -268 433 -268 z "},"Ờ":{"ha":832,"x_min":65,"x_max":878,"o":"m 878 981 q 842 890 878 924 q 735 853 807 856 q 793 599 793 758 q 786 488 793 553 q 658 111 760 232 q 376 -10 557 -10 q 148 88 231 -10 q 65 382 65 186 q 71 488 65 438 q 199 860 97 739 q 479 982 300 982 q 578 969 536 982 q 663 931 619 956 q 699 912 683 918 q 729 906 714 906 q 764 918 750 906 q 778 953 778 931 q 772 980 778 968 q 753 1008 765 992 q 739 1033 739 1028 q 753 1058 739 1049 l 794 1085 q 814 1092 801 1092 q 858 1053 839 1092 q 878 981 878 1015 m 600 488 q 607 610 607 544 q 572 777 607 726 q 467 828 538 828 q 328 751 378 828 q 258 488 279 674 q 251 368 251 414 q 287 197 251 249 q 394 144 322 144 q 531 223 482 144 q 600 488 581 301 m 517 1050 q 459 1058 478 1050 q 431 1081 440 1067 l 381 1144 q 321 1222 331 1207 q 311 1246 311 1236 q 328 1260 311 1256 q 381 1264 344 1264 q 481 1228 460 1264 q 534 1117 515 1157 q 553 1068 553 1078 q 546 1053 553 1057 q 517 1050 539 1050 z "},"Ở":{"ha":832,"x_min":65,"x_max":878,"o":"m 878 981 q 842 890 878 924 q 735 853 807 856 q 793 599 793 758 q 786 488 793 553 q 658 111 760 232 q 376 -10 557 -10 q 148 88 231 -10 q 65 382 65 186 q 71 488 65 438 q 199 860 97 739 q 479 982 300 982 q 578 969 536 982 q 663 931 619 956 q 699 912 683 918 q 729 906 714 906 q 764 918 750 906 q 778 953 778 931 q 772 980 778 968 q 753 1008 765 992 q 739 1033 739 1028 q 753 1058 739 1049 l 794 1085 q 814 1092 801 1092 q 858 1053 839 1092 q 878 981 878 1015 m 600 488 q 607 610 607 544 q 572 777 607 726 q 467 828 538 828 q 328 751 378 828 q 258 488 279 674 q 251 368 251 414 q 287 197 251 249 q 394 144 322 144 q 531 223 482 144 q 600 488 581 301 m 506 1033 q 463 1044 486 1033 q 440 1063 440 1054 q 452 1083 440 1072 q 478 1104 464 1093 q 518 1140 504 1125 q 532 1175 532 1156 q 518 1199 532 1190 q 485 1208 504 1208 q 445 1200 463 1208 q 424 1192 428 1192 q 401 1212 415 1192 q 386 1246 386 1232 q 423 1274 386 1260 q 496 1289 460 1289 q 600 1262 560 1289 q 640 1183 640 1235 q 613 1113 640 1147 q 553 1056 586 1078 q 506 1033 519 1033 z "},"Ỡ":{"ha":832,"x_min":65,"x_max":878,"o":"m 311 1063 q 289 1092 289 1069 q 292 1113 289 1093 q 336 1183 308 1158 q 403 1208 364 1208 q 485 1183 429 1208 q 553 1163 535 1163 q 571 1167 563 1163 q 590 1189 579 1172 q 619 1211 603 1211 q 636 1208 622 1211 l 647 1204 q 671 1175 671 1194 q 669 1164 671 1169 q 667 1156 667 1158 q 622 1084 650 1110 q 557 1058 594 1058 q 472 1083 531 1058 q 406 1104 425 1104 q 369 1076 386 1104 q 355 1059 361 1064 q 340 1054 349 1054 q 324 1057 332 1054 l 311 1063 m 878 981 q 842 890 878 924 q 735 853 807 856 q 793 599 793 758 q 786 488 793 553 q 658 111 760 232 q 376 -10 557 -10 q 148 88 231 -10 q 65 382 65 186 q 71 488 65 438 q 199 860 97 739 q 479 982 300 982 q 578 969 536 982 q 663 931 619 956 q 699 912 683 918 q 729 906 714 906 q 764 918 750 906 q 778 953 778 931 q 772 980 778 968 q 753 1008 765 992 q 739 1033 739 1028 q 753 1058 739 1049 l 794 1085 q 814 1092 801 1092 q 858 1053 839 1092 q 878 981 878 1015 m 600 488 q 607 610 607 544 q 572 777 607 726 q 467 828 538 828 q 328 751 378 828 q 258 488 279 674 q 251 368 251 414 q 287 197 251 249 q 394 144 322 144 q 531 223 482 144 q 600 488 581 301 z "},"Ő":{"ha":832,"x_min":65,"x_max":792,"o":"m 376 -10 q 148 88 231 -10 q 65 382 65 186 q 71 488 65 438 q 199 863 97 743 q 482 982 300 982 q 710 886 628 982 q 792 597 792 790 q 786 488 792 539 q 658 111 760 232 q 376 -10 557 -10 m 394 144 q 531 223 482 144 q 600 488 581 301 q 607 610 607 544 q 572 777 607 726 q 467 828 538 828 q 328 751 378 828 q 258 488 279 674 q 251 368 251 414 q 287 197 251 249 q 394 144 322 144 m 361 1050 q 332 1053 339 1050 q 325 1068 325 1057 q 349 1124 325 1078 q 399 1228 357 1140 q 497 1264 415 1264 q 549 1260 533 1264 q 565 1246 565 1256 q 557 1223 565 1236 q 513 1164 549 1210 l 450 1081 q 418 1058 438 1065 q 361 1050 399 1050 m 571 1050 q 542 1054 550 1050 q 535 1068 535 1058 q 545 1096 535 1075 q 560 1126 556 1117 q 610 1228 582 1167 q 707 1264 626 1264 q 760 1260 743 1264 q 776 1246 776 1256 q 767 1222 776 1236 q 707 1143 757 1207 q 660 1081 696 1126 q 630 1058 649 1065 q 571 1050 611 1050 z "},"Ō":{"ha":832,"x_min":65,"x_max":792,"o":"m 376 -10 q 148 88 231 -10 q 65 382 65 186 q 71 488 65 438 q 199 863 97 743 q 482 982 300 982 q 710 886 628 982 q 792 597 792 790 q 786 488 792 539 q 658 111 760 232 q 376 -10 557 -10 m 394 144 q 531 223 482 144 q 600 488 581 301 q 607 610 607 544 q 572 777 607 726 q 467 828 538 828 q 328 751 378 828 q 258 488 279 674 q 251 368 251 414 q 287 197 251 249 q 394 144 322 144 m 357 1082 q 332 1094 339 1082 q 328 1133 325 1106 l 329 1151 q 369 1201 335 1201 l 639 1201 q 665 1190 658 1201 q 669 1151 672 1178 l 667 1133 q 655 1094 664 1106 q 626 1082 646 1082 l 357 1082 z "},"Ǫ":{"ha":832,"x_min":65,"x_max":792,"o":"m 482 982 q 710 886 628 982 q 792 597 792 790 q 786 488 792 539 q 690 153 764 272 q 485 3 615 35 q 460 -99 460 -47 q 479 -146 460 -133 q 528 -158 499 -158 q 551 -155 539 -158 q 569 -151 563 -151 q 597 -160 588 -151 q 606 -190 606 -169 q 585 -231 606 -219 q 501 -251 547 -251 q 397 -210 424 -251 q 369 -124 369 -169 q 376 -69 369 -100 q 397 -10 383 -39 l 376 -10 q 148 88 231 -10 q 65 382 65 186 q 71 488 65 438 q 199 863 97 743 q 482 982 300 982 m 600 488 q 607 610 607 544 q 572 777 607 726 q 467 828 538 828 q 328 751 378 828 q 258 488 279 674 q 251 368 251 414 q 287 197 251 249 q 394 144 322 144 q 531 223 482 144 q 600 488 581 301 z "},"Ø":{"ha":832,"x_min":65,"x_max":792,"o":"m 722 872 q 792 596 792 775 q 786 488 792 539 q 658 111 760 232 q 376 -10 557 -10 q 192 46 265 -10 l 156 -10 q 126 -29 143 -29 q 91 -14 111 -29 q 71 17 71 1 q 79 39 71 29 l 128 115 q 65 383 65 214 q 71 488 65 438 q 199 863 97 743 q 482 982 300 982 q 654 936 583 982 l 688 988 q 715 1007 700 1007 q 751 992 731 1007 q 772 961 772 976 q 764 938 772 949 l 722 872 m 258 488 q 251 369 251 414 q 254 311 251 347 l 561 792 q 467 828 529 828 q 328 751 378 828 q 258 488 279 674 m 600 488 q 608 607 608 557 q 603 686 608 642 l 288 196 q 394 144 321 144 q 531 223 482 144 q 600 488 581 301 z "},"Ǿ":{"ha":832,"x_min":65,"x_max":792,"o":"m 722 872 q 792 596 792 775 q 786 488 792 539 q 658 111 760 232 q 376 -10 557 -10 q 192 46 265 -10 l 156 -10 q 126 -29 143 -29 q 91 -14 111 -29 q 71 17 71 1 q 79 39 71 29 l 128 115 q 65 383 65 214 q 71 488 65 438 q 199 863 97 743 q 482 982 300 982 q 654 936 583 982 l 688 988 q 715 1007 700 1007 q 751 992 731 1007 q 772 961 772 976 q 764 938 772 949 l 722 872 m 258 488 q 251 369 251 414 q 254 311 251 347 l 561 792 q 467 828 529 828 q 328 751 378 828 q 258 488 279 674 m 600 488 q 608 607 608 557 q 603 686 608 642 l 288 196 q 394 144 321 144 q 531 223 482 144 q 600 488 581 301 m 443 1050 q 415 1054 422 1050 q 407 1068 407 1058 q 416 1095 407 1075 q 435 1136 425 1115 q 451 1167 446 1157 l 482 1228 q 579 1264 499 1264 q 632 1260 615 1264 q 649 1246 649 1256 q 642 1226 649 1238 q 604 1176 635 1214 l 532 1081 q 501 1058 521 1065 q 443 1050 482 1050 z "},"Õ":{"ha":832,"x_min":65,"x_max":792,"o":"m 376 -10 q 148 88 231 -10 q 65 382 65 186 q 71 488 65 438 q 199 863 97 743 q 482 982 300 982 q 710 886 628 982 q 792 597 792 790 q 786 488 792 539 q 658 111 760 232 q 376 -10 557 -10 m 394 144 q 531 223 482 144 q 600 488 581 301 q 607 610 607 544 q 572 777 607 726 q 467 828 538 828 q 328 751 378 828 q 258 488 279 674 q 251 368 251 414 q 287 197 251 249 q 394 144 322 144 m 292 1063 q 267 1092 267 1069 q 271 1113 267 1099 q 319 1183 288 1157 q 393 1208 350 1208 q 485 1183 421 1208 q 560 1163 538 1163 q 581 1167 571 1163 q 601 1189 590 1172 q 635 1211 615 1211 q 653 1208 639 1211 l 665 1204 q 692 1175 692 1194 q 690 1164 692 1169 q 688 1156 688 1158 q 638 1084 669 1110 q 565 1058 607 1058 q 472 1083 536 1058 q 397 1104 418 1104 q 357 1076 375 1104 q 340 1060 347 1065 q 324 1054 333 1054 q 306 1057 317 1054 l 292 1063 z "},"Œ":{"ha":1143,"x_min":65,"x_max":1149,"o":"m 1117 972 q 1142 958 1135 972 q 1146 913 1149 944 l 1142 878 q 1100 818 1138 818 l 817 818 l 792 575 l 1046 575 q 1071 561 1064 575 q 1075 515 1078 547 l 1071 481 q 1029 421 1065 421 l 775 421 l 747 154 l 1031 154 q 1056 140 1049 154 q 1060 94 1063 126 l 1056 60 q 1042 14 1053 28 q 1014 0 1032 0 l 593 0 q 559 12 569 0 q 551 50 549 24 q 356 -10 471 -10 q 144 88 222 -10 q 65 378 65 185 q 71 488 65 436 q 194 860 99 739 q 456 982 290 982 q 565 965 518 982 q 643 908 611 947 l 644 922 q 660 960 647 949 q 696 972 672 972 l 1117 972 m 394 144 q 531 223 482 144 q 600 488 581 301 q 607 610 607 544 q 572 777 607 726 q 467 828 538 828 q 328 751 378 828 q 258 488 279 674 q 251 368 251 414 q 287 197 251 249 q 394 144 322 144 z "},"P":{"ha":669,"x_min":53,"x_max":682,"o":"m 125 -3 q 57 36 53 -3 l 150 922 q 166 960 153 949 q 204 972 179 972 l 440 972 q 610 922 538 972 q 682 732 682 871 q 679 679 682 715 q 613 494 667 560 q 498 405 558 428 q 392 382 438 382 l 275 382 l 238 36 q 163 -3 235 -3 l 125 -3 m 390 535 q 460 567 428 535 q 500 679 492 599 q 501 708 501 690 q 476 793 501 768 q 417 818 451 818 l 319 818 l 290 535 l 390 535 z "},"Þ":{"ha":669,"x_min":47,"x_max":660,"o":"m 117 -3 q 51 36 47 -3 l 146 936 q 219 975 150 975 l 263 975 q 329 936 333 975 l 317 815 l 418 815 q 587 765 514 815 q 660 575 660 714 q 657 522 660 558 q 590 337 643 403 q 476 248 536 271 q 369 225 415 225 l 254 225 l 235 36 q 160 -3 231 -3 l 117 -3 m 367 376 q 436 409 404 376 q 476 522 468 442 q 478 556 478 535 q 393 661 478 661 l 300 661 l 269 376 l 367 376 z "},"Q":{"ha":832,"x_min":63,"x_max":792,"o":"m 667 -226 q 480 -131 653 -226 q 221 19 307 -35 q 103 154 143 68 q 63 374 63 240 q 69 486 63 419 q 196 863 96 743 q 481 982 296 982 q 711 888 631 982 q 792 600 792 793 q 785 486 792 553 q 517 26 744 118 l 517 21 l 749 -85 q 763 -108 765 -92 q 744 -150 760 -121 q 706 -203 728 -179 q 667 -226 685 -226 m 393 142 q 529 221 479 142 q 599 486 579 300 q 606 608 606 543 q 571 776 606 725 q 465 828 536 828 q 328 749 378 828 q 257 486 278 671 q 250 367 250 413 q 285 194 250 247 q 393 142 321 142 z "},"R":{"ha":713,"x_min":49,"x_max":675,"o":"m 121 -3 q 51 36 49 -3 l 146 922 q 161 960 149 949 q 200 972 174 972 l 422 972 q 675 757 675 972 q 672 708 675 742 q 518 474 656 544 l 518 468 q 596 317 572 438 l 651 47 l 654 31 q 575 -1 650 -1 l 536 -1 q 468 31 474 -1 l 418 297 q 388 364 407 346 q 324 382 368 382 l 271 382 l 233 36 q 157 -3 229 -3 l 121 -3 m 389 549 q 463 596 431 549 q 494 717 494 643 q 410 818 494 818 l 315 818 l 288 549 l 389 549 z "},"Ŕ":{"ha":713,"x_min":51,"x_max":675,"o":"m 121 -3 q 51 36 49 -3 l 146 922 q 161 960 149 949 q 200 972 174 972 l 422 972 q 675 757 675 972 q 672 708 675 742 q 518 474 656 544 l 518 468 q 596 317 572 438 l 651 47 l 654 31 q 575 -1 650 -1 l 536 -1 q 468 31 474 -1 l 418 297 q 388 364 407 346 q 324 382 368 382 l 271 382 l 233 36 q 157 -3 229 -3 l 121 -3 m 389 549 q 463 596 431 549 q 494 717 494 643 q 410 818 494 818 l 315 818 l 288 549 l 389 549 m 381 1050 q 352 1054 360 1050 q 344 1068 344 1058 q 353 1095 344 1075 q 373 1136 363 1115 q 389 1167 383 1157 l 419 1228 q 517 1264 436 1264 q 569 1260 553 1264 q 586 1246 586 1256 q 579 1226 586 1238 q 542 1176 572 1214 l 469 1081 q 439 1058 458 1065 q 381 1050 419 1050 z "},"Ř":{"ha":713,"x_min":51,"x_max":675,"o":"m 121 -3 q 51 36 49 -3 l 146 922 q 161 960 149 949 q 200 972 174 972 l 422 972 q 675 757 675 972 q 672 708 675 742 q 518 474 656 544 l 518 468 q 596 317 572 438 l 651 47 l 654 31 q 575 -1 650 -1 l 536 -1 q 468 31 474 -1 l 418 297 q 388 364 407 346 q 324 382 368 382 l 271 382 l 233 36 q 157 -3 229 -3 l 121 -3 m 389 549 q 463 596 431 549 q 494 717 494 643 q 410 818 494 818 l 315 818 l 288 549 l 389 549 m 415 1046 q 373 1052 389 1046 q 349 1074 357 1058 l 283 1207 q 276 1231 276 1221 q 306 1247 279 1247 l 340 1247 q 394 1222 381 1247 l 432 1146 l 485 1224 q 546 1247 500 1247 l 581 1247 q 600 1242 593 1247 q 606 1231 607 1238 q 594 1207 606 1224 l 500 1074 q 471 1052 488 1058 q 428 1046 454 1046 l 415 1046 z "},"Ŗ":{"ha":713,"x_min":51,"x_max":675,"o":"m 121 -3 q 51 36 49 -3 l 146 922 q 161 960 149 949 q 200 972 174 972 l 422 972 q 675 757 675 972 q 672 708 675 742 q 518 474 656 544 l 518 468 q 596 317 572 438 l 651 47 l 654 31 q 575 -1 650 -1 l 536 -1 q 468 31 474 -1 l 418 297 q 388 364 407 346 q 324 382 368 382 l 271 382 l 233 36 q 157 -3 229 -3 l 121 -3 m 389 549 q 463 596 431 549 q 494 717 494 643 q 410 818 494 818 l 315 818 l 288 549 l 389 549 m 274 -331 q 238 -324 254 -331 q 221 -304 221 -317 q 226 -269 221 -297 q 244 -126 244 -207 q 315 -71 244 -71 l 338 -71 q 381 -85 367 -71 q 394 -124 394 -100 q 374 -223 394 -175 q 324 -301 353 -271 q 274 -331 294 -331 z "},"Ṛ":{"ha":713,"x_min":51,"x_max":675,"o":"m 121 -3 q 51 36 49 -3 l 146 922 q 161 960 149 949 q 200 972 174 972 l 422 972 q 675 757 675 972 q 672 708 675 742 q 518 474 656 544 l 518 468 q 596 317 572 438 l 651 47 l 654 31 q 575 -1 650 -1 l 536 -1 q 468 31 474 -1 l 418 297 q 388 364 407 346 q 324 382 368 382 l 271 382 l 233 36 q 157 -3 229 -3 l 121 -3 m 389 549 q 463 596 431 549 q 494 717 494 643 q 410 818 494 818 l 315 818 l 288 549 l 389 549 m 293 -268 q 231 -258 250 -268 q 214 -229 211 -249 l 222 -150 q 308 -111 226 -111 q 389 -150 393 -111 l 381 -229 q 293 -268 376 -268 z "},"S":{"ha":607,"x_min":8,"x_max":588,"o":"m 243 -10 q 71 26 135 -10 q 8 89 8 53 q 26 163 8 124 q 65 203 43 203 q 88 193 75 203 q 165 158 128 169 q 243 146 201 146 q 342 177 303 146 q 381 276 381 208 q 349 358 381 326 q 251 431 318 390 q 122 539 165 483 q 79 683 79 594 q 118 843 79 775 q 225 948 157 911 q 379 985 293 985 q 481 974 429 985 q 564 944 532 964 q 588 908 588 932 q 571 838 588 878 q 533 797 554 797 q 515 801 526 797 q 500 806 504 804 q 394 829 442 829 q 295 796 329 829 q 261 714 261 763 q 292 630 261 663 q 392 556 324 597 q 522 448 479 501 q 564 308 564 394 q 478 74 564 158 q 243 -10 393 -10 z "},"Ś":{"ha":607,"x_min":8,"x_max":588,"o":"m 243 -10 q 71 26 135 -10 q 8 89 8 53 q 26 163 8 124 q 65 203 43 203 q 88 193 75 203 q 165 158 128 169 q 243 146 201 146 q 342 177 303 146 q 381 276 381 208 q 349 358 381 326 q 251 431 318 390 q 122 539 165 483 q 79 683 79 594 q 118 843 79 775 q 225 948 157 911 q 379 985 293 985 q 481 974 429 985 q 564 944 532 964 q 588 908 588 932 q 571 838 588 878 q 533 797 554 797 q 515 801 526 797 q 500 806 504 804 q 394 829 442 829 q 295 796 329 829 q 261 714 261 763 q 292 630 261 663 q 392 556 324 597 q 522 448 479 501 q 564 308 564 394 q 478 74 564 158 q 243 -10 393 -10 m 340 1050 q 312 1054 319 1050 q 304 1068 304 1058 q 313 1095 304 1075 q 333 1136 322 1115 q 349 1167 343 1157 l 379 1228 q 476 1264 396 1264 q 529 1260 513 1264 q 546 1246 546 1256 q 539 1226 546 1238 q 501 1176 532 1214 l 429 1081 q 399 1058 418 1065 q 340 1050 379 1050 z "},"Š":{"ha":607,"x_min":8,"x_max":588,"o":"m 243 -10 q 71 26 135 -10 q 8 89 8 53 q 26 163 8 124 q 65 203 43 203 q 88 193 75 203 q 165 158 128 169 q 243 146 201 146 q 342 177 303 146 q 381 276 381 208 q 349 358 381 326 q 251 431 318 390 q 122 539 165 483 q 79 683 79 594 q 118 843 79 775 q 225 948 157 911 q 379 985 293 985 q 481 974 429 985 q 564 944 532 964 q 588 908 588 932 q 571 838 588 878 q 533 797 554 797 q 515 801 526 797 q 500 806 504 804 q 394 829 442 829 q 295 796 329 829 q 261 714 261 763 q 292 630 261 663 q 392 556 324 597 q 522 448 479 501 q 564 308 564 394 q 478 74 564 158 q 243 -10 393 -10 m 375 1046 q 333 1052 349 1046 q 308 1074 317 1058 l 243 1207 q 236 1231 236 1221 q 265 1247 239 1247 l 300 1247 q 354 1222 340 1247 l 392 1146 l 444 1224 q 506 1247 460 1247 l 540 1247 q 560 1242 553 1247 q 565 1231 567 1238 q 554 1207 565 1224 l 460 1074 q 431 1052 447 1058 q 388 1046 414 1046 l 375 1046 z "},"Ş":{"ha":607,"x_min":8,"x_max":588,"o":"m 392 556 q 522 448 479 501 q 564 308 564 394 q 486 82 564 165 q 271 -8 408 -1 l 253 -72 q 320 -101 293 -76 q 347 -172 347 -126 q 308 -263 347 -233 q 206 -293 269 -293 q 108 -274 151 -293 q 65 -226 65 -254 q 78 -190 65 -206 q 103 -175 92 -175 q 136 -186 111 -175 q 196 -204 172 -204 q 221 -197 211 -204 q 231 -175 231 -190 q 222 -153 231 -160 q 193 -137 213 -147 q 161 -110 161 -126 q 193 -8 161 -97 q 71 26 119 -1 q 8 89 8 53 q 26 163 8 124 q 65 203 43 203 q 88 193 75 203 q 165 158 128 169 q 243 146 201 146 q 342 177 303 146 q 381 276 381 208 q 349 358 381 326 q 251 431 318 390 q 122 539 165 483 q 79 683 79 594 q 118 843 79 775 q 225 948 157 911 q 379 985 293 985 q 481 974 429 985 q 564 944 532 964 q 588 908 588 932 q 571 838 588 878 q 533 797 554 797 q 515 801 526 797 q 500 806 504 804 q 394 829 442 829 q 295 796 329 829 q 261 714 261 763 q 292 630 261 663 q 392 556 324 597 z "},"Ŝ":{"ha":607,"x_min":8,"x_max":588,"o":"m 243 -10 q 71 26 135 -10 q 8 89 8 53 q 26 163 8 124 q 65 203 43 203 q 88 193 75 203 q 165 158 128 169 q 243 146 201 146 q 342 177 303 146 q 381 276 381 208 q 349 358 381 326 q 251 431 318 390 q 122 539 165 483 q 79 683 79 594 q 118 843 79 775 q 225 948 157 911 q 379 985 293 985 q 481 974 429 985 q 564 944 532 964 q 588 908 588 932 q 571 838 588 878 q 533 797 554 797 q 515 801 526 797 q 500 806 504 804 q 394 829 442 829 q 295 796 329 829 q 261 714 261 763 q 292 630 261 663 q 392 556 324 597 q 522 448 479 501 q 564 308 564 394 q 478 74 564 158 q 243 -10 393 -10 m 243 1042 q 222 1047 229 1042 q 217 1058 215 1051 q 222 1069 217 1061 q 228 1082 226 1078 l 321 1215 q 351 1237 333 1231 q 396 1243 368 1243 l 406 1243 q 449 1237 432 1243 q 474 1215 465 1231 l 539 1082 q 547 1058 547 1069 q 538 1047 546 1051 q 518 1042 531 1042 l 482 1042 q 428 1065 438 1042 l 389 1143 l 336 1067 q 276 1042 319 1042 l 243 1042 z "},"Ș":{"ha":607,"x_min":8,"x_max":588,"o":"m 243 -10 q 71 26 135 -10 q 8 89 8 53 q 26 163 8 124 q 65 203 43 203 q 88 193 75 203 q 165 158 128 169 q 243 146 201 146 q 342 177 303 146 q 381 276 381 208 q 349 358 381 326 q 251 431 318 390 q 122 539 165 483 q 79 683 79 594 q 118 843 79 775 q 225 948 157 911 q 379 985 293 985 q 481 974 429 985 q 564 944 532 964 q 588 908 588 932 q 571 838 588 878 q 533 797 554 797 q 515 801 526 797 q 500 806 504 804 q 394 829 442 829 q 295 796 329 829 q 261 714 261 763 q 292 630 261 663 q 392 556 324 597 q 522 448 479 501 q 564 308 564 394 q 478 74 564 158 q 243 -10 393 -10 m 189 -331 q 153 -324 169 -331 q 136 -304 136 -317 q 142 -269 136 -297 q 160 -126 160 -207 q 231 -71 160 -71 l 253 -71 q 296 -85 282 -71 q 310 -124 310 -100 q 289 -223 310 -175 q 239 -301 268 -271 q 189 -331 210 -331 z "},"Ṣ":{"ha":607,"x_min":8,"x_max":588,"o":"m 243 -10 q 71 26 135 -10 q 8 89 8 53 q 26 163 8 124 q 65 203 43 203 q 88 193 75 203 q 165 158 128 169 q 243 146 201 146 q 342 177 303 146 q 381 276 381 208 q 349 358 381 326 q 251 431 318 390 q 122 539 165 483 q 79 683 79 594 q 118 843 79 775 q 225 948 157 911 q 379 985 293 985 q 481 974 429 985 q 564 944 532 964 q 588 908 588 932 q 571 838 588 878 q 533 797 554 797 q 515 801 526 797 q 500 806 504 804 q 394 829 442 829 q 295 796 329 829 q 261 714 261 763 q 292 630 261 663 q 392 556 324 597 q 522 448 479 501 q 564 308 564 394 q 478 74 564 158 q 243 -10 393 -10 m 208 -268 q 146 -258 165 -268 q 129 -229 126 -249 l 138 -150 q 224 -111 142 -111 q 304 -150 308 -111 l 296 -229 q 208 -268 292 -268 z "},"ẞ":{"ha":824,"x_min":40,"x_max":796,"o":"m 476 -10 q 346 15 410 -10 q 286 79 282 40 q 314 135 289 100 q 357 171 339 171 q 386 157 368 171 q 404 147 389 156 q 437 134 419 139 q 471 129 454 129 q 563 177 525 129 q 601 321 601 225 q 572 412 601 382 q 489 442 543 442 l 457 442 q 430 481 442 442 q 421 547 418 521 q 426 563 424 558 l 589 814 q 465 828 522 828 q 342 773 386 828 q 288 606 299 718 l 228 36 q 150 -3 224 -3 l 115 -3 q 47 36 40 -3 l 106 607 q 219 888 125 793 q 478 982 314 982 q 626 972 550 982 q 761 949 701 963 q 785 907 774 947 q 793 840 796 867 q 790 828 793 831 l 625 569 q 778 336 778 511 q 775 285 778 321 q 677 66 760 142 q 476 -10 594 -10 z "},"Ə":{"ha":778,"x_min":54,"x_max":713,"o":"m 326 -6 q 122 85 190 -6 q 54 342 54 175 q 60 443 54 394 q 89 487 61 458 q 129 515 117 515 l 529 515 q 533 613 533 569 q 496 788 533 739 q 382 838 458 838 q 291 824 332 838 q 207 790 250 811 q 171 776 179 776 q 136 810 154 776 q 118 867 118 843 q 164 923 118 896 q 278 966 210 950 q 408 982 347 982 q 638 888 563 982 q 713 601 713 794 q 704 464 713 539 q 583 107 679 219 q 326 -6 488 -6 m 342 138 q 451 194 410 138 q 518 392 493 251 l 226 392 q 221 299 221 346 q 249 177 221 217 q 342 138 276 138 z "},"T":{"ha":631,"x_min":69,"x_max":676,"o":"m 256 -3 q 189 36 185 -3 l 271 818 l 100 818 q 69 861 69 818 l 71 878 l 75 913 q 117 972 81 972 l 643 972 q 669 958 661 972 q 674 913 676 944 l 668 878 q 626 818 664 818 l 456 818 l 372 36 q 299 -3 369 -3 l 256 -3 z "},"Ŧ":{"ha":631,"x_min":38,"x_max":676,"o":"m 643 972 q 669 958 661 972 q 674 913 676 944 l 668 878 q 626 818 664 818 l 456 818 l 426 549 l 582 549 q 614 508 614 549 q 605 453 614 479 q 568 428 596 428 l 414 428 l 372 36 q 299 -3 369 -3 l 256 -3 q 189 36 185 -3 l 231 428 l 69 428 q 45 438 53 428 q 38 468 38 447 q 82 549 38 549 l 243 549 l 271 818 l 100 818 q 69 861 69 818 l 71 878 l 75 913 q 117 972 81 972 l 643 972 z "},"Ť":{"ha":631,"x_min":69,"x_max":674,"o":"m 256 -3 q 189 36 185 -3 l 271 818 l 100 818 q 69 861 69 818 l 71 878 l 75 913 q 117 972 81 972 l 643 972 q 669 958 661 972 q 674 913 676 944 l 668 878 q 626 818 664 818 l 456 818 l 372 36 q 299 -3 369 -3 l 256 -3 m 381 1046 q 338 1052 354 1046 q 314 1074 322 1058 l 249 1207 q 242 1231 242 1221 q 271 1247 244 1247 l 306 1247 q 360 1222 346 1247 l 397 1146 l 450 1224 q 511 1247 465 1247 l 546 1247 q 565 1242 558 1247 q 571 1231 572 1238 q 560 1207 571 1224 l 465 1074 q 436 1052 453 1058 q 393 1046 419 1046 l 381 1046 z "},"Ţ":{"ha":631,"x_min":69,"x_max":676,"o":"m 643 972 q 669 958 661 972 q 674 913 676 944 l 668 878 q 626 818 664 818 l 456 818 l 372 36 q 314 -3 369 1 l 293 -72 q 360 -101 333 -76 q 388 -172 388 -126 q 349 -263 388 -233 q 246 -293 310 -293 q 149 -274 192 -293 q 106 -226 106 -254 q 119 -190 106 -206 q 143 -175 132 -175 q 176 -186 151 -175 q 236 -204 213 -204 q 261 -197 251 -204 q 271 -175 271 -190 q 262 -153 271 -160 q 233 -137 253 -147 q 201 -110 201 -126 q 208 -81 201 -103 q 219 -46 215 -60 l 235 -1 q 189 36 185 3 l 271 818 l 100 818 q 69 861 69 818 l 71 878 l 75 913 q 117 972 81 972 l 643 972 z "},"Ț":{"ha":631,"x_min":69,"x_max":674,"o":"m 256 -3 q 189 36 185 -3 l 271 818 l 100 818 q 69 861 69 818 l 71 878 l 75 913 q 117 972 81 972 l 643 972 q 669 958 661 972 q 674 913 676 944 l 668 878 q 626 818 664 818 l 456 818 l 372 36 q 299 -3 369 -3 l 256 -3 m 229 -331 q 193 -324 210 -331 q 176 -304 176 -317 q 182 -269 176 -297 q 200 -126 200 -207 q 271 -71 200 -71 l 293 -71 q 336 -85 322 -71 q 350 -124 350 -100 q 329 -223 350 -175 q 279 -301 308 -271 q 229 -331 250 -331 z "},"Ṭ":{"ha":631,"x_min":69,"x_max":674,"o":"m 256 -3 q 189 36 185 -3 l 271 818 l 100 818 q 69 861 69 818 l 71 878 l 75 913 q 117 972 81 972 l 643 972 q 669 958 661 972 q 674 913 676 944 l 668 878 q 626 818 664 818 l 456 818 l 372 36 q 299 -3 369 -3 l 256 -3 m 249 -268 q 186 -258 206 -268 q 169 -229 167 -249 l 178 -150 q 264 -111 182 -111 q 344 -150 349 -111 l 336 -229 q 249 -268 332 -268 z "},"U":{"ha":810,"x_min":68,"x_max":794,"o":"m 367 -10 q 146 56 224 -10 q 68 239 68 121 q 71 279 68 251 l 140 936 q 214 975 143 975 l 256 975 q 324 936 326 975 l 254 288 q 283 185 247 225 q 382 144 318 144 q 490 185 446 144 q 540 288 533 225 l 608 936 q 682 975 611 975 l 724 975 q 790 936 794 975 l 721 279 q 613 67 707 143 q 367 -10 519 -10 z "},"Ú":{"ha":810,"x_min":68,"x_max":790,"o":"m 367 -10 q 146 56 224 -10 q 68 239 68 121 q 71 279 68 251 l 140 936 q 214 975 143 975 l 256 975 q 324 936 326 975 l 254 288 q 283 185 247 225 q 382 144 318 144 q 490 185 446 144 q 540 288 533 225 l 608 936 q 682 975 611 975 l 724 975 q 790 936 794 975 l 721 279 q 613 67 707 143 q 367 -10 519 -10 m 436 1050 q 408 1054 415 1050 q 400 1068 400 1058 q 409 1095 400 1075 q 428 1136 418 1115 q 444 1167 439 1157 l 475 1228 q 572 1264 492 1264 q 625 1260 608 1264 q 642 1246 642 1256 q 635 1226 642 1238 q 597 1176 628 1214 l 525 1081 q 494 1058 514 1065 q 436 1050 475 1050 z "},"Ŭ":{"ha":810,"x_min":68,"x_max":790,"o":"m 367 -10 q 146 56 224 -10 q 68 239 68 121 q 71 279 68 251 l 140 936 q 214 975 143 975 l 256 975 q 324 936 326 975 l 254 288 q 283 185 247 225 q 382 144 318 144 q 490 185 446 144 q 540 288 533 225 l 608 936 q 682 975 611 975 l 724 975 q 790 936 794 975 l 721 279 q 613 67 707 143 q 367 -10 519 -10 m 478 1050 q 355 1094 397 1050 q 319 1201 313 1138 q 368 1239 324 1239 q 390 1232 383 1239 q 401 1210 397 1225 q 428 1176 410 1188 q 490 1164 447 1164 q 556 1177 536 1164 q 589 1213 576 1190 q 606 1233 597 1226 q 628 1239 614 1239 q 668 1201 672 1239 q 610 1094 661 1138 q 478 1050 560 1050 z "},"Û":{"ha":810,"x_min":68,"x_max":790,"o":"m 367 -10 q 146 56 224 -10 q 68 239 68 121 q 71 279 68 251 l 140 936 q 214 975 143 975 l 256 975 q 324 936 326 975 l 254 288 q 283 185 247 225 q 382 144 318 144 q 490 185 446 144 q 540 288 533 225 l 608 936 q 682 975 611 975 l 724 975 q 790 936 794 975 l 721 279 q 613 67 707 143 q 367 -10 519 -10 m 339 1042 q 318 1047 325 1042 q 313 1058 311 1051 q 317 1069 313 1061 q 324 1082 322 1078 l 417 1215 q 447 1237 429 1231 q 492 1243 464 1243 l 501 1243 q 544 1237 528 1243 q 569 1215 561 1231 l 635 1082 q 643 1058 643 1069 q 634 1047 642 1051 q 614 1042 626 1042 l 578 1042 q 524 1065 533 1042 l 485 1143 l 432 1067 q 372 1042 415 1042 l 339 1042 z "},"Ü":{"ha":810,"x_min":68,"x_max":790,"o":"m 367 -10 q 146 56 224 -10 q 68 239 68 121 q 71 279 68 251 l 140 936 q 214 975 143 975 l 256 975 q 324 936 326 975 l 254 288 q 283 185 247 225 q 382 144 318 144 q 490 185 446 144 q 540 288 533 225 l 608 936 q 682 975 611 975 l 724 975 q 790 936 794 975 l 721 279 q 613 67 707 143 q 367 -10 519 -10 m 376 1064 q 324 1074 339 1064 q 311 1103 308 1083 l 318 1182 q 392 1221 322 1221 q 458 1182 463 1221 l 451 1103 q 376 1064 444 1064 m 583 1064 q 531 1074 546 1064 q 518 1103 515 1083 l 525 1182 q 599 1221 529 1221 q 665 1182 669 1221 l 658 1103 q 583 1064 651 1064 z "},"Ụ":{"ha":810,"x_min":68,"x_max":790,"o":"m 367 -10 q 146 56 224 -10 q 68 239 68 121 q 71 279 68 251 l 140 936 q 214 975 143 975 l 256 975 q 324 936 326 975 l 254 288 q 283 185 247 225 q 382 144 318 144 q 490 185 446 144 q 540 288 533 225 l 608 936 q 682 975 611 975 l 724 975 q 790 936 794 975 l 721 279 q 613 67 707 143 q 367 -10 519 -10 m 340 -268 q 278 -258 297 -268 q 261 -229 258 -249 l 269 -150 q 356 -111 274 -111 q 436 -150 440 -111 l 428 -229 q 340 -268 424 -268 z "},"Ù":{"ha":810,"x_min":68,"x_max":790,"o":"m 367 -10 q 146 56 224 -10 q 68 239 68 121 q 71 279 68 251 l 140 936 q 214 975 143 975 l 256 975 q 324 936 326 975 l 254 288 q 283 185 247 225 q 382 144 318 144 q 490 185 446 144 q 540 288 533 225 l 608 936 q 682 975 611 975 l 724 975 q 790 936 794 975 l 721 279 q 613 67 707 143 q 367 -10 519 -10 m 506 1050 q 448 1058 467 1050 q 419 1081 429 1067 l 369 1144 q 310 1222 319 1207 q 300 1246 300 1236 q 317 1260 300 1256 q 369 1264 333 1264 q 469 1228 449 1264 q 523 1117 504 1157 q 542 1068 542 1078 q 535 1053 542 1057 q 506 1050 528 1050 z "},"Ủ":{"ha":810,"x_min":68,"x_max":790,"o":"m 367 -10 q 146 56 224 -10 q 68 239 68 121 q 71 279 68 251 l 140 936 q 214 975 143 975 l 256 975 q 324 936 326 975 l 254 288 q 283 185 247 225 q 382 144 318 144 q 490 185 446 144 q 540 288 533 225 l 608 936 q 682 975 611 975 l 724 975 q 790 936 794 975 l 721 279 q 613 67 707 143 q 367 -10 519 -10 m 494 1033 q 452 1044 475 1033 q 429 1063 429 1054 q 441 1083 429 1072 q 467 1104 453 1093 q 507 1140 493 1125 q 521 1175 521 1156 q 507 1199 521 1190 q 474 1208 493 1208 q 434 1200 451 1208 q 413 1192 417 1192 q 390 1212 404 1192 q 375 1246 375 1232 q 412 1274 375 1260 q 485 1289 449 1289 q 589 1262 549 1289 q 629 1183 629 1235 q 602 1113 629 1147 q 542 1056 575 1078 q 494 1033 508 1033 z "},"Ư":{"ha":810,"x_min":68,"x_max":903,"o":"m 903 1049 q 874 965 903 997 q 789 924 846 933 l 721 279 q 613 67 707 143 q 367 -10 519 -10 q 146 56 224 -10 q 68 239 68 121 q 71 279 68 251 l 140 936 q 214 975 143 975 l 256 975 q 324 936 326 975 l 254 288 q 283 185 247 225 q 382 144 318 144 q 490 185 446 144 q 540 288 533 225 l 608 936 q 682 975 611 975 l 743 975 q 788 988 772 975 q 803 1021 803 1001 q 797 1048 803 1036 q 778 1076 790 1060 q 764 1101 764 1096 q 779 1125 764 1118 l 819 1153 q 839 1160 826 1160 q 883 1122 864 1160 q 903 1049 903 1083 z "},"Ứ":{"ha":810,"x_min":68,"x_max":903,"o":"m 436 1050 q 408 1054 415 1050 q 400 1068 400 1058 q 409 1095 400 1075 q 428 1136 418 1115 q 444 1167 439 1157 l 475 1228 q 572 1264 492 1264 q 625 1260 608 1264 q 642 1246 642 1256 q 635 1226 642 1238 q 597 1176 628 1214 l 525 1081 q 494 1058 514 1065 q 436 1050 475 1050 m 903 1049 q 874 965 903 997 q 789 924 846 933 l 721 279 q 613 67 707 143 q 367 -10 519 -10 q 146 56 224 -10 q 68 239 68 121 q 71 279 68 251 l 140 936 q 214 975 143 975 l 256 975 q 324 936 326 975 l 254 288 q 283 185 247 225 q 382 144 318 144 q 490 185 446 144 q 540 288 533 225 l 608 936 q 682 975 611 975 l 743 975 q 788 988 772 975 q 803 1021 803 1001 q 797 1048 803 1036 q 778 1076 790 1060 q 764 1101 764 1096 q 779 1125 764 1118 l 819 1153 q 839 1160 826 1160 q 883 1122 864 1160 q 903 1049 903 1083 z "},"Ự":{"ha":810,"x_min":68,"x_max":903,"o":"m 903 1049 q 874 965 903 997 q 789 924 846 933 l 721 279 q 613 67 707 143 q 367 -10 519 -10 q 146 56 224 -10 q 68 239 68 121 q 71 279 68 251 l 140 936 q 214 975 143 975 l 256 975 q 324 936 326 975 l 254 288 q 283 185 247 225 q 382 144 318 144 q 490 185 446 144 q 540 288 533 225 l 608 936 q 682 975 611 975 l 743 975 q 788 988 772 975 q 803 1021 803 1001 q 797 1048 803 1036 q 778 1076 790 1060 q 764 1101 764 1096 q 779 1125 764 1118 l 819 1153 q 839 1160 826 1160 q 883 1122 864 1160 q 903 1049 903 1083 m 356 -111 q 436 -150 440 -111 l 428 -229 q 340 -268 424 -268 q 278 -258 297 -268 q 261 -229 258 -249 l 269 -150 q 356 -111 274 -111 z "},"Ừ":{"ha":810,"x_min":68,"x_max":903,"o":"m 506 1050 q 448 1058 467 1050 q 419 1081 429 1067 l 369 1144 q 310 1222 319 1207 q 300 1246 300 1236 q 317 1260 300 1256 q 369 1264 333 1264 q 469 1228 449 1264 q 523 1117 504 1157 q 542 1068 542 1078 q 535 1053 542 1057 q 506 1050 528 1050 m 903 1049 q 874 965 903 997 q 789 924 846 933 l 721 279 q 613 67 707 143 q 367 -10 519 -10 q 146 56 224 -10 q 68 239 68 121 q 71 279 68 251 l 140 936 q 214 975 143 975 l 256 975 q 324 936 326 975 l 254 288 q 283 185 247 225 q 382 144 318 144 q 490 185 446 144 q 540 288 533 225 l 608 936 q 682 975 611 975 l 743 975 q 788 988 772 975 q 803 1021 803 1001 q 797 1048 803 1036 q 778 1076 790 1060 q 764 1101 764 1096 q 779 1125 764 1118 l 819 1153 q 839 1160 826 1160 q 883 1122 864 1160 q 903 1049 903 1083 z "},"Ử":{"ha":810,"x_min":68,"x_max":903,"o":"m 413 1192 q 390 1212 404 1192 q 375 1246 375 1232 q 412 1274 375 1260 q 485 1289 449 1289 q 589 1262 549 1289 q 629 1183 629 1235 q 602 1113 629 1147 q 542 1056 575 1078 q 494 1033 508 1033 q 452 1044 475 1033 q 429 1063 429 1054 q 441 1083 429 1072 q 467 1104 453 1093 q 507 1140 493 1125 q 521 1175 521 1156 q 507 1199 521 1190 q 474 1208 493 1208 q 434 1200 451 1208 q 413 1192 417 1192 m 903 1049 q 874 965 903 997 q 789 924 846 933 l 721 279 q 613 67 707 143 q 367 -10 519 -10 q 146 56 224 -10 q 68 239 68 121 q 71 279 68 251 l 140 936 q 214 975 143 975 l 256 975 q 324 936 326 975 l 254 288 q 283 185 247 225 q 382 144 318 144 q 490 185 446 144 q 540 288 533 225 l 608 936 q 682 975 611 975 l 743 975 q 788 988 772 975 q 803 1021 803 1001 q 797 1048 803 1036 q 778 1076 790 1060 q 764 1101 764 1096 q 779 1125 764 1118 l 819 1153 q 839 1160 826 1160 q 883 1122 864 1160 q 903 1049 903 1083 z "},"Ữ":{"ha":810,"x_min":68,"x_max":903,"o":"m 281 1063 q 256 1092 256 1069 q 260 1113 256 1099 q 308 1183 276 1157 q 382 1208 339 1208 q 474 1183 410 1208 q 549 1163 525 1163 q 569 1167 560 1163 q 590 1189 579 1172 q 624 1211 604 1211 q 642 1208 628 1211 l 654 1204 q 681 1175 681 1194 q 678 1164 681 1169 q 676 1156 676 1158 q 627 1084 658 1110 q 554 1058 596 1058 q 461 1083 525 1058 q 386 1104 407 1104 q 346 1076 364 1104 q 329 1060 336 1065 q 313 1054 322 1054 q 294 1057 306 1054 l 281 1063 m 903 1049 q 874 965 903 997 q 789 924 846 933 l 721 279 q 613 67 707 143 q 367 -10 519 -10 q 146 56 224 -10 q 68 239 68 121 q 71 279 68 251 l 140 936 q 214 975 143 975 l 256 975 q 324 936 326 975 l 254 288 q 283 185 247 225 q 382 144 318 144 q 490 185 446 144 q 540 288 533 225 l 608 936 q 682 975 611 975 l 743 975 q 788 988 772 975 q 803 1021 803 1001 q 797 1048 803 1036 q 778 1076 790 1060 q 764 1101 764 1096 q 779 1125 764 1118 l 819 1153 q 839 1160 826 1160 q 883 1122 864 1160 q 903 1049 903 1083 z "},"Ű":{"ha":810,"x_min":68,"x_max":790,"o":"m 367 -10 q 146 56 224 -10 q 68 239 68 121 q 71 279 68 251 l 140 936 q 214 975 143 975 l 256 975 q 324 936 326 975 l 254 288 q 283 185 247 225 q 382 144 318 144 q 490 185 446 144 q 540 288 533 225 l 608 936 q 682 975 611 975 l 724 975 q 790 936 794 975 l 721 279 q 613 67 707 143 q 367 -10 519 -10 m 350 1050 q 321 1053 328 1050 q 314 1068 314 1057 q 338 1124 314 1078 q 388 1228 346 1140 q 486 1264 404 1264 q 538 1260 522 1264 q 554 1246 554 1256 q 546 1223 554 1236 q 501 1164 538 1210 l 439 1081 q 407 1058 426 1065 q 350 1050 388 1050 m 560 1050 q 531 1054 539 1050 q 524 1068 524 1058 q 534 1096 524 1075 q 549 1126 544 1117 q 599 1228 571 1167 q 696 1264 615 1264 q 749 1260 732 1264 q 765 1246 765 1256 q 756 1222 765 1236 q 696 1143 746 1207 q 649 1081 685 1126 q 619 1058 638 1065 q 560 1050 600 1050 z "},"Ū":{"ha":810,"x_min":68,"x_max":790,"o":"m 367 -10 q 146 56 224 -10 q 68 239 68 121 q 71 279 68 251 l 140 936 q 214 975 143 975 l 256 975 q 324 936 326 975 l 254 288 q 283 185 247 225 q 382 144 318 144 q 490 185 446 144 q 540 288 533 225 l 608 936 q 682 975 611 975 l 724 975 q 790 936 794 975 l 721 279 q 613 67 707 143 q 367 -10 519 -10 m 346 1082 q 321 1094 328 1082 q 317 1133 314 1106 l 318 1151 q 358 1201 324 1201 l 628 1201 q 654 1190 647 1201 q 658 1151 661 1178 l 656 1133 q 644 1094 653 1106 q 615 1082 635 1082 l 346 1082 z "},"Ų":{"ha":810,"x_min":68,"x_max":794,"o":"m 724 975 q 790 936 794 975 l 721 279 q 672 132 713 194 q 564 33 632 69 q 536 -72 536 -21 q 556 -119 536 -107 q 604 -132 575 -132 q 627 -128 615 -132 q 646 -125 639 -125 q 673 -134 664 -125 q 682 -164 682 -143 q 661 -204 682 -193 q 578 -225 624 -225 q 473 -184 500 -225 q 446 -97 446 -143 q 467 0 446 -51 q 367 -10 424 -10 q 146 56 224 -10 q 68 239 68 121 q 71 279 68 251 l 140 936 q 214 975 143 975 l 256 975 q 324 936 326 975 l 254 288 q 283 185 247 225 q 382 144 318 144 q 490 185 446 144 q 540 288 533 225 l 608 936 q 682 975 611 975 l 724 975 z "},"Ů":{"ha":810,"x_min":68,"x_max":790,"o":"m 367 -10 q 146 56 224 -10 q 68 239 68 121 q 71 279 68 251 l 140 936 q 214 975 143 975 l 256 975 q 324 936 326 975 l 254 288 q 283 185 247 225 q 382 144 318 144 q 490 185 446 144 q 540 288 533 225 l 608 936 q 682 975 611 975 l 724 975 q 790 936 794 975 l 721 279 q 613 67 707 143 q 367 -10 519 -10 m 474 1017 q 388 1047 419 1017 q 357 1129 357 1078 q 397 1236 357 1194 q 501 1278 438 1278 q 588 1246 557 1278 q 619 1163 619 1214 q 578 1058 619 1099 q 474 1017 538 1017 m 482 1089 q 527 1107 510 1089 q 544 1156 544 1125 q 494 1204 544 1204 q 449 1186 465 1204 q 432 1136 432 1168 q 482 1089 432 1089 z "},"Ũ":{"ha":810,"x_min":68,"x_max":790,"o":"m 367 -10 q 146 56 224 -10 q 68 239 68 121 q 71 279 68 251 l 140 936 q 214 975 143 975 l 256 975 q 324 936 326 975 l 254 288 q 283 185 247 225 q 382 144 318 144 q 490 185 446 144 q 540 288 533 225 l 608 936 q 682 975 611 975 l 724 975 q 790 936 794 975 l 721 279 q 613 67 707 143 q 367 -10 519 -10 m 281 1063 q 256 1092 256 1069 q 260 1113 256 1099 q 308 1183 276 1157 q 382 1208 339 1208 q 474 1183 410 1208 q 549 1163 526 1163 q 569 1167 560 1163 q 590 1189 579 1172 q 624 1211 604 1211 q 642 1208 628 1211 l 654 1204 q 681 1175 681 1194 q 678 1164 681 1169 q 676 1156 676 1158 q 627 1084 658 1110 q 554 1058 596 1058 q 461 1083 525 1058 q 386 1104 407 1104 q 346 1076 364 1104 q 329 1060 336 1065 q 313 1054 322 1054 q 294 1057 306 1054 l 281 1063 z "},"V":{"ha":706,"x_min":74,"x_max":754,"o":"m 275 -3 q 213 24 217 -3 l 78 925 q 76 935 78 929 q 75 947 74 942 q 95 967 76 960 q 150 975 114 975 l 190 975 q 254 942 250 975 l 328 274 l 331 186 l 335 186 l 357 274 l 574 942 q 644 975 585 975 l 683 975 q 751 947 754 975 l 744 924 l 425 24 q 356 -3 415 -3 l 275 -3 z "},"W":{"ha":1044,"x_min":76,"x_max":1092,"o":"m 239 -3 q 178 24 179 -3 l 76 924 l 76 928 l 78 943 q 153 975 82 975 l 185 975 q 258 939 257 975 l 286 369 q 289 243 289 328 q 290 181 290 222 q 314 272 307 242 q 340 371 333 339 l 499 947 q 519 969 503 963 q 565 975 535 975 l 610 975 q 656 969 640 975 q 672 947 671 963 l 718 369 q 725 178 722 317 l 756 299 l 774 369 l 914 939 q 993 975 922 975 l 1019 975 q 1089 943 1092 975 q 1088 934 1089 940 q 1085 924 1088 928 l 813 24 q 744 -3 804 -3 l 679 -3 q 638 4 654 -3 q 621 24 622 11 l 567 549 l 564 711 l 525 549 l 369 24 q 347 4 365 11 q 303 -3 329 -3 l 239 -3 z "},"Ẃ":{"ha":1044,"x_min":76,"x_max":1089,"o":"m 239 -3 q 178 24 179 -3 l 76 924 l 76 928 l 78 943 q 153 975 82 975 l 185 975 q 258 939 257 975 l 286 369 q 289 243 289 328 q 290 181 290 222 q 314 272 307 242 q 340 371 333 339 l 499 947 q 519 969 503 963 q 565 975 535 975 l 610 975 q 656 969 640 975 q 672 947 671 963 l 718 369 q 725 178 722 317 l 756 299 l 774 369 l 914 939 q 993 975 922 975 l 1019 975 q 1089 943 1092 975 q 1088 934 1089 940 q 1085 924 1088 928 l 813 24 q 744 -3 804 -3 l 679 -3 q 638 4 654 -3 q 621 24 622 11 l 567 549 l 564 711 l 525 549 l 369 24 q 347 4 365 11 q 303 -3 329 -3 l 239 -3 m 551 1050 q 523 1054 531 1050 q 515 1068 515 1058 q 524 1095 515 1075 q 544 1136 533 1115 q 560 1167 554 1157 l 590 1228 q 688 1264 607 1264 q 740 1260 724 1264 q 757 1246 757 1256 q 750 1226 757 1238 q 713 1176 743 1214 l 640 1081 q 610 1058 629 1065 q 551 1050 590 1050 z "},"Ŵ":{"ha":1044,"x_min":76,"x_max":1089,"o":"m 239 -3 q 178 24 179 -3 l 76 924 l 76 928 l 78 943 q 153 975 82 975 l 185 975 q 258 939 257 975 l 286 369 q 289 243 289 328 q 290 181 290 222 q 314 272 307 242 q 340 371 333 339 l 499 947 q 519 969 503 963 q 565 975 535 975 l 610 975 q 656 969 640 975 q 672 947 671 963 l 718 369 q 725 178 722 317 l 756 299 l 774 369 l 914 939 q 993 975 922 975 l 1019 975 q 1089 943 1092 975 q 1088 934 1089 940 q 1085 924 1088 928 l 813 24 q 744 -3 804 -3 l 679 -3 q 638 4 654 -3 q 621 24 622 11 l 567 549 l 564 711 l 525 549 l 369 24 q 347 4 365 11 q 303 -3 329 -3 l 239 -3 m 454 1042 q 433 1047 440 1042 q 428 1058 426 1051 q 433 1069 428 1061 q 439 1082 438 1078 l 532 1215 q 562 1237 544 1231 q 607 1243 579 1243 l 617 1243 q 660 1237 643 1243 q 685 1215 676 1231 l 750 1082 q 758 1058 758 1069 q 749 1047 757 1051 q 729 1042 742 1042 l 693 1042 q 639 1065 649 1042 l 600 1143 l 547 1067 q 488 1042 531 1042 l 454 1042 z "},"Ẅ":{"ha":1044,"x_min":76,"x_max":1089,"o":"m 239 -3 q 178 24 179 -3 l 76 924 l 76 928 l 78 943 q 153 975 82 975 l 185 975 q 258 939 257 975 l 286 369 q 289 243 289 328 q 290 181 290 222 q 314 272 307 242 q 340 371 333 339 l 499 947 q 519 969 503 963 q 565 975 535 975 l 610 975 q 656 969 640 975 q 672 947 671 963 l 718 369 q 725 178 722 317 l 756 299 l 774 369 l 914 939 q 993 975 922 975 l 1019 975 q 1089 943 1092 975 q 1088 934 1089 940 q 1085 924 1088 928 l 813 24 q 744 -3 804 -3 l 679 -3 q 638 4 654 -3 q 621 24 622 11 l 567 549 l 564 711 l 525 549 l 369 24 q 347 4 365 11 q 303 -3 329 -3 l 239 -3 m 492 1064 q 439 1074 454 1064 q 426 1103 424 1083 l 433 1182 q 507 1221 438 1221 q 574 1182 578 1221 l 567 1103 q 492 1064 560 1064 m 699 1064 q 646 1074 661 1064 q 633 1103 631 1083 l 640 1182 q 714 1221 644 1221 q 781 1182 785 1221 l 774 1103 q 699 1064 767 1064 z "},"Ẁ":{"ha":1044,"x_min":76,"x_max":1089,"o":"m 239 -3 q 178 24 179 -3 l 76 924 l 76 928 l 78 943 q 153 975 82 975 l 185 975 q 258 939 257 975 l 286 369 q 289 243 289 328 q 290 181 290 222 q 314 272 307 242 q 340 371 333 339 l 499 947 q 519 969 503 963 q 565 975 535 975 l 610 975 q 656 969 640 975 q 672 947 671 963 l 718 369 q 725 178 722 317 l 756 299 l 774 369 l 914 939 q 993 975 922 975 l 1019 975 q 1089 943 1092 975 q 1088 934 1089 940 q 1085 924 1088 928 l 813 24 q 744 -3 804 -3 l 679 -3 q 638 4 654 -3 q 621 24 622 11 l 567 549 l 564 711 l 525 549 l 369 24 q 347 4 365 11 q 303 -3 329 -3 l 239 -3 m 621 1050 q 563 1058 582 1050 q 535 1081 544 1067 l 485 1144 q 425 1222 435 1207 q 415 1246 415 1236 q 432 1260 415 1256 q 485 1264 449 1264 q 585 1228 564 1264 q 638 1117 619 1157 q 657 1068 657 1078 q 650 1053 657 1057 q 621 1050 643 1050 z "},"X":{"ha":703,"x_min":-21,"x_max":740,"o":"m 53 -3 q -18 22 -21 -3 q -4 54 -17 32 l 260 508 l 114 918 q 104 950 104 940 q 182 975 107 975 l 233 975 q 297 950 292 975 l 382 619 l 546 950 q 569 970 553 965 q 617 975 586 975 l 665 975 q 736 950 740 975 q 724 918 736 943 l 479 506 l 640 54 q 645 40 642 50 q 647 22 649 29 q 572 -3 644 -3 l 524 -3 q 458 22 465 -3 l 358 386 l 171 22 q 147 1 164 6 q 100 -3 131 -3 l 53 -3 z "},"Y":{"ha":672,"x_min":71,"x_max":724,"o":"m 276 -3 q 210 36 206 -3 l 251 426 l 81 918 q 72 949 71 940 q 147 975 75 975 l 200 975 q 246 969 229 975 q 265 950 263 964 l 354 560 l 533 951 q 604 975 546 975 l 650 975 q 721 949 724 975 q 708 918 721 940 l 435 422 l 393 36 q 318 -3 389 -3 l 276 -3 z "},"Ý":{"ha":672,"x_min":72,"x_max":721,"o":"m 276 -3 q 210 36 206 -3 l 251 426 l 81 918 q 72 949 71 940 q 147 975 75 975 l 200 975 q 246 969 229 975 q 265 950 263 964 l 354 560 l 533 951 q 604 975 546 975 l 650 975 q 721 949 724 975 q 708 918 721 940 l 435 422 l 393 36 q 318 -3 389 -3 l 276 -3 m 367 1050 q 338 1054 346 1050 q 331 1068 331 1058 q 340 1095 331 1075 q 359 1136 349 1115 q 375 1167 369 1157 l 406 1228 q 503 1264 422 1264 q 556 1260 539 1264 q 572 1246 572 1256 q 565 1226 572 1238 q 528 1176 558 1214 l 456 1081 q 425 1058 444 1065 q 367 1050 406 1050 z "},"Ŷ":{"ha":672,"x_min":72,"x_max":721,"o":"m 276 -3 q 210 36 206 -3 l 251 426 l 81 918 q 72 949 71 940 q 147 975 75 975 l 200 975 q 246 969 229 975 q 265 950 263 964 l 354 560 l 533 951 q 604 975 546 975 l 650 975 q 721 949 724 975 q 708 918 721 940 l 435 422 l 393 36 q 318 -3 389 -3 l 276 -3 m 269 1042 q 249 1047 256 1042 q 243 1058 242 1051 q 248 1069 243 1061 q 254 1082 253 1078 l 347 1215 q 377 1237 360 1231 q 422 1243 394 1243 l 432 1243 q 475 1237 458 1243 q 500 1215 492 1231 l 565 1082 q 574 1058 574 1069 q 565 1047 572 1051 q 544 1042 557 1042 l 508 1042 q 454 1065 464 1042 l 415 1143 l 363 1067 q 303 1042 346 1042 l 269 1042 z "},"Ÿ":{"ha":672,"x_min":72,"x_max":721,"o":"m 276 -3 q 210 36 206 -3 l 251 426 l 81 918 q 72 949 71 940 q 147 975 75 975 l 200 975 q 246 969 229 975 q 265 950 263 964 l 354 560 l 533 951 q 604 975 546 975 l 650 975 q 721 949 724 975 q 708 918 721 940 l 435 422 l 393 36 q 318 -3 389 -3 l 276 -3 m 307 1064 q 254 1074 269 1064 q 242 1103 239 1083 l 249 1182 q 322 1221 253 1221 q 389 1182 393 1221 l 382 1103 q 307 1064 375 1064 m 514 1064 q 461 1074 476 1064 q 449 1103 446 1083 l 456 1182 q 529 1221 460 1221 q 596 1182 600 1221 l 589 1103 q 514 1064 582 1064 z "},"Ỵ":{"ha":672,"x_min":72,"x_max":721,"o":"m 276 -3 q 210 36 206 -3 l 251 426 l 81 918 q 72 949 71 940 q 147 975 75 975 l 200 975 q 246 969 229 975 q 265 950 263 964 l 354 560 l 533 951 q 604 975 546 975 l 650 975 q 721 949 724 975 q 708 918 721 940 l 435 422 l 393 36 q 318 -3 389 -3 l 276 -3 m 271 -268 q 208 -258 228 -268 q 192 -229 189 -249 l 200 -150 q 286 -111 204 -111 q 367 -150 371 -111 l 358 -229 q 271 -268 354 -268 z "},"Ỳ":{"ha":672,"x_min":72,"x_max":721,"o":"m 276 -3 q 210 36 206 -3 l 251 426 l 81 918 q 72 949 71 940 q 147 975 75 975 l 200 975 q 246 969 229 975 q 265 950 263 964 l 354 560 l 533 951 q 604 975 546 975 l 650 975 q 721 949 724 975 q 708 918 721 940 l 435 422 l 393 36 q 318 -3 389 -3 l 276 -3 m 436 1050 q 378 1058 397 1050 q 350 1081 360 1067 l 300 1144 q 240 1222 250 1207 q 231 1246 231 1236 q 247 1260 231 1256 q 300 1264 264 1264 q 400 1228 379 1264 q 453 1117 435 1157 q 472 1068 472 1078 q 465 1053 472 1057 q 436 1050 458 1050 z "},"Ỷ":{"ha":672,"x_min":72,"x_max":721,"o":"m 276 -3 q 210 36 206 -3 l 251 426 l 81 918 q 72 949 71 940 q 147 975 75 975 l 200 975 q 246 969 229 975 q 265 950 263 964 l 354 560 l 533 951 q 604 975 546 975 l 650 975 q 721 949 724 975 q 708 918 721 940 l 435 422 l 393 36 q 318 -3 389 -3 l 276 -3 m 425 1033 q 383 1044 406 1033 q 360 1063 360 1054 q 372 1083 360 1072 q 397 1104 383 1093 q 438 1140 424 1125 q 451 1175 451 1156 q 438 1199 451 1190 q 404 1208 424 1208 q 365 1200 382 1208 q 343 1192 347 1192 q 320 1212 335 1192 q 306 1246 306 1232 q 342 1274 306 1260 q 415 1289 379 1289 q 519 1262 479 1289 q 560 1183 560 1235 q 533 1113 560 1147 q 472 1056 506 1078 q 425 1033 439 1033 z "},"Ỹ":{"ha":672,"x_min":72,"x_max":721,"o":"m 276 -3 q 210 36 206 -3 l 251 426 l 81 918 q 72 949 71 940 q 147 975 75 975 l 200 975 q 246 969 229 975 q 265 950 263 964 l 354 560 l 533 951 q 604 975 546 975 l 650 975 q 721 949 724 975 q 708 918 721 940 l 435 422 l 393 36 q 318 -3 389 -3 l 276 -3 m 211 1063 q 186 1092 186 1069 q 190 1113 186 1099 q 238 1183 207 1157 q 313 1208 269 1208 q 404 1183 340 1208 q 479 1163 457 1163 q 500 1167 490 1163 q 521 1189 510 1172 q 554 1211 535 1211 q 572 1208 558 1211 l 585 1204 q 611 1175 611 1194 q 609 1164 611 1169 q 607 1156 607 1158 q 558 1084 589 1110 q 485 1058 526 1058 q 392 1083 456 1058 q 317 1104 338 1104 q 276 1076 294 1104 q 260 1060 267 1065 q 243 1054 253 1054 q 225 1057 236 1054 l 211 1063 z "},"Z":{"ha":704,"x_min":7,"x_max":710,"o":"m 44 0 q 18 38 29 0 q 10 106 7 76 q 14 121 10 115 l 474 818 l 151 818 q 129 828 136 818 q 122 858 122 838 q 124 879 122 871 l 128 911 q 140 958 131 943 q 168 972 150 972 l 675 972 q 700 932 690 972 q 707 864 710 892 q 706 851 707 854 l 249 154 l 599 154 q 629 113 629 154 l 628 93 l 625 61 q 583 0 619 0 l 44 0 z "},"Ź":{"ha":704,"x_min":10,"x_max":707,"o":"m 44 0 q 18 38 29 0 q 10 106 7 76 q 14 121 10 115 l 474 818 l 151 818 q 129 828 136 818 q 122 858 122 838 q 124 879 122 871 l 128 911 q 140 958 131 943 q 168 972 150 972 l 675 972 q 700 932 690 972 q 707 864 710 892 q 706 851 707 854 l 249 154 l 599 154 q 629 113 629 154 l 628 93 l 625 61 q 583 0 619 0 l 44 0 m 386 1050 q 358 1054 365 1050 q 350 1068 350 1058 q 359 1095 350 1075 q 378 1136 368 1115 q 394 1167 389 1157 l 425 1228 q 522 1264 442 1264 q 575 1260 558 1264 q 592 1246 592 1256 q 585 1226 592 1238 q 547 1176 578 1214 l 475 1081 q 444 1058 464 1065 q 386 1050 425 1050 z "},"Ž":{"ha":704,"x_min":10,"x_max":707,"o":"m 44 0 q 18 38 29 0 q 10 106 7 76 q 14 121 10 115 l 474 818 l 151 818 q 129 828 136 818 q 122 858 122 838 q 124 879 122 871 l 128 911 q 140 958 131 943 q 168 972 150 972 l 675 972 q 700 932 690 972 q 707 864 710 892 q 706 851 707 854 l 249 154 l 599 154 q 629 113 629 154 l 628 93 l 625 61 q 583 0 619 0 l 44 0 m 421 1046 q 378 1052 394 1046 q 354 1074 363 1058 l 289 1207 q 282 1231 282 1221 q 311 1247 285 1247 l 346 1247 q 400 1222 386 1247 l 438 1146 l 490 1224 q 551 1247 506 1247 l 586 1247 q 606 1242 599 1247 q 611 1231 613 1238 q 600 1207 611 1224 l 506 1074 q 476 1052 493 1058 q 433 1046 460 1046 l 421 1046 z "},"Ż":{"ha":704,"x_min":10,"x_max":707,"o":"m 44 0 q 18 38 29 0 q 10 106 7 76 q 14 121 10 115 l 474 818 l 151 818 q 129 828 136 818 q 122 858 122 838 q 124 879 122 871 l 128 911 q 140 958 131 943 q 168 972 150 972 l 675 972 q 700 932 690 972 q 707 864 710 892 q 706 851 707 854 l 249 154 l 599 154 q 629 113 629 154 l 628 93 l 625 61 q 583 0 619 0 l 44 0 m 429 1064 q 367 1074 386 1064 q 350 1103 347 1083 l 358 1182 q 444 1221 363 1221 q 525 1182 529 1221 l 517 1103 q 429 1064 513 1064 z "},"Ẓ":{"ha":704,"x_min":10,"x_max":707,"o":"m 44 0 q 18 38 29 0 q 10 106 7 76 q 14 121 10 115 l 474 818 l 151 818 q 129 828 136 818 q 122 858 122 838 q 124 879 122 871 l 128 911 q 140 958 131 943 q 168 972 150 972 l 675 972 q 700 932 690 972 q 707 864 710 892 q 706 851 707 854 l 249 154 l 599 154 q 629 113 629 154 l 628 93 l 625 61 q 583 0 619 0 l 44 0 m 289 -268 q 226 -258 246 -268 q 210 -229 207 -249 l 218 -150 q 304 -111 222 -111 q 385 -150 389 -111 l 376 -229 q 289 -268 372 -268 z "},"a":{"ha":668,"x_min":46,"x_max":629,"o":"m 225 -11 q 89 71 132 -11 q 46 281 46 153 q 51 371 46 310 q 142 641 71 546 q 314 736 213 736 q 397 715 364 736 q 457 664 431 694 q 474 703 467 692 q 495 722 481 715 q 538 729 510 729 l 551 729 q 615 696 615 729 q 611 649 614 676 q 606 597 608 622 l 599 540 l 576 322 q 568 248 572 288 q 561 175 564 208 q 585 132 560 132 q 599 134 592 132 q 613 136 606 136 q 625 125 621 136 q 629 99 629 114 q 598 19 629 49 q 510 -10 567 -10 q 390 101 403 -10 q 225 -11 333 -11 m 292 132 q 351 162 324 132 q 394 247 378 192 l 418 472 q 432 558 424 518 q 399 585 417 575 q 356 596 381 596 q 269 542 300 596 q 226 371 239 488 q 221 281 221 310 q 292 132 221 132 z "},"á":{"ha":668,"x_min":46,"x_max":629,"o":"m 225 -11 q 89 71 132 -11 q 46 281 46 153 q 51 371 46 310 q 142 641 71 546 q 314 736 213 736 q 397 715 364 736 q 457 664 431 694 q 474 703 467 692 q 495 722 481 715 q 538 729 510 729 l 551 729 q 615 696 615 729 q 611 649 614 676 q 606 597 608 622 l 599 540 l 576 322 q 568 248 572 288 q 561 175 564 208 q 585 132 560 132 q 599 134 592 132 q 613 136 606 136 q 625 125 621 136 q 629 99 629 114 q 598 19 629 49 q 510 -10 567 -10 q 390 101 403 -10 q 225 -11 333 -11 m 292 132 q 351 162 324 132 q 394 247 378 192 l 418 472 q 432 558 424 518 q 399 585 417 575 q 356 596 381 596 q 269 542 300 596 q 226 371 239 488 q 221 281 221 310 q 292 132 221 132 m 333 804 q 305 808 313 804 q 297 822 297 813 q 306 849 297 829 q 326 890 315 869 q 342 921 336 911 l 372 982 q 469 1018 389 1018 q 522 1014 506 1018 q 539 1000 539 1010 q 532 980 539 992 q 494 931 525 968 l 422 835 q 392 812 411 819 q 333 804 372 804 z "},"ă":{"ha":668,"x_min":46,"x_max":629,"o":"m 225 -11 q 89 71 132 -11 q 46 281 46 153 q 51 371 46 310 q 142 641 71 546 q 314 736 213 736 q 397 715 364 736 q 457 664 431 694 q 474 703 467 692 q 495 722 481 715 q 538 729 510 729 l 551 729 q 615 696 615 729 q 611 649 614 676 q 606 597 608 622 l 599 540 l 576 322 q 568 248 572 288 q 561 175 564 208 q 585 132 560 132 q 599 134 592 132 q 613 136 606 136 q 625 125 621 136 q 629 99 629 114 q 598 19 629 49 q 510 -10 567 -10 q 390 101 403 -10 q 225 -11 333 -11 m 292 132 q 351 162 324 132 q 394 247 378 192 l 418 472 q 432 558 424 518 q 399 585 417 575 q 356 596 381 596 q 269 542 300 596 q 226 371 239 488 q 221 281 221 310 q 292 132 221 132 m 375 804 q 252 848 294 804 q 217 956 210 892 q 265 993 221 993 q 288 986 281 993 q 299 964 294 979 q 326 930 307 942 q 388 918 344 918 q 453 931 433 918 q 486 967 474 944 q 503 987 494 981 q 525 993 511 993 q 565 956 569 993 q 508 848 558 892 q 375 804 457 804 z "},"ắ":{"ha":668,"x_min":46,"x_max":629,"o":"m 225 -11 q 89 71 132 -11 q 46 281 46 153 q 51 371 46 310 q 142 641 71 546 q 314 736 213 736 q 397 715 364 736 q 457 664 431 694 q 474 703 467 692 q 495 722 481 715 q 538 729 510 729 l 551 729 q 615 696 615 729 q 611 649 614 676 q 606 597 608 622 l 599 540 l 576 322 q 568 248 572 288 q 561 175 564 208 q 585 132 560 132 q 599 134 592 132 q 613 136 606 136 q 625 125 621 136 q 629 99 629 114 q 598 19 629 49 q 510 -10 567 -10 q 390 101 403 -10 q 225 -11 333 -11 m 292 132 q 351 162 324 132 q 394 247 378 192 l 418 472 q 432 558 424 518 q 399 585 417 575 q 356 596 381 596 q 269 542 300 596 q 226 371 239 488 q 221 281 221 310 q 292 132 221 132 m 375 804 q 252 848 294 804 q 217 956 210 892 q 265 993 221 993 q 288 986 281 993 q 299 964 294 979 q 326 930 307 942 q 388 918 344 918 q 453 931 433 918 q 486 967 474 944 q 503 987 494 981 q 525 993 511 993 q 565 956 569 993 q 508 848 558 892 q 375 804 457 804 m 357 1024 q 328 1028 336 1024 q 321 1042 321 1032 q 330 1069 321 1049 q 349 1110 339 1089 q 365 1140 360 1131 l 396 1201 q 493 1238 413 1238 q 546 1233 529 1238 q 563 1219 563 1229 q 556 1199 563 1211 q 518 1150 549 1188 l 446 1054 q 415 1031 435 1039 q 357 1024 396 1024 z "},"ặ":{"ha":668,"x_min":46,"x_max":629,"o":"m 225 -11 q 89 71 132 -11 q 46 281 46 153 q 51 371 46 310 q 142 641 71 546 q 314 736 213 736 q 397 715 364 736 q 457 664 431 694 q 474 703 467 692 q 495 722 481 715 q 538 729 510 729 l 551 729 q 615 696 615 729 q 611 649 614 676 q 606 597 608 622 l 599 540 l 576 322 q 568 248 572 288 q 561 175 564 208 q 585 132 560 132 q 599 134 592 132 q 613 136 606 136 q 625 125 621 136 q 629 99 629 114 q 598 19 629 49 q 510 -10 567 -10 q 390 101 403 -10 q 225 -11 333 -11 m 292 132 q 351 162 324 132 q 394 247 378 192 l 418 472 q 432 558 424 518 q 399 585 417 575 q 356 596 381 596 q 269 542 300 596 q 226 371 239 488 q 221 281 221 310 q 292 132 221 132 m 285 -268 q 222 -258 242 -268 q 206 -229 203 -249 l 214 -150 q 300 -111 218 -111 q 381 -150 385 -111 l 372 -229 q 285 -268 368 -268 m 375 804 q 252 848 294 804 q 217 956 210 892 q 265 993 221 993 q 288 986 281 993 q 299 964 294 979 q 326 930 307 942 q 388 918 344 918 q 453 931 433 918 q 486 967 474 944 q 503 987 494 981 q 525 993 511 993 q 565 956 569 993 q 508 848 558 892 q 375 804 457 804 z "},"ằ":{"ha":668,"x_min":46,"x_max":629,"o":"m 225 -11 q 89 71 132 -11 q 46 281 46 153 q 51 371 46 310 q 142 641 71 546 q 314 736 213 736 q 397 715 364 736 q 457 664 431 694 q 474 703 467 692 q 495 722 481 715 q 538 729 510 729 l 551 729 q 615 696 615 729 q 611 649 614 676 q 606 597 608 622 l 599 540 l 576 322 q 568 248 572 288 q 561 175 564 208 q 585 132 560 132 q 599 134 592 132 q 613 136 606 136 q 625 125 621 136 q 629 99 629 114 q 598 19 629 49 q 510 -10 567 -10 q 390 101 403 -10 q 225 -11 333 -11 m 292 132 q 351 162 324 132 q 394 247 378 192 l 418 472 q 432 558 424 518 q 399 585 417 575 q 356 596 381 596 q 269 542 300 596 q 226 371 239 488 q 221 281 221 310 q 292 132 221 132 m 375 804 q 252 848 294 804 q 217 956 210 892 q 265 993 221 993 q 288 986 281 993 q 299 964 294 979 q 326 930 307 942 q 388 918 344 918 q 453 931 433 918 q 486 967 474 944 q 503 987 494 981 q 525 993 511 993 q 565 956 569 993 q 508 848 558 892 q 375 804 457 804 m 426 1024 q 369 1032 388 1024 q 340 1054 350 1040 l 290 1118 q 231 1195 240 1181 q 221 1219 221 1210 q 238 1233 221 1229 q 290 1238 254 1238 q 390 1201 369 1238 q 444 1091 425 1131 q 463 1042 463 1051 q 456 1027 463 1031 q 426 1024 449 1024 z "},"ẳ":{"ha":668,"x_min":46,"x_max":629,"o":"m 225 -11 q 89 71 132 -11 q 46 281 46 153 q 51 371 46 310 q 142 641 71 546 q 314 736 213 736 q 397 715 364 736 q 457 664 431 694 q 474 703 467 692 q 495 722 481 715 q 538 729 510 729 l 551 729 q 615 696 615 729 q 611 649 614 676 q 606 597 608 622 l 599 540 l 576 322 q 568 248 572 288 q 561 175 564 208 q 585 132 560 132 q 599 134 592 132 q 613 136 606 136 q 625 125 621 136 q 629 99 629 114 q 598 19 629 49 q 510 -10 567 -10 q 390 101 403 -10 q 225 -11 333 -11 m 292 132 q 351 162 324 132 q 394 247 378 192 l 418 472 q 432 558 424 518 q 399 585 417 575 q 356 596 381 596 q 269 542 300 596 q 226 371 239 488 q 221 281 221 310 q 292 132 221 132 m 375 804 q 252 848 294 804 q 217 956 210 892 q 265 993 221 993 q 288 986 281 993 q 299 964 294 979 q 326 930 307 942 q 388 918 344 918 q 453 931 433 918 q 486 967 474 944 q 503 987 494 981 q 525 993 511 993 q 565 956 569 993 q 508 848 558 892 q 375 804 457 804 m 415 1007 q 373 1017 396 1007 q 350 1036 350 1028 q 362 1056 350 1046 q 388 1078 374 1067 q 428 1114 414 1099 q 442 1149 442 1129 q 428 1173 442 1164 q 394 1182 414 1182 q 355 1174 372 1182 q 333 1165 338 1165 q 310 1185 325 1165 q 296 1219 296 1206 q 333 1248 296 1233 q 406 1263 369 1263 q 510 1235 469 1263 q 550 1157 550 1208 q 523 1086 550 1121 q 463 1029 496 1051 q 415 1007 429 1007 z "},"ẵ":{"ha":668,"x_min":46,"x_max":629,"o":"m 233 1060 q 210 1089 210 1067 q 214 1110 210 1096 q 324 1206 249 1206 q 408 1181 350 1206 q 476 1160 458 1160 q 494 1165 486 1160 q 514 1186 503 1169 q 546 1208 528 1208 q 561 1206 550 1208 l 572 1201 q 596 1172 596 1192 q 592 1153 596 1161 q 548 1082 576 1108 q 482 1056 519 1056 q 397 1081 456 1056 q 329 1101 347 1101 q 310 1096 318 1101 q 292 1074 301 1090 q 263 1051 276 1051 q 246 1054 257 1051 l 233 1060 m 375 804 q 252 848 294 804 q 217 956 210 892 q 265 993 221 993 q 288 986 281 993 q 299 964 294 979 q 326 930 307 942 q 388 918 344 918 q 453 931 433 918 q 486 967 474 944 q 503 987 494 981 q 525 993 511 993 q 565 956 569 993 q 508 848 558 892 q 375 804 457 804 m 225 -11 q 89 71 132 -11 q 46 281 46 153 q 51 371 46 310 q 142 641 71 546 q 314 736 213 736 q 397 715 364 736 q 457 664 431 694 q 474 703 467 692 q 495 722 481 715 q 538 729 510 729 l 551 729 q 615 696 615 729 q 611 649 614 676 q 606 597 608 622 l 599 540 l 576 322 q 568 248 572 288 q 561 175 564 208 q 585 132 560 132 q 599 134 592 132 q 613 136 606 136 q 625 125 621 136 q 629 99 629 114 q 598 19 629 49 q 510 -10 567 -10 q 390 101 403 -10 q 225 -11 333 -11 m 292 132 q 351 162 324 132 q 394 247 378 192 l 418 472 q 432 558 424 518 q 399 585 417 575 q 356 596 381 596 q 269 542 300 596 q 226 371 239 488 q 221 281 221 310 q 292 132 221 132 z "},"â":{"ha":668,"x_min":46,"x_max":629,"o":"m 225 -11 q 89 71 132 -11 q 46 281 46 153 q 51 371 46 310 q 142 641 71 546 q 314 736 213 736 q 397 715 364 736 q 457 664 431 694 q 474 703 467 692 q 495 722 481 715 q 538 729 510 729 l 551 729 q 615 696 615 729 q 611 649 614 676 q 606 597 608 622 l 599 540 l 576 322 q 568 248 572 288 q 561 175 564 208 q 585 132 560 132 q 599 134 592 132 q 613 136 606 136 q 625 125 621 136 q 629 99 629 114 q 598 19 629 49 q 510 -10 567 -10 q 390 101 403 -10 q 225 -11 333 -11 m 292 132 q 351 162 324 132 q 394 247 378 192 l 418 472 q 432 558 424 518 q 399 585 417 575 q 356 596 381 596 q 269 542 300 596 q 226 371 239 488 q 221 281 221 310 q 292 132 221 132 m 236 796 q 215 801 222 796 q 210 813 208 806 q 215 824 210 815 q 221 836 219 832 l 314 969 q 344 991 326 985 q 389 997 361 997 l 399 997 q 442 991 425 997 q 467 969 458 985 l 532 836 q 540 813 540 824 q 531 801 539 806 q 511 796 524 796 l 475 796 q 421 819 431 796 l 382 897 l 329 821 q 269 796 313 796 l 236 796 z "},"ấ":{"ha":668,"x_min":46,"x_max":724,"o":"m 518 992 q 490 996 497 992 q 482 1010 482 1000 q 491 1037 482 1017 q 510 1078 500 1057 q 526 1108 521 1099 l 557 1169 q 654 1206 574 1206 q 707 1201 690 1206 q 724 1188 724 1197 q 717 1167 724 1179 q 679 1118 710 1156 l 607 1022 q 576 999 596 1007 q 518 992 557 992 m 246 796 q 219 813 218 796 q 223 824 219 817 q 228 835 226 831 l 317 969 q 345 992 328 986 q 390 997 363 997 l 401 997 q 444 992 428 997 q 468 969 460 986 l 526 835 q 533 813 533 825 q 524 801 532 806 q 504 796 517 796 l 469 796 q 414 819 425 796 l 385 897 l 339 819 q 315 801 329 806 q 279 796 300 796 l 246 796 m 225 -11 q 89 71 132 -11 q 46 281 46 153 q 51 371 46 310 q 142 641 71 546 q 314 736 213 736 q 397 715 364 736 q 457 664 431 694 q 474 703 467 692 q 495 722 481 715 q 538 729 510 729 l 551 729 q 615 696 615 729 q 611 649 614 676 q 606 597 608 622 l 599 540 l 576 322 q 568 248 572 288 q 561 175 564 208 q 585 132 560 132 q 599 134 592 132 q 613 136 606 136 q 625 125 621 136 q 629 99 629 114 q 598 19 629 49 q 510 -10 567 -10 q 390 101 403 -10 q 225 -11 333 -11 m 292 132 q 351 162 324 132 q 394 247 378 192 l 418 472 q 432 558 424 518 q 399 585 417 575 q 356 596 381 596 q 269 542 300 596 q 226 371 239 488 q 221 281 221 310 q 292 132 221 132 z "},"ậ":{"ha":668,"x_min":46,"x_max":629,"o":"m 225 -11 q 89 71 132 -11 q 46 281 46 153 q 51 371 46 310 q 142 641 71 546 q 314 736 213 736 q 397 715 364 736 q 457 664 431 694 q 474 703 467 692 q 495 722 481 715 q 538 729 510 729 l 551 729 q 615 696 615 729 q 611 649 614 676 q 606 597 608 622 l 599 540 l 576 322 q 568 248 572 288 q 561 175 564 208 q 585 132 560 132 q 599 134 592 132 q 613 136 606 136 q 625 125 621 136 q 629 99 629 114 q 598 19 629 49 q 510 -10 567 -10 q 390 101 403 -10 q 225 -11 333 -11 m 292 132 q 351 162 324 132 q 394 247 378 192 l 418 472 q 432 558 424 518 q 399 585 417 575 q 356 596 381 596 q 269 542 300 596 q 226 371 239 488 q 221 281 221 310 q 292 132 221 132 m 285 -268 q 222 -258 242 -268 q 206 -229 203 -249 l 214 -150 q 300 -111 218 -111 q 381 -150 385 -111 l 372 -229 q 285 -268 368 -268 m 236 796 q 215 801 222 796 q 210 813 208 806 q 215 824 210 815 q 221 836 219 832 l 314 969 q 344 991 326 985 q 389 997 361 997 l 399 997 q 442 991 425 997 q 467 969 458 985 l 532 836 q 540 813 540 824 q 531 801 539 806 q 511 796 524 796 l 475 796 q 421 819 431 796 l 382 897 l 329 821 q 269 796 313 796 l 236 796 z "},"ầ":{"ha":668,"x_min":46,"x_max":629,"o":"m 589 992 q 531 1000 550 992 q 503 1022 513 1008 l 453 1086 q 393 1163 403 1149 q 383 1188 383 1178 q 400 1201 383 1197 q 453 1206 417 1206 q 553 1169 532 1206 q 606 1059 588 1099 q 625 1010 625 1019 q 618 995 625 999 q 589 992 611 992 m 246 796 q 219 813 218 796 q 223 824 219 817 q 228 835 226 831 l 317 969 q 345 992 328 986 q 390 997 363 997 l 401 997 q 444 992 428 997 q 468 969 460 986 l 526 835 q 533 813 533 825 q 524 801 532 806 q 504 796 517 796 l 469 796 q 414 819 425 796 l 385 897 l 339 819 q 315 801 329 806 q 279 796 300 796 l 246 796 m 225 -11 q 89 71 132 -11 q 46 281 46 153 q 51 371 46 310 q 142 641 71 546 q 314 736 213 736 q 397 715 364 736 q 457 664 431 694 q 474 703 467 692 q 495 722 481 715 q 538 729 510 729 l 551 729 q 615 696 615 729 q 611 649 614 676 q 606 597 608 622 l 599 540 l 576 322 q 568 248 572 288 q 561 175 564 208 q 585 132 560 132 q 599 134 592 132 q 613 136 606 136 q 625 125 621 136 q 629 99 629 114 q 598 19 629 49 q 510 -10 567 -10 q 390 101 403 -10 q 225 -11 333 -11 m 292 132 q 351 162 324 132 q 394 247 378 192 l 418 472 q 432 558 424 518 q 399 585 417 575 q 356 596 381 596 q 269 542 300 596 q 226 371 239 488 q 221 281 221 310 q 292 132 221 132 z "},"ẩ":{"ha":668,"x_min":46,"x_max":711,"o":"m 576 975 q 534 985 557 975 q 511 1004 511 996 q 523 1024 511 1014 q 549 1046 535 1035 q 589 1082 575 1067 q 603 1117 603 1097 q 589 1141 603 1132 q 556 1150 575 1150 q 516 1142 533 1150 q 494 1133 499 1133 q 472 1153 486 1133 q 457 1188 457 1174 q 494 1216 457 1201 q 567 1231 531 1231 q 671 1203 631 1231 q 711 1125 711 1176 q 684 1054 711 1089 q 624 997 657 1019 q 576 975 590 975 m 246 796 q 219 813 218 796 q 223 824 219 817 q 228 835 226 831 l 317 969 q 345 992 328 986 q 390 997 363 997 l 401 997 q 444 992 428 997 q 468 969 460 986 l 526 835 q 533 813 533 825 q 524 801 532 806 q 504 796 517 796 l 469 796 q 414 819 425 796 l 385 897 l 339 819 q 315 801 329 806 q 279 796 300 796 l 246 796 m 225 -11 q 89 71 132 -11 q 46 281 46 153 q 51 371 46 310 q 142 641 71 546 q 314 736 213 736 q 397 715 364 736 q 457 664 431 694 q 474 703 467 692 q 495 722 481 715 q 538 729 510 729 l 551 729 q 615 696 615 729 q 611 649 614 676 q 606 597 608 622 l 599 540 l 576 322 q 568 248 572 288 q 561 175 564 208 q 585 132 560 132 q 599 134 592 132 q 613 136 606 136 q 625 125 621 136 q 629 99 629 114 q 598 19 629 49 q 510 -10 567 -10 q 390 101 403 -10 q 225 -11 333 -11 m 292 132 q 351 162 324 132 q 394 247 378 192 l 418 472 q 432 558 424 518 q 399 585 417 575 q 356 596 381 596 q 269 542 300 596 q 226 371 239 488 q 221 281 221 310 q 292 132 221 132 z "},"ẫ":{"ha":668,"x_min":46,"x_max":629,"o":"m 235 1057 q 211 1086 211 1064 q 215 1107 211 1093 q 325 1203 250 1203 q 410 1178 351 1203 q 478 1157 460 1157 q 496 1162 488 1157 q 515 1183 504 1167 q 547 1206 529 1206 q 563 1203 551 1206 l 574 1199 q 597 1169 597 1189 q 593 1150 597 1158 q 549 1079 578 1106 q 483 1053 521 1053 q 399 1078 457 1053 q 331 1099 349 1099 q 311 1093 319 1099 q 293 1071 303 1088 q 264 1049 278 1049 q 247 1051 258 1049 l 235 1057 m 236 796 q 215 801 222 796 q 210 813 208 806 q 215 824 210 815 q 221 836 219 832 l 314 969 q 344 991 325 985 q 389 997 363 997 l 399 997 q 442 991 425 997 q 467 969 458 985 l 532 836 q 540 813 540 824 q 531 801 539 806 q 511 796 524 796 l 475 796 q 421 819 431 796 l 382 897 l 329 821 q 269 796 313 796 l 236 796 m 225 -11 q 89 71 132 -11 q 46 281 46 153 q 51 371 46 310 q 142 641 71 546 q 314 736 213 736 q 397 715 364 736 q 457 664 431 694 q 474 703 467 692 q 495 722 481 715 q 538 729 510 729 l 551 729 q 615 696 615 729 q 611 649 614 676 q 606 597 608 622 l 599 540 l 576 322 q 568 248 572 288 q 561 175 564 208 q 585 132 560 132 q 599 134 592 132 q 613 136 606 136 q 625 125 621 136 q 629 99 629 114 q 598 19 629 49 q 510 -10 567 -10 q 390 101 403 -10 q 225 -11 333 -11 m 292 132 q 351 162 324 132 q 394 247 378 192 l 418 472 q 432 558 424 518 q 399 585 417 575 q 356 596 381 596 q 269 542 300 596 q 226 371 239 488 q 221 281 221 310 q 292 132 221 132 z "},"ä":{"ha":668,"x_min":46,"x_max":629,"o":"m 225 -11 q 89 71 132 -11 q 46 281 46 153 q 51 371 46 310 q 142 641 71 546 q 314 736 213 736 q 397 715 364 736 q 457 664 431 694 q 474 703 467 692 q 495 722 481 715 q 538 729 510 729 l 551 729 q 615 696 615 729 q 611 649 614 676 q 606 597 608 622 l 599 540 l 576 322 q 568 248 572 288 q 561 175 564 208 q 585 132 560 132 q 599 134 592 132 q 613 136 606 136 q 625 125 621 136 q 629 99 629 114 q 598 19 629 49 q 510 -10 567 -10 q 390 101 403 -10 q 225 -11 333 -11 m 292 132 q 351 162 324 132 q 394 247 378 192 l 418 472 q 432 558 424 518 q 399 585 417 575 q 356 596 381 596 q 269 542 300 596 q 226 371 239 488 q 221 281 221 310 q 292 132 221 132 m 274 818 q 221 828 236 818 q 208 857 206 838 l 215 936 q 289 975 219 975 q 356 936 360 975 l 349 857 q 274 818 342 818 m 481 818 q 428 828 443 818 q 415 857 413 838 l 422 936 q 496 975 426 975 q 563 936 567 975 l 556 857 q 481 818 549 818 z "},"ạ":{"ha":668,"x_min":46,"x_max":629,"o":"m 225 -11 q 89 71 132 -11 q 46 281 46 153 q 51 371 46 310 q 142 641 71 546 q 314 736 213 736 q 397 715 364 736 q 457 664 431 694 q 474 703 467 692 q 495 722 481 715 q 538 729 510 729 l 551 729 q 615 696 615 729 q 611 649 614 676 q 606 597 608 622 l 599 540 l 576 322 q 568 248 572 288 q 561 175 564 208 q 585 132 560 132 q 599 134 592 132 q 613 136 606 136 q 625 125 621 136 q 629 99 629 114 q 598 19 629 49 q 510 -10 567 -10 q 390 101 403 -10 q 225 -11 333 -11 m 292 132 q 351 162 324 132 q 394 247 378 192 l 418 472 q 432 558 424 518 q 399 585 417 575 q 356 596 381 596 q 269 542 300 596 q 226 371 239 488 q 221 281 221 310 q 292 132 221 132 m 285 -268 q 222 -258 242 -268 q 206 -229 203 -249 l 214 -150 q 300 -111 218 -111 q 381 -150 385 -111 l 372 -229 q 285 -268 368 -268 z "},"à":{"ha":668,"x_min":46,"x_max":629,"o":"m 225 -11 q 89 71 132 -11 q 46 281 46 153 q 51 371 46 310 q 142 641 71 546 q 314 736 213 736 q 397 715 364 736 q 457 664 431 694 q 474 703 467 692 q 495 722 481 715 q 538 729 510 729 l 551 729 q 615 696 615 729 q 611 649 614 676 q 606 597 608 622 l 599 540 l 576 322 q 568 248 572 288 q 561 175 564 208 q 585 132 560 132 q 599 134 592 132 q 613 136 606 136 q 625 125 621 136 q 629 99 629 114 q 598 19 629 49 q 510 -10 567 -10 q 390 101 403 -10 q 225 -11 333 -11 m 292 132 q 351 162 324 132 q 394 247 378 192 l 418 472 q 432 558 424 518 q 399 585 417 575 q 356 596 381 596 q 269 542 300 596 q 226 371 239 488 q 221 281 221 310 q 292 132 221 132 m 403 804 q 345 813 364 804 q 317 835 326 821 l 267 899 q 207 976 217 961 q 197 1000 197 990 q 214 1014 197 1010 q 267 1018 231 1018 q 367 982 346 1018 q 420 872 401 911 q 439 822 439 832 q 432 808 439 811 q 403 804 425 804 z "},"ả":{"ha":668,"x_min":46,"x_max":629,"o":"m 225 -11 q 89 71 132 -11 q 46 281 46 153 q 51 371 46 310 q 142 641 71 546 q 314 736 213 736 q 397 715 364 736 q 457 664 431 694 q 474 703 467 692 q 495 722 481 715 q 538 729 510 729 l 551 729 q 615 696 615 729 q 611 649 614 676 q 606 597 608 622 l 599 540 l 576 322 q 568 248 572 288 q 561 175 564 208 q 585 132 560 132 q 599 134 592 132 q 613 136 606 136 q 625 125 621 136 q 629 99 629 114 q 598 19 629 49 q 510 -10 567 -10 q 390 101 403 -10 q 225 -11 333 -11 m 292 132 q 351 162 324 132 q 394 247 378 192 l 418 472 q 432 558 424 518 q 399 585 417 575 q 356 596 381 596 q 269 542 300 596 q 226 371 239 488 q 221 281 221 310 q 292 132 221 132 m 392 788 q 349 798 372 788 q 326 817 326 808 q 338 837 326 826 q 364 858 350 847 q 404 894 390 879 q 418 929 418 910 q 404 953 418 944 q 371 963 390 963 q 331 954 349 963 q 310 946 314 946 q 287 966 301 946 q 272 1000 272 986 q 309 1028 272 1014 q 382 1043 346 1043 q 486 1016 446 1043 q 526 938 526 989 q 499 867 526 901 q 439 810 472 832 q 392 788 406 788 z "},"ā":{"ha":668,"x_min":46,"x_max":629,"o":"m 225 -11 q 89 71 132 -11 q 46 281 46 153 q 51 371 46 310 q 142 641 71 546 q 314 736 213 736 q 397 715 364 736 q 457 664 431 694 q 474 703 467 692 q 495 722 481 715 q 538 729 510 729 l 551 729 q 615 696 615 729 q 611 649 614 676 q 606 597 608 622 l 599 540 l 576 322 q 568 248 572 288 q 561 175 564 208 q 585 132 560 132 q 599 134 592 132 q 613 136 606 136 q 625 125 621 136 q 629 99 629 114 q 598 19 629 49 q 510 -10 567 -10 q 390 101 403 -10 q 225 -11 333 -11 m 292 132 q 351 162 324 132 q 394 247 378 192 l 418 472 q 432 558 424 518 q 399 585 417 575 q 356 596 381 596 q 269 542 300 596 q 226 371 239 488 q 221 281 221 310 q 292 132 221 132 m 243 836 q 218 848 225 836 q 214 888 211 860 l 215 906 q 256 956 221 956 l 525 956 q 551 944 544 956 q 556 906 558 932 l 553 888 q 541 848 550 860 q 513 836 532 836 l 243 836 z "},"ą":{"ha":668,"x_min":46,"x_max":679,"o":"m 643 -160 q 670 -169 661 -160 q 679 -199 679 -178 q 658 -239 679 -228 q 575 -260 621 -260 q 470 -219 497 -260 q 443 -132 443 -178 q 451 -73 443 -107 q 478 -7 460 -39 q 390 101 401 10 q 225 -11 333 -11 q 89 71 132 -11 q 46 281 46 153 q 51 371 46 310 q 142 641 71 546 q 314 736 213 736 q 397 715 364 736 q 457 664 431 694 q 474 703 467 692 q 495 722 481 715 q 538 729 510 729 l 551 729 q 615 696 615 729 q 611 649 614 676 q 606 597 608 622 l 599 540 l 576 322 q 568 248 572 288 q 561 175 564 208 q 585 132 560 132 q 599 134 592 132 q 613 136 606 136 q 625 125 621 136 q 629 99 629 114 q 611 35 629 63 q 560 -3 593 8 q 533 -107 533 -56 q 553 -154 533 -142 q 601 -167 572 -167 q 624 -163 613 -167 q 643 -160 636 -160 m 418 472 q 432 558 424 518 q 399 585 417 575 q 356 596 381 596 q 269 542 300 596 q 226 371 239 488 q 221 281 221 310 q 292 132 221 132 q 351 162 324 132 q 394 247 378 192 l 418 472 z "},"å":{"ha":668,"x_min":46,"x_max":629,"o":"m 225 -11 q 89 71 132 -11 q 46 281 46 153 q 51 371 46 310 q 142 641 71 546 q 314 736 213 736 q 397 715 364 736 q 457 664 431 694 q 474 703 467 692 q 495 722 481 715 q 538 729 510 729 l 551 729 q 615 696 615 729 q 611 649 614 676 q 606 597 608 622 l 599 540 l 576 322 q 568 248 572 288 q 561 175 564 208 q 585 132 560 132 q 599 134 592 132 q 613 136 606 136 q 625 125 621 136 q 629 99 629 114 q 598 19 629 49 q 510 -10 567 -10 q 390 101 403 -10 q 225 -11 333 -11 m 292 132 q 351 162 324 132 q 394 247 378 192 l 418 472 q 432 558 424 518 q 399 585 417 575 q 356 596 381 596 q 269 542 300 596 q 226 371 239 488 q 221 281 221 310 q 292 132 221 132 m 371 771 q 285 801 317 771 q 254 883 254 832 q 294 990 254 949 q 399 1032 335 1032 q 485 1000 454 1032 q 517 917 517 968 q 476 812 517 853 q 371 771 435 771 m 379 843 q 424 861 407 843 q 442 910 442 879 q 392 958 442 958 q 346 940 363 958 q 329 890 329 922 q 379 843 329 843 z "},"ǻ":{"ha":668,"x_min":46,"x_max":629,"o":"m 225 -11 q 89 71 132 -11 q 46 281 46 153 q 51 371 46 310 q 142 641 71 546 q 314 736 213 736 q 397 715 364 736 q 457 664 431 694 q 474 703 467 692 q 495 722 481 715 q 538 729 510 729 l 551 729 q 615 696 615 729 q 611 649 614 676 q 606 597 608 622 l 599 540 l 576 322 q 568 248 572 288 q 561 175 564 208 q 585 132 560 132 q 599 134 592 132 q 613 136 606 136 q 625 125 621 136 q 629 99 629 114 q 598 19 629 49 q 510 -10 567 -10 q 390 101 403 -10 q 225 -11 333 -11 m 292 132 q 351 162 324 132 q 394 247 378 192 l 418 472 q 432 558 424 518 q 399 585 417 575 q 356 596 381 596 q 269 542 300 596 q 226 371 239 488 q 221 281 221 310 q 292 132 221 132 m 371 771 q 285 801 317 771 q 254 883 254 832 q 294 990 254 949 q 399 1032 335 1032 q 485 1000 454 1032 q 517 917 517 968 q 476 812 517 853 q 371 771 435 771 m 379 843 q 424 861 407 843 q 442 910 442 879 q 392 958 442 958 q 346 940 363 958 q 329 890 329 922 q 379 843 329 843 m 397 1068 q 369 1072 376 1068 q 361 1086 361 1076 q 370 1113 361 1093 q 390 1154 379 1133 q 406 1185 400 1175 l 436 1246 q 533 1282 453 1282 q 586 1278 569 1282 q 603 1264 603 1274 q 596 1244 603 1256 q 558 1194 589 1232 l 486 1099 q 456 1076 475 1083 q 397 1068 436 1068 z "},"ã":{"ha":668,"x_min":46,"x_max":629,"o":"m 225 -11 q 89 71 132 -11 q 46 281 46 153 q 51 371 46 310 q 142 641 71 546 q 314 736 213 736 q 397 715 364 736 q 457 664 431 694 q 474 703 467 692 q 495 722 481 715 q 538 729 510 729 l 551 729 q 615 696 615 729 q 611 649 614 676 q 606 597 608 622 l 599 540 l 576 322 q 568 248 572 288 q 561 175 564 208 q 585 132 560 132 q 599 134 592 132 q 613 136 606 136 q 625 125 621 136 q 629 99 629 114 q 598 19 629 49 q 510 -10 567 -10 q 390 101 403 -10 q 225 -11 333 -11 m 292 132 q 351 162 324 132 q 394 247 378 192 l 418 472 q 432 558 424 518 q 399 585 417 575 q 356 596 381 596 q 269 542 300 596 q 226 371 239 488 q 221 281 221 310 q 292 132 221 132 m 178 817 q 153 846 153 824 q 157 867 153 853 q 205 937 174 911 q 279 963 236 963 q 371 938 307 963 q 446 917 424 917 q 467 922 457 917 q 488 943 476 926 q 521 965 501 965 q 539 963 525 965 l 551 958 q 578 929 578 949 q 576 918 578 924 q 574 910 574 913 q 524 838 556 864 q 451 813 493 813 q 358 838 422 813 q 283 858 304 858 q 243 831 261 858 q 226 814 233 819 q 210 808 219 808 q 192 811 203 808 l 178 817 z "},"æ":{"ha":922,"x_min":15,"x_max":897,"o":"m 203 -10 q 67 41 119 -10 q 15 178 15 92 q 17 207 15 197 q 110 391 29 324 q 371 460 192 458 q 396 538 378 496 q 365 582 389 567 q 303 597 342 597 q 238 588 267 597 q 178 565 210 579 q 147 554 156 554 q 113 589 131 554 q 94 646 94 624 q 128 689 94 668 q 217 723 163 710 q 329 736 271 736 q 431 724 386 736 q 504 688 476 711 q 675 736 575 736 q 842 666 786 736 q 897 460 897 596 q 892 374 897 435 q 863 329 890 358 q 822 300 836 300 l 531 300 q 529 264 529 288 q 642 129 529 129 q 706 139 678 129 q 765 165 735 149 q 792 176 785 176 q 826 143 807 176 q 844 86 844 110 q 810 39 844 61 q 722 3 775 17 q 617 -10 668 -10 q 407 72 476 -10 q 320 13 375 36 q 203 -10 265 -10 m 728 425 q 731 482 731 467 q 714 569 731 542 q 661 597 697 597 q 585 557 615 597 q 542 425 556 517 l 728 425 m 250 133 q 309 147 281 133 q 358 185 338 160 q 350 274 350 225 q 353 338 350 315 q 231 303 275 336 q 186 203 186 271 q 203 151 186 169 q 250 133 219 133 z "},"ǽ":{"ha":922,"x_min":15,"x_max":897,"o":"m 203 -10 q 67 41 119 -10 q 15 178 15 92 q 17 207 15 197 q 110 391 29 324 q 371 460 192 458 q 396 538 378 496 q 365 582 389 567 q 303 597 342 597 q 238 588 267 597 q 178 565 210 579 q 147 554 156 554 q 113 589 131 554 q 94 646 94 624 q 128 689 94 668 q 217 723 163 710 q 329 736 271 736 q 431 724 386 736 q 504 688 476 711 q 675 736 575 736 q 842 666 786 736 q 897 460 897 596 q 892 374 897 435 q 863 329 890 358 q 822 300 836 300 l 531 300 q 529 264 529 288 q 642 129 529 129 q 706 139 678 129 q 765 165 735 149 q 792 176 785 176 q 826 143 807 176 q 844 86 844 110 q 810 39 844 61 q 722 3 775 17 q 617 -10 668 -10 q 407 72 476 -10 q 320 13 375 36 q 203 -10 265 -10 m 728 425 q 731 482 731 467 q 714 569 731 542 q 661 597 697 597 q 585 557 615 597 q 542 425 556 517 l 728 425 m 250 133 q 309 147 281 133 q 358 185 338 160 q 350 274 350 225 q 353 338 350 315 q 231 303 275 336 q 186 203 186 271 q 203 151 186 169 q 250 133 219 133 m 469 804 q 441 808 449 804 q 433 822 433 813 q 442 849 433 829 q 462 890 451 869 q 478 921 472 911 l 508 982 q 606 1018 525 1018 q 658 1014 642 1018 q 675 1000 675 1010 q 668 980 675 992 q 631 931 661 968 l 558 835 q 528 812 547 819 q 469 804 508 804 z "},"b":{"ha":669,"x_min":39,"x_max":614,"o":"m 356 -10 q 269 17 308 -10 q 208 90 231 44 l 190 26 q 167 3 183 10 q 124 -3 151 -3 l 110 -3 q 43 36 39 -3 l 146 1007 q 222 1046 150 1046 l 253 1046 q 321 1007 324 1046 l 285 685 q 418 736 344 736 q 563 663 513 736 q 614 451 614 589 q 610 364 614 410 q 522 90 592 190 q 356 -10 453 -10 m 318 133 q 392 190 364 133 q 431 365 419 246 q 436 456 436 411 q 417 563 436 529 q 357 596 397 596 q 274 560 310 596 l 235 199 q 318 133 268 133 z "},"c":{"ha":567,"x_min":49,"x_max":571,"o":"m 308 -10 q 113 60 178 -10 q 49 278 49 131 q 53 363 49 317 q 158 646 74 556 q 388 736 242 736 q 515 712 458 736 q 571 656 571 688 q 547 597 571 635 q 506 558 522 558 q 483 567 499 558 q 389 597 433 597 q 285 543 322 597 q 233 365 247 489 q 229 286 229 322 q 256 167 229 204 q 338 129 282 129 q 391 137 369 129 q 446 160 413 144 q 459 165 453 163 q 469 169 465 168 q 503 134 488 169 q 515 76 518 99 q 478 34 514 54 q 395 2 443 14 q 308 -10 347 -10 z "},"ć":{"ha":567,"x_min":49,"x_max":571,"o":"m 308 -10 q 113 60 178 -10 q 49 278 49 131 q 53 363 49 317 q 158 646 74 556 q 388 736 242 736 q 515 712 458 736 q 571 656 571 688 q 547 597 571 635 q 506 558 522 558 q 483 567 499 558 q 389 597 433 597 q 285 543 322 597 q 233 365 247 489 q 229 286 229 322 q 256 167 229 204 q 338 129 282 129 q 391 137 369 129 q 446 160 413 144 q 459 165 453 163 q 469 169 465 168 q 503 134 488 169 q 515 76 518 99 q 478 34 514 54 q 395 2 443 14 q 308 -10 347 -10 m 326 804 q 298 808 306 804 q 290 822 290 813 q 299 849 290 829 q 319 890 308 869 q 335 921 329 911 l 365 982 q 463 1018 382 1018 q 515 1014 499 1018 q 532 1000 532 1010 q 525 980 532 992 q 488 931 518 968 l 415 835 q 385 812 404 819 q 326 804 365 804 z "},"č":{"ha":567,"x_min":49,"x_max":571,"o":"m 308 -10 q 113 60 178 -10 q 49 278 49 131 q 53 363 49 317 q 158 646 74 556 q 388 736 242 736 q 515 712 458 736 q 571 656 571 688 q 547 597 571 635 q 506 558 522 558 q 483 567 499 558 q 389 597 433 597 q 285 543 322 597 q 233 365 247 489 q 229 286 229 322 q 256 167 229 204 q 338 129 282 129 q 391 137 369 129 q 446 160 413 144 q 459 165 453 163 q 469 169 465 168 q 503 134 488 169 q 515 76 518 99 q 478 34 514 54 q 395 2 443 14 q 308 -10 347 -10 m 361 800 q 319 806 335 800 q 294 828 303 813 l 229 961 q 222 985 222 975 q 251 1001 225 1001 l 286 1001 q 340 976 326 1001 l 378 900 l 431 978 q 492 1001 446 1001 l 526 1001 q 546 997 539 1001 q 551 985 553 992 q 540 961 551 978 l 446 828 q 417 806 433 813 q 374 800 400 800 l 361 800 z "},"ç":{"ha":567,"x_min":49,"x_max":571,"o":"m 388 736 q 515 712 458 736 q 571 656 571 688 q 547 597 571 635 q 506 558 522 558 q 483 567 499 558 q 389 597 433 597 q 285 543 322 597 q 233 365 247 489 q 229 286 229 322 q 256 167 229 204 q 338 129 282 129 q 391 137 369 129 q 446 160 413 144 q 459 165 453 163 q 469 169 465 168 q 503 134 488 169 q 515 76 518 99 q 457 23 513 47 q 340 -8 401 -1 l 321 -72 q 388 -101 361 -76 q 415 -172 415 -126 q 376 -263 415 -233 q 274 -293 338 -293 q 176 -274 219 -293 q 133 -226 133 -254 q 147 -190 133 -206 q 171 -175 160 -175 q 204 -186 179 -175 q 264 -204 240 -204 q 289 -197 279 -204 q 299 -175 299 -190 q 290 -153 299 -160 q 261 -137 281 -147 q 229 -110 229 -126 q 261 -7 229 -97 q 101 74 154 4 q 49 279 49 144 q 53 363 49 319 q 158 646 74 556 q 388 736 242 736 z "},"ĉ":{"ha":567,"x_min":49,"x_max":571,"o":"m 308 -10 q 113 60 178 -10 q 49 278 49 131 q 53 363 49 317 q 158 646 74 556 q 388 736 242 736 q 515 712 458 736 q 571 656 571 688 q 547 597 571 635 q 506 558 522 558 q 483 567 499 558 q 389 597 433 597 q 285 543 322 597 q 233 365 247 489 q 229 286 229 322 q 256 167 229 204 q 338 129 282 129 q 391 137 369 129 q 446 160 413 144 q 459 165 453 163 q 469 169 465 168 q 503 134 488 169 q 515 76 518 99 q 478 34 514 54 q 395 2 443 14 q 308 -10 347 -10 m 229 796 q 208 801 215 796 q 203 813 201 806 q 208 824 203 815 q 214 836 213 832 l 307 969 q 337 991 319 985 q 382 997 354 997 l 392 997 q 435 991 418 997 q 460 969 451 985 l 525 836 q 533 813 533 824 q 524 801 532 806 q 504 796 517 796 l 468 796 q 414 819 424 796 l 375 897 l 322 821 q 263 796 306 796 l 229 796 z "},"ċ":{"ha":567,"x_min":49,"x_max":571,"o":"m 308 -10 q 113 60 178 -10 q 49 278 49 131 q 53 363 49 317 q 158 646 74 556 q 388 736 242 736 q 515 712 458 736 q 571 656 571 688 q 547 597 571 635 q 506 558 522 558 q 483 567 499 558 q 389 597 433 597 q 285 543 322 597 q 233 365 247 489 q 229 286 229 322 q 256 167 229 204 q 338 129 282 129 q 391 137 369 129 q 446 160 413 144 q 459 165 453 163 q 469 169 465 168 q 503 134 488 169 q 515 76 518 99 q 478 34 514 54 q 395 2 443 14 q 308 -10 347 -10 m 369 818 q 307 828 326 818 q 290 857 288 838 l 299 936 q 385 975 303 975 q 465 936 469 975 l 457 857 q 369 818 453 818 z "},"d":{"ha":668,"x_min":47,"x_max":654,"o":"m 224 -10 q 95 66 143 -10 q 47 275 47 142 q 53 367 47 324 q 142 640 71 543 q 322 736 214 736 q 443 685 394 736 l 476 1007 q 551 1046 481 1046 l 582 1046 q 651 1007 654 1046 l 619 710 q 564 179 575 321 q 568 142 563 153 q 588 132 574 132 q 601 134 594 132 q 614 136 608 136 q 631 100 631 136 q 629 85 631 89 q 594 16 625 42 q 513 -10 564 -10 q 393 99 408 -10 q 319 19 364 49 q 224 -10 275 -10 m 294 133 q 392 204 344 133 l 429 561 q 354 596 399 596 q 272 540 303 596 q 229 364 242 485 q 224 275 224 319 q 294 133 224 133 z "},"ð":{"ha":663,"x_min":50,"x_max":622,"o":"m 582 931 q 610 915 599 931 q 622 882 622 899 q 594 857 622 861 l 521 847 q 588 663 564 763 q 613 454 613 563 q 608 363 613 408 q 513 84 589 178 q 293 -10 436 -10 q 114 67 178 -10 q 50 289 50 144 q 54 363 50 324 q 151 636 74 542 q 364 731 229 731 q 411 726 389 731 q 371 828 397 771 q 272 814 281 814 q 243 829 256 814 q 231 863 231 844 q 237 880 231 874 q 260 888 243 886 l 333 899 l 317 925 q 294 968 293 960 q 321 985 297 981 l 392 993 q 436 976 415 993 q 482 918 454 960 l 582 931 m 432 364 q 438 456 438 410 q 417 558 438 526 q 356 590 397 590 q 274 538 303 590 q 231 364 244 485 q 225 269 225 315 q 245 163 225 196 q 307 129 265 129 q 389 184 360 129 q 432 364 418 239 z "},"ď":{"ha":668,"x_min":47,"x_max":836,"o":"m 224 -10 q 95 66 143 -10 q 47 275 47 142 q 53 367 47 324 q 142 640 71 543 q 322 736 214 736 q 443 685 394 736 l 476 1007 q 551 1046 481 1046 l 582 1046 q 651 1007 654 1046 l 619 710 q 564 179 575 321 q 568 142 563 153 q 588 132 574 132 q 601 134 594 132 q 614 136 608 136 q 631 100 631 136 q 629 85 631 89 q 594 16 625 42 q 513 -10 564 -10 q 393 99 408 -10 q 319 19 364 49 q 224 -10 275 -10 m 294 133 q 392 204 344 133 l 429 561 q 354 596 399 596 q 272 540 303 596 q 229 364 242 485 q 224 275 224 319 q 294 133 224 133 m 731 717 q 692 724 710 717 q 675 744 675 731 q 681 822 675 769 q 686 917 686 881 q 704 958 686 943 q 758 972 722 972 l 781 972 q 822 958 808 972 q 836 919 836 943 q 818 824 836 871 q 774 748 800 778 q 731 717 749 718 z "},"đ":{"ha":668,"x_min":47,"x_max":718,"o":"m 685 936 q 711 924 704 936 q 715 886 718 913 l 713 868 q 701 828 710 840 q 672 817 692 817 l 631 817 q 564 179 576 326 q 568 142 563 153 q 588 132 574 132 q 601 134 594 132 q 614 136 608 136 q 631 100 631 136 q 629 85 631 89 q 594 16 625 42 q 513 -10 564 -10 q 393 99 408 -10 q 319 19 364 49 q 224 -10 275 -10 q 95 66 143 -10 q 47 275 47 142 q 53 367 47 324 q 142 640 71 543 q 322 736 214 736 q 443 685 394 736 l 457 817 l 403 817 q 378 828 385 817 q 374 868 371 840 l 375 886 q 415 936 381 936 l 469 936 l 476 1007 q 551 1046 481 1046 l 582 1046 q 651 1007 654 1046 q 644 936 646 964 l 685 936 m 429 561 q 354 596 399 596 q 272 540 303 596 q 229 364 242 485 q 224 275 224 319 q 294 133 224 133 q 392 204 344 133 l 429 561 z "},"ḍ":{"ha":668,"x_min":47,"x_max":651,"o":"m 224 -10 q 95 66 143 -10 q 47 275 47 142 q 53 367 47 324 q 142 640 71 543 q 322 736 214 736 q 443 685 394 736 l 476 1007 q 551 1046 481 1046 l 582 1046 q 651 1007 654 1046 l 619 710 q 564 179 575 321 q 568 142 563 153 q 588 132 574 132 q 601 134 594 132 q 614 136 608 136 q 631 100 631 136 q 629 85 631 89 q 594 16 625 42 q 513 -10 564 -10 q 393 99 408 -10 q 319 19 364 49 q 224 -10 275 -10 m 294 133 q 392 204 344 133 l 429 561 q 354 596 399 596 q 272 540 303 596 q 229 364 242 485 q 224 275 224 319 q 294 133 224 133 m 349 -268 q 286 -258 306 -268 q 269 -229 267 -249 l 278 -150 q 364 -111 282 -111 q 444 -150 449 -111 l 436 -229 q 349 -268 432 -268 z "},"ǳ":{"ha":1231,"x_min":47,"x_max":1217,"o":"m 224 -10 q 95 66 143 -10 q 47 275 47 142 q 53 367 47 324 q 142 640 71 543 q 322 736 214 736 q 443 685 394 736 l 476 1007 q 551 1046 481 1046 l 582 1046 q 651 1007 654 1046 l 619 710 q 564 179 575 321 q 568 142 563 153 q 588 132 574 132 q 601 134 594 132 q 614 136 608 136 q 631 100 631 136 q 629 85 631 89 q 594 16 625 42 q 513 -10 564 -10 q 393 99 408 -10 q 319 19 364 49 q 224 -10 275 -10 m 294 133 q 392 204 344 133 l 429 561 q 354 596 399 596 q 272 540 303 596 q 229 364 242 485 q 224 275 224 319 q 294 133 224 133 m 704 0 q 685 33 693 0 q 679 93 676 67 q 683 111 679 99 l 999 586 l 783 586 q 753 629 753 586 l 754 646 l 757 667 q 769 712 760 697 q 797 726 779 726 l 1192 726 q 1210 692 1201 726 q 1215 632 1218 657 q 1210 614 1215 622 l 896 140 l 1135 140 q 1160 126 1153 140 q 1164 81 1167 113 l 1161 60 q 1147 14 1157 28 q 1119 0 1138 0 l 704 0 z "},"ǆ":{"ha":1231,"x_min":47,"x_max":1217,"o":"m 224 -10 q 95 66 143 -10 q 47 275 47 142 q 53 367 47 324 q 142 640 71 543 q 322 736 214 736 q 443 685 394 736 l 476 1007 q 551 1046 481 1046 l 582 1046 q 651 1007 654 1046 l 619 710 q 564 179 575 321 q 568 142 563 153 q 588 132 574 132 q 601 134 594 132 q 614 136 608 136 q 631 100 631 136 q 629 85 631 89 q 594 16 625 42 q 513 -10 564 -10 q 393 99 408 -10 q 319 19 364 49 q 224 -10 275 -10 m 294 133 q 392 204 344 133 l 429 561 q 354 596 399 596 q 272 540 303 596 q 229 364 242 485 q 224 275 224 319 q 294 133 224 133 m 704 0 q 685 33 693 0 q 679 93 676 67 q 683 111 679 99 l 999 586 l 783 586 q 753 629 753 586 l 754 646 l 757 667 q 769 712 760 697 q 797 726 779 726 l 1192 726 q 1210 692 1201 726 q 1215 632 1218 657 q 1210 614 1215 622 l 896 140 l 1135 140 q 1160 126 1153 140 q 1164 81 1167 113 l 1161 60 q 1147 14 1157 28 q 1119 0 1138 0 l 704 0 m 992 800 q 949 806 965 800 q 925 828 933 813 l 860 961 q 853 985 853 975 q 882 1001 856 1001 l 917 1001 q 971 976 957 1001 l 1008 900 l 1061 978 q 1122 1001 1076 1001 l 1157 1001 q 1176 997 1169 1001 q 1182 985 1183 992 q 1171 961 1182 978 l 1076 828 q 1047 806 1064 813 q 1004 800 1031 800 l 992 800 z "},"e":{"ha":631,"x_min":53,"x_max":606,"o":"m 522 193 q 541 178 535 193 q 547 140 547 164 q 526 63 547 93 q 442 9 504 28 q 325 -10 379 -10 q 124 62 196 -10 q 53 281 53 133 q 138 608 53 481 q 388 736 222 736 q 519 705 471 736 q 587 629 568 674 q 606 542 606 585 q 528 356 606 424 q 328 288 450 288 q 229 294 274 288 q 261 166 229 203 q 354 129 293 129 q 425 142 396 129 q 490 176 454 154 q 522 193 514 193 m 376 597 q 238 401 268 597 l 292 401 q 401 431 358 401 q 443 521 443 460 q 425 577 443 557 q 376 597 407 597 z "},"é":{"ha":631,"x_min":53,"x_max":606,"o":"m 522 193 q 541 178 535 193 q 547 140 547 164 q 526 63 547 93 q 442 9 504 28 q 325 -10 379 -10 q 124 62 196 -10 q 53 281 53 133 q 138 608 53 481 q 388 736 222 736 q 519 705 471 736 q 587 629 568 674 q 606 542 606 585 q 528 356 606 424 q 328 288 450 288 q 229 294 274 288 q 261 166 229 203 q 354 129 293 129 q 425 142 396 129 q 490 176 454 154 q 522 193 514 193 m 376 597 q 238 401 268 597 l 292 401 q 401 431 358 401 q 443 521 443 460 q 425 577 443 557 q 376 597 407 597 m 346 804 q 317 808 325 804 q 310 822 310 813 q 319 849 310 829 q 338 890 328 869 q 354 921 349 911 l 385 982 q 482 1018 401 1018 q 535 1014 518 1018 q 551 1000 551 1010 q 544 980 551 992 q 507 931 538 968 l 435 835 q 404 812 424 819 q 346 804 385 804 z "},"ĕ":{"ha":631,"x_min":53,"x_max":606,"o":"m 522 193 q 541 178 535 193 q 547 140 547 164 q 526 63 547 93 q 442 9 504 28 q 325 -10 379 -10 q 124 62 196 -10 q 53 281 53 133 q 138 608 53 481 q 388 736 222 736 q 519 705 471 736 q 587 629 568 674 q 606 542 606 585 q 528 356 606 424 q 328 288 450 288 q 229 294 274 288 q 261 166 229 203 q 354 129 293 129 q 425 142 396 129 q 490 176 454 154 q 522 193 514 193 m 376 597 q 238 401 268 597 l 292 401 q 401 431 358 401 q 443 521 443 460 q 425 577 443 557 q 376 597 407 597 m 388 804 q 265 848 307 804 q 229 956 222 892 q 278 993 233 993 q 300 986 293 993 q 311 964 307 979 q 338 930 319 942 q 400 918 357 918 q 466 931 446 918 q 499 967 486 944 q 515 987 507 981 q 538 993 524 993 q 578 956 582 993 q 520 848 571 892 q 388 804 469 804 z "},"ě":{"ha":631,"x_min":53,"x_max":606,"o":"m 522 193 q 541 178 535 193 q 547 140 547 164 q 526 63 547 93 q 442 9 504 28 q 325 -10 379 -10 q 124 62 196 -10 q 53 281 53 133 q 138 608 53 481 q 388 736 222 736 q 519 705 471 736 q 587 629 568 674 q 606 542 606 585 q 528 356 606 424 q 328 288 450 288 q 229 294 274 288 q 261 166 229 203 q 354 129 293 129 q 425 142 396 129 q 490 176 454 154 q 522 193 514 193 m 376 597 q 238 401 268 597 l 292 401 q 401 431 358 401 q 443 521 443 460 q 425 577 443 557 q 376 597 407 597 m 381 800 q 338 806 354 800 q 314 828 322 813 l 249 961 q 242 985 242 975 q 271 1001 244 1001 l 306 1001 q 360 976 346 1001 l 397 900 l 450 978 q 511 1001 465 1001 l 546 1001 q 565 997 558 1001 q 571 985 572 992 q 560 961 571 978 l 465 828 q 436 806 453 813 q 393 800 419 800 l 381 800 z "},"ê":{"ha":631,"x_min":53,"x_max":606,"o":"m 522 193 q 541 178 535 193 q 547 140 547 164 q 526 63 547 93 q 442 9 504 28 q 325 -10 379 -10 q 124 62 196 -10 q 53 281 53 133 q 138 608 53 481 q 388 736 222 736 q 519 705 471 736 q 587 629 568 674 q 606 542 606 585 q 528 356 606 424 q 328 288 450 288 q 229 294 274 288 q 261 166 229 203 q 354 129 293 129 q 425 142 396 129 q 490 176 454 154 q 522 193 514 193 m 376 597 q 238 401 268 597 l 292 401 q 401 431 358 401 q 443 521 443 460 q 425 577 443 557 q 376 597 407 597 m 249 796 q 228 801 235 796 q 222 813 221 806 q 227 824 222 815 q 233 836 232 832 l 326 969 q 356 991 339 985 q 401 997 374 997 l 411 997 q 454 991 438 997 q 479 969 471 985 l 544 836 q 553 813 553 824 q 544 801 551 806 q 524 796 536 796 l 488 796 q 433 819 443 796 l 394 897 l 342 821 q 282 796 325 796 l 249 796 z "},"ế":{"ha":631,"x_min":53,"x_max":736,"o":"m 667 1206 q 719 1201 703 1206 q 736 1188 736 1197 q 729 1167 736 1179 q 692 1118 722 1156 l 619 1022 q 589 999 608 1007 q 531 992 569 992 q 502 996 510 992 q 494 1010 494 1000 q 503 1037 494 1017 q 523 1078 513 1057 q 539 1108 533 1099 l 569 1169 q 667 1206 586 1206 m 258 796 q 232 813 231 796 q 235 824 232 817 q 240 835 239 831 l 329 969 q 358 992 340 986 q 403 997 375 997 l 414 997 q 456 992 440 997 q 481 969 472 986 l 539 835 q 546 813 546 825 q 537 801 544 806 q 517 796 529 796 l 482 796 q 426 819 438 796 l 397 897 l 351 819 q 327 801 342 806 q 292 796 313 796 l 258 796 m 328 288 q 229 294 274 288 q 261 166 229 203 q 354 129 293 129 q 425 142 396 129 q 490 176 454 154 q 522 193 514 193 q 541 178 535 193 q 547 140 547 164 q 526 63 547 93 q 442 9 504 28 q 325 -10 379 -10 q 124 62 196 -10 q 53 281 53 133 q 138 608 53 481 q 388 736 222 736 q 519 705 471 736 q 587 629 568 674 q 606 542 606 585 q 528 356 606 424 q 328 288 450 288 m 376 597 q 238 401 268 597 l 292 401 q 401 431 358 401 q 443 521 443 460 q 425 577 443 557 q 376 597 407 597 z "},"ệ":{"ha":631,"x_min":53,"x_max":606,"o":"m 522 193 q 541 178 535 193 q 547 140 547 164 q 526 63 547 93 q 442 9 504 28 q 325 -10 379 -10 q 124 62 196 -10 q 53 281 53 133 q 138 608 53 481 q 388 736 222 736 q 519 705 471 736 q 587 629 568 674 q 606 542 606 585 q 528 356 606 424 q 328 288 450 288 q 229 294 274 288 q 261 166 229 203 q 354 129 293 129 q 425 142 396 129 q 490 176 454 154 q 522 193 514 193 m 376 597 q 238 401 268 597 l 292 401 q 401 431 358 401 q 443 521 443 460 q 425 577 443 557 q 376 597 407 597 m 297 -268 q 235 -258 254 -268 q 218 -229 215 -249 l 226 -150 q 313 -111 231 -111 q 393 -150 397 -111 l 385 -229 q 297 -268 381 -268 m 249 796 q 228 801 235 796 q 222 813 221 806 q 227 824 222 815 q 233 836 232 832 l 326 969 q 356 991 339 985 q 401 997 374 997 l 411 997 q 454 991 438 997 q 479 969 471 985 l 544 836 q 553 813 553 824 q 544 801 551 806 q 524 796 536 796 l 488 796 q 433 819 443 796 l 394 897 l 342 821 q 282 796 325 796 l 249 796 z "},"ề":{"ha":631,"x_min":53,"x_max":638,"o":"m 565 1169 q 619 1059 600 1099 q 638 1010 638 1019 q 631 995 638 999 q 601 992 624 992 q 544 1000 563 992 q 515 1022 525 1008 l 465 1086 q 406 1163 415 1149 q 396 1188 396 1178 q 413 1201 396 1197 q 465 1206 429 1206 q 565 1169 544 1206 m 258 796 q 232 813 231 796 q 235 824 232 817 q 240 835 239 831 l 329 969 q 358 992 340 986 q 403 997 375 997 l 414 997 q 456 992 440 997 q 481 969 472 986 l 539 835 q 546 813 546 825 q 537 801 544 806 q 517 796 529 796 l 482 796 q 426 819 438 796 l 397 897 l 351 819 q 327 801 342 806 q 292 796 313 796 l 258 796 m 328 288 q 229 294 274 288 q 261 166 229 203 q 354 129 293 129 q 425 142 396 129 q 490 176 454 154 q 522 193 514 193 q 541 178 535 193 q 547 140 547 164 q 526 63 547 93 q 442 9 504 28 q 325 -10 379 -10 q 124 62 196 -10 q 53 281 53 133 q 138 608 53 481 q 388 736 222 736 q 519 705 471 736 q 587 629 568 674 q 606 542 606 585 q 528 356 606 424 q 328 288 450 288 m 376 597 q 238 401 268 597 l 292 401 q 401 431 358 401 q 443 521 443 460 q 425 577 443 557 q 376 597 407 597 z "},"ể":{"ha":631,"x_min":53,"x_max":724,"o":"m 579 1231 q 683 1203 643 1231 q 724 1125 724 1176 q 697 1054 724 1089 q 636 997 669 1019 q 589 975 603 975 q 547 985 569 975 q 524 1004 524 996 q 535 1024 524 1014 q 561 1046 547 1035 q 601 1082 588 1067 q 615 1117 615 1097 q 601 1141 615 1132 q 568 1150 588 1150 q 528 1142 546 1150 q 507 1133 511 1133 q 484 1153 499 1133 q 469 1188 469 1174 q 506 1216 469 1201 q 579 1231 543 1231 m 258 796 q 232 813 231 796 q 235 824 232 817 q 240 835 239 831 l 329 969 q 358 992 340 986 q 403 997 375 997 l 414 997 q 456 992 440 997 q 481 969 472 986 l 539 835 q 546 813 546 825 q 537 801 544 806 q 517 796 529 796 l 482 796 q 426 819 438 796 l 397 897 l 351 819 q 327 801 342 806 q 292 796 313 796 l 258 796 m 328 288 q 229 294 274 288 q 261 166 229 203 q 354 129 293 129 q 425 142 396 129 q 490 176 454 154 q 522 193 514 193 q 541 178 535 193 q 547 140 547 164 q 526 63 547 93 q 442 9 504 28 q 325 -10 379 -10 q 124 62 196 -10 q 53 281 53 133 q 138 608 53 481 q 388 736 222 736 q 519 705 471 736 q 587 629 568 674 q 606 542 606 585 q 528 356 606 424 q 328 288 450 288 m 376 597 q 238 401 268 597 l 292 401 q 401 431 358 401 q 443 521 443 460 q 425 577 443 557 q 376 597 407 597 z "},"ễ":{"ha":631,"x_min":53,"x_max":610,"o":"m 586 1199 q 610 1169 610 1189 q 606 1150 610 1158 q 562 1079 590 1106 q 496 1053 533 1053 q 411 1078 469 1053 q 343 1099 361 1099 q 324 1093 332 1099 q 306 1071 315 1088 q 276 1049 290 1049 q 260 1051 271 1049 l 247 1057 q 224 1086 224 1064 q 228 1107 224 1093 q 338 1203 263 1203 q 422 1178 364 1203 q 490 1157 472 1157 q 508 1162 500 1157 q 528 1183 517 1167 q 560 1206 542 1206 q 575 1203 564 1206 l 586 1199 m 249 796 q 228 801 235 796 q 222 813 221 806 q 227 824 222 815 q 233 836 232 832 l 326 969 q 356 991 338 985 q 401 997 375 997 l 411 997 q 454 991 438 997 q 479 969 471 985 l 544 836 q 553 813 553 824 q 544 801 551 806 q 524 796 536 796 l 488 796 q 433 819 443 796 l 394 897 l 342 821 q 282 796 325 796 l 249 796 m 328 288 q 229 294 274 288 q 261 166 229 203 q 354 129 293 129 q 425 142 396 129 q 490 176 454 154 q 522 193 514 193 q 541 178 535 193 q 547 140 547 164 q 526 63 547 93 q 442 9 504 28 q 325 -10 379 -10 q 124 62 196 -10 q 53 281 53 133 q 138 608 53 481 q 388 736 222 736 q 519 705 471 736 q 587 629 568 674 q 606 542 606 585 q 528 356 606 424 q 328 288 450 288 m 376 597 q 238 401 268 597 l 292 401 q 401 431 358 401 q 443 521 443 460 q 425 577 443 557 q 376 597 407 597 z "},"ë":{"ha":631,"x_min":53,"x_max":606,"o":"m 522 193 q 541 178 535 193 q 547 140 547 164 q 526 63 547 93 q 442 9 504 28 q 325 -10 379 -10 q 124 62 196 -10 q 53 281 53 133 q 138 608 53 481 q 388 736 222 736 q 519 705 471 736 q 587 629 568 674 q 606 542 606 585 q 528 356 606 424 q 328 288 450 288 q 229 294 274 288 q 261 166 229 203 q 354 129 293 129 q 425 142 396 129 q 490 176 454 154 q 522 193 514 193 m 376 597 q 238 401 268 597 l 292 401 q 401 431 358 401 q 443 521 443 460 q 425 577 443 557 q 376 597 407 597 m 286 818 q 233 828 249 818 q 221 857 218 838 l 228 936 q 301 975 232 975 q 368 936 372 975 l 361 857 q 286 818 354 818 m 493 818 q 440 828 456 818 q 428 857 425 838 l 435 936 q 508 975 439 975 q 575 936 579 975 l 568 857 q 493 818 561 818 z "},"ė":{"ha":631,"x_min":53,"x_max":606,"o":"m 522 193 q 541 178 535 193 q 547 140 547 164 q 526 63 547 93 q 442 9 504 28 q 325 -10 379 -10 q 124 62 196 -10 q 53 281 53 133 q 138 608 53 481 q 388 736 222 736 q 519 705 471 736 q 587 629 568 674 q 606 542 606 585 q 528 356 606 424 q 328 288 450 288 q 229 294 274 288 q 261 166 229 203 q 354 129 293 129 q 425 142 396 129 q 490 176 454 154 q 522 193 514 193 m 376 597 q 238 401 268 597 l 292 401 q 401 431 358 401 q 443 521 443 460 q 425 577 443 557 q 376 597 407 597 m 389 818 q 326 828 346 818 q 310 857 307 838 l 318 936 q 404 975 322 975 q 485 936 489 975 l 476 857 q 389 818 472 818 z "},"ẹ":{"ha":631,"x_min":53,"x_max":606,"o":"m 522 193 q 541 178 535 193 q 547 140 547 164 q 526 63 547 93 q 442 9 504 28 q 325 -10 379 -10 q 124 62 196 -10 q 53 281 53 133 q 138 608 53 481 q 388 736 222 736 q 519 705 471 736 q 587 629 568 674 q 606 542 606 585 q 528 356 606 424 q 328 288 450 288 q 229 294 274 288 q 261 166 229 203 q 354 129 293 129 q 425 142 396 129 q 490 176 454 154 q 522 193 514 193 m 376 597 q 238 401 268 597 l 292 401 q 401 431 358 401 q 443 521 443 460 q 425 577 443 557 q 376 597 407 597 m 297 -268 q 235 -258 254 -268 q 218 -229 215 -249 l 226 -150 q 313 -111 231 -111 q 393 -150 397 -111 l 385 -229 q 297 -268 381 -268 z "},"è":{"ha":631,"x_min":53,"x_max":606,"o":"m 522 193 q 541 178 535 193 q 547 140 547 164 q 526 63 547 93 q 442 9 504 28 q 325 -10 379 -10 q 124 62 196 -10 q 53 281 53 133 q 138 608 53 481 q 388 736 222 736 q 519 705 471 736 q 587 629 568 674 q 606 542 606 585 q 528 356 606 424 q 328 288 450 288 q 229 294 274 288 q 261 166 229 203 q 354 129 293 129 q 425 142 396 129 q 490 176 454 154 q 522 193 514 193 m 376 597 q 238 401 268 597 l 292 401 q 401 431 358 401 q 443 521 443 460 q 425 577 443 557 q 376 597 407 597 m 415 804 q 358 813 376 804 q 329 835 339 821 l 279 899 q 219 976 229 961 q 210 1000 210 990 q 226 1014 210 1010 q 279 1018 243 1018 q 379 982 358 1018 q 433 872 414 911 q 451 822 451 832 q 444 808 451 811 q 415 804 438 804 z "},"ẻ":{"ha":631,"x_min":53,"x_max":606,"o":"m 522 193 q 541 178 535 193 q 547 140 547 164 q 526 63 547 93 q 442 9 504 28 q 325 -10 379 -10 q 124 62 196 -10 q 53 281 53 133 q 138 608 53 481 q 388 736 222 736 q 519 705 471 736 q 587 629 568 674 q 606 542 606 585 q 528 356 606 424 q 328 288 450 288 q 229 294 274 288 q 261 166 229 203 q 354 129 293 129 q 425 142 396 129 q 490 176 454 154 q 522 193 514 193 m 376 597 q 238 401 268 597 l 292 401 q 401 431 358 401 q 443 521 443 460 q 425 577 443 557 q 376 597 407 597 m 404 788 q 362 798 385 788 q 339 817 339 808 q 351 837 339 826 q 376 858 363 847 q 417 894 403 879 q 431 929 431 910 q 417 953 431 944 q 383 963 403 963 q 344 954 361 963 q 322 946 326 946 q 299 966 314 946 q 285 1000 285 986 q 322 1028 285 1014 q 394 1043 358 1043 q 499 1016 458 1043 q 539 938 539 989 q 512 867 539 901 q 451 810 485 832 q 404 788 418 788 z "},"ē":{"ha":631,"x_min":53,"x_max":606,"o":"m 522 193 q 541 178 535 193 q 547 140 547 164 q 526 63 547 93 q 442 9 504 28 q 325 -10 379 -10 q 124 62 196 -10 q 53 281 53 133 q 138 608 53 481 q 388 736 222 736 q 519 705 471 736 q 587 629 568 674 q 606 542 606 585 q 528 356 606 424 q 328 288 450 288 q 229 294 274 288 q 261 166 229 203 q 354 129 293 129 q 425 142 396 129 q 490 176 454 154 q 522 193 514 193 m 376 597 q 238 401 268 597 l 292 401 q 401 431 358 401 q 443 521 443 460 q 425 577 443 557 q 376 597 407 597 m 256 836 q 231 848 238 836 q 226 888 224 860 l 228 906 q 268 956 233 956 l 538 956 q 564 944 557 956 q 568 906 571 932 l 565 888 q 553 848 563 860 q 525 836 544 836 l 256 836 z "},"ę":{"ha":631,"x_min":53,"x_max":628,"o":"m 592 -112 q 619 -122 610 -112 q 628 -151 628 -131 q 607 -192 628 -181 q 524 -212 569 -212 q 419 -172 446 -212 q 392 -85 392 -131 q 407 0 392 -46 q 325 -10 367 -10 q 124 62 196 -10 q 53 281 53 133 q 138 608 53 481 q 388 736 222 736 q 519 705 471 736 q 587 629 568 674 q 606 542 606 585 q 528 356 606 424 q 328 288 450 288 q 229 294 274 288 q 261 166 229 203 q 354 129 293 129 q 425 142 396 129 q 490 176 454 154 q 522 193 514 193 q 541 178 535 193 q 547 140 547 164 q 526 63 547 93 q 507 42 513 46 q 482 -60 482 -8 q 501 -107 482 -94 q 550 -119 521 -119 q 573 -116 561 -119 q 592 -112 585 -112 m 376 597 q 238 401 268 597 l 292 401 q 401 431 358 401 q 443 521 443 460 q 425 577 443 557 q 376 597 407 597 z "},"ẽ":{"ha":631,"x_min":53,"x_max":606,"o":"m 522 193 q 541 178 535 193 q 547 140 547 164 q 526 63 547 93 q 442 9 504 28 q 325 -10 379 -10 q 124 62 196 -10 q 53 281 53 133 q 138 608 53 481 q 388 736 222 736 q 519 705 471 736 q 587 629 568 674 q 606 542 606 585 q 528 356 606 424 q 328 288 450 288 q 229 294 274 288 q 261 166 229 203 q 354 129 293 129 q 425 142 396 129 q 490 176 454 154 q 522 193 514 193 m 376 597 q 238 401 268 597 l 292 401 q 401 431 358 401 q 443 521 443 460 q 425 577 443 557 q 376 597 407 597 m 190 817 q 165 846 165 824 q 169 867 165 853 q 217 937 186 911 q 292 963 249 963 q 383 938 319 963 q 458 917 436 917 q 479 922 469 917 q 500 943 489 926 q 533 965 514 965 q 551 963 538 965 l 564 958 q 590 929 590 949 q 588 918 590 924 q 586 910 586 913 q 537 838 568 864 q 464 813 506 813 q 371 838 435 813 q 296 858 317 858 q 256 831 274 858 q 239 814 246 819 q 222 808 232 808 q 204 811 215 808 l 190 817 z "},"ə":{"ha":631,"x_min":25,"x_max":578,"o":"m 306 736 q 506 665 435 736 q 578 446 578 593 q 493 118 578 246 q 243 -10 408 -10 q 111 22 160 -10 q 44 97 63 53 q 25 185 25 142 q 103 371 25 303 q 303 439 181 439 q 401 432 357 439 q 369 560 401 524 q 276 597 338 597 q 206 585 235 597 q 140 550 176 572 q 108 533 117 533 q 90 548 96 533 q 83 586 83 563 q 104 664 83 633 q 189 717 126 699 q 306 736 251 736 m 254 129 q 393 325 363 129 l 339 325 q 230 296 272 325 q 188 206 188 267 q 206 149 188 169 q 254 129 224 129 z "},"f":{"ha":397,"x_min":63,"x_max":474,"o":"m 136 -3 q 67 36 63 -3 l 125 586 l 100 586 q 76 596 83 586 q 68 628 68 606 l 69 646 l 71 667 q 85 713 75 699 q 114 726 96 726 l 139 726 l 151 846 q 218 1005 163 956 q 356 1054 274 1054 q 435 1040 397 1054 q 471 993 474 1025 q 453 941 468 975 q 422 907 439 907 q 403 910 415 907 q 381 914 390 914 q 342 899 356 914 q 325 844 329 883 l 313 726 l 375 726 q 407 688 407 726 q 406 667 407 674 l 404 646 q 391 600 401 614 q 361 586 381 586 l 299 586 l 240 36 q 163 -3 236 -3 l 136 -3 z "},"g":{"ha":654,"x_min":36,"x_max":615,"o":"m 551 729 q 615 696 615 729 l 554 114 q 460 -198 532 -101 q 253 -294 388 -294 q 108 -269 168 -294 q 40 -208 47 -243 q 36 -174 36 -196 q 43 -124 36 -146 q 64 -103 50 -103 q 89 -114 71 -103 q 150 -143 121 -132 q 221 -154 179 -154 q 327 -103 289 -154 q 375 58 365 -51 l 379 90 q 313 26 351 49 q 229 4 274 4 q 89 82 132 4 q 46 282 46 160 q 51 371 46 313 q 141 641 69 546 q 318 736 213 736 q 457 664 399 736 q 474 703 467 692 q 495 722 481 715 q 538 729 510 729 l 551 729 m 418 472 q 432 558 424 518 q 357 596 397 596 q 270 542 301 596 q 226 371 239 489 q 221 282 221 310 q 238 183 221 218 q 294 147 254 147 q 349 172 322 147 q 394 247 375 196 l 418 472 z "},"ğ":{"ha":654,"x_min":36,"x_max":615,"o":"m 551 729 q 615 696 615 729 l 554 114 q 460 -198 532 -101 q 253 -294 388 -294 q 108 -269 168 -294 q 40 -208 47 -243 q 36 -174 36 -196 q 43 -124 36 -146 q 64 -103 50 -103 q 89 -114 71 -103 q 150 -143 121 -132 q 221 -154 179 -154 q 327 -103 289 -154 q 375 58 365 -51 l 379 90 q 313 26 351 49 q 229 4 274 4 q 89 82 132 4 q 46 282 46 160 q 51 371 46 313 q 141 641 69 546 q 318 736 213 736 q 457 664 399 736 q 474 703 467 692 q 495 722 481 715 q 538 729 510 729 l 551 729 m 418 472 q 432 558 424 518 q 357 596 397 596 q 270 542 301 596 q 226 371 239 489 q 221 282 221 310 q 238 183 221 218 q 294 147 254 147 q 349 172 322 147 q 394 247 375 196 l 418 472 m 367 804 q 244 848 286 804 q 208 956 201 892 q 257 993 213 993 q 279 986 272 993 q 290 964 286 979 q 317 930 299 942 q 379 918 336 918 q 445 931 425 918 q 478 967 465 944 q 494 987 486 981 q 517 993 503 993 q 557 956 561 993 q 499 848 550 892 q 367 804 449 804 z "},"ĝ":{"ha":654,"x_min":36,"x_max":615,"o":"m 551 729 q 615 696 615 729 l 554 114 q 460 -198 532 -101 q 253 -294 388 -294 q 108 -269 168 -294 q 40 -208 47 -243 q 36 -174 36 -196 q 43 -124 36 -146 q 64 -103 50 -103 q 89 -114 71 -103 q 150 -143 121 -132 q 221 -154 179 -154 q 327 -103 289 -154 q 375 58 365 -51 l 379 90 q 313 26 351 49 q 229 4 274 4 q 89 82 132 4 q 46 282 46 160 q 51 371 46 313 q 141 641 69 546 q 318 736 213 736 q 457 664 399 736 q 474 703 467 692 q 495 722 481 715 q 538 729 510 729 l 551 729 m 418 472 q 432 558 424 518 q 357 596 397 596 q 270 542 301 596 q 226 371 239 489 q 221 282 221 310 q 238 183 221 218 q 294 147 254 147 q 349 172 322 147 q 394 247 375 196 l 418 472 m 228 796 q 207 801 214 796 q 201 813 200 806 q 206 824 201 815 q 213 836 211 832 l 306 969 q 335 991 318 985 q 381 997 353 997 l 390 997 q 433 991 417 997 q 458 969 450 985 l 524 836 q 532 813 532 824 q 523 801 531 806 q 503 796 515 796 l 467 796 q 413 819 422 796 l 374 897 l 321 821 q 261 796 304 796 l 228 796 z "},"ģ":{"ha":654,"x_min":36,"x_max":615,"o":"m 551 729 q 615 696 615 729 l 554 114 q 460 -198 532 -101 q 253 -294 388 -294 q 108 -269 168 -294 q 40 -208 47 -243 q 36 -174 36 -196 q 43 -124 36 -146 q 64 -103 50 -103 q 89 -114 71 -103 q 150 -143 121 -132 q 221 -154 179 -154 q 327 -103 289 -154 q 375 58 365 -51 l 379 90 q 313 26 351 49 q 229 4 274 4 q 89 82 132 4 q 46 282 46 160 q 51 371 46 313 q 141 641 69 546 q 318 736 213 736 q 457 664 399 736 q 474 703 467 692 q 495 722 481 715 q 538 729 510 729 l 551 729 m 418 472 q 432 558 424 518 q 357 596 397 596 q 270 542 301 596 q 226 371 239 489 q 221 282 221 310 q 238 183 221 218 q 294 147 254 147 q 349 172 322 147 q 394 247 375 196 l 418 472 m 419 1064 q 456 1057 439 1064 q 472 1038 472 1050 q 467 1003 472 1031 q 449 860 449 940 q 378 804 449 804 l 356 804 q 313 819 326 804 q 299 857 299 833 q 319 956 299 908 q 369 1034 340 1004 q 419 1064 399 1064 z "},"ġ":{"ha":654,"x_min":36,"x_max":615,"o":"m 551 729 q 615 696 615 729 l 554 114 q 460 -198 532 -101 q 253 -294 388 -294 q 108 -269 168 -294 q 40 -208 47 -243 q 36 -174 36 -196 q 43 -124 36 -146 q 64 -103 50 -103 q 89 -114 71 -103 q 150 -143 121 -132 q 221 -154 179 -154 q 327 -103 289 -154 q 375 58 365 -51 l 379 90 q 313 26 351 49 q 229 4 274 4 q 89 82 132 4 q 46 282 46 160 q 51 371 46 313 q 141 641 69 546 q 318 736 213 736 q 457 664 399 736 q 474 703 467 692 q 495 722 481 715 q 538 729 510 729 l 551 729 m 418 472 q 432 558 424 518 q 357 596 397 596 q 270 542 301 596 q 226 371 239 489 q 221 282 221 310 q 238 183 221 218 q 294 147 254 147 q 349 172 322 147 q 394 247 375 196 l 418 472 m 368 818 q 306 828 325 818 q 289 857 286 838 l 297 936 q 383 975 301 975 q 464 936 468 975 l 456 857 q 368 818 451 818 z "},"h":{"ha":674,"x_min":35,"x_max":633,"o":"m 514 -8 q 424 25 458 -8 q 389 135 389 58 q 394 215 389 146 l 424 501 q 425 525 425 510 q 364 592 425 592 q 308 572 333 592 q 267 528 282 551 l 215 36 q 140 -3 210 -3 l 104 -3 q 39 36 35 -3 l 140 1007 q 215 1046 147 1046 l 251 1046 q 317 1007 321 1046 l 278 643 q 359 710 313 685 q 460 736 406 736 q 568 696 529 736 q 607 575 607 656 q 604 535 607 563 l 596 460 q 565 172 565 206 q 589 133 565 133 q 603 135 596 133 q 617 138 610 138 q 629 126 625 138 q 633 101 633 115 q 602 21 633 50 q 514 -8 571 -8 z "},"ħ":{"ha":674,"x_min":35,"x_max":633,"o":"m 617 138 q 629 126 625 138 q 633 101 633 115 q 602 21 633 50 q 514 -8 571 -8 q 424 25 458 -8 q 389 135 389 58 q 394 215 389 146 l 424 501 q 425 525 425 510 q 364 592 425 592 q 308 572 333 592 q 267 528 282 551 l 215 36 q 140 -3 210 -3 l 104 -3 q 39 36 35 -3 l 121 817 l 79 817 q 46 853 46 817 l 47 868 l 49 886 q 93 936 54 936 l 133 936 l 140 1007 q 215 1046 147 1046 l 251 1046 q 317 1007 321 1046 l 310 936 l 397 936 q 427 924 419 936 q 432 886 435 913 l 429 868 q 416 828 426 840 q 383 817 406 817 l 296 817 l 278 643 q 359 710 313 685 q 460 736 406 736 q 568 696 529 736 q 607 575 607 656 q 604 535 607 563 l 596 460 q 565 172 565 206 q 589 133 565 133 q 603 135 596 133 q 617 138 610 138 z "},"ĥ":{"ha":674,"x_min":39,"x_max":633,"o":"m 514 -8 q 424 25 458 -8 q 389 135 389 58 q 394 215 389 146 l 424 501 q 425 525 425 510 q 364 592 425 592 q 308 572 333 592 q 267 528 282 551 l 215 36 q 140 -3 210 -3 l 104 -3 q 39 36 35 -3 l 140 1007 q 215 1046 147 1046 l 251 1046 q 317 1007 321 1046 l 278 643 q 359 710 313 685 q 460 736 406 736 q 568 696 529 736 q 607 575 607 656 q 604 535 607 563 l 596 460 q 565 172 565 206 q 589 133 565 133 q 603 135 596 133 q 617 138 610 138 q 629 126 625 138 q 633 101 633 115 q 602 21 633 50 q 514 -8 571 -8 m 100 1083 q 79 1088 86 1083 q 74 1100 72 1093 q 78 1111 74 1103 q 85 1124 83 1119 l 178 1257 q 208 1278 190 1272 q 253 1285 225 1285 l 263 1285 q 306 1278 289 1285 q 331 1257 322 1272 l 396 1124 q 404 1100 404 1111 q 395 1088 403 1093 q 375 1083 388 1083 l 339 1083 q 285 1107 294 1083 l 246 1185 l 193 1108 q 133 1083 176 1083 l 100 1083 z "},"ḥ":{"ha":674,"x_min":39,"x_max":633,"o":"m 514 -8 q 424 25 458 -8 q 389 135 389 58 q 394 215 389 146 l 424 501 q 425 525 425 510 q 364 592 425 592 q 308 572 333 592 q 267 528 282 551 l 215 36 q 140 -3 210 -3 l 104 -3 q 39 36 35 -3 l 140 1007 q 215 1046 147 1046 l 251 1046 q 317 1007 321 1046 l 278 643 q 359 710 313 685 q 460 736 406 736 q 568 696 529 736 q 607 575 607 656 q 604 535 607 563 l 596 460 q 565 172 565 206 q 589 133 565 133 q 603 135 596 133 q 617 138 610 138 q 629 126 625 138 q 633 101 633 115 q 602 21 633 50 q 514 -8 571 -8 m 292 -268 q 229 -258 249 -268 q 213 -229 210 -249 l 221 -150 q 307 -111 225 -111 q 388 -150 392 -111 l 379 -229 q 292 -268 375 -268 z "},"i":{"ha":353,"x_min":57,"x_max":307,"o":"m 181 -8 q 57 133 57 -8 q 64 229 57 153 q 113 690 90 490 q 189 729 117 729 l 217 729 q 269 719 251 729 q 286 690 286 708 l 261 461 q 233 181 238 238 l 233 168 q 256 133 233 133 q 269 135 263 133 q 282 138 276 138 q 299 101 299 138 q 297 86 299 90 q 263 17 293 43 q 181 -8 232 -8 m 211 818 q 149 828 168 818 q 132 857 129 838 l 140 936 q 226 975 144 975 q 307 936 311 975 l 299 857 q 211 818 294 818 z "},"ı":{"ha":353,"x_min":57,"x_max":299,"o":"m 181 -8 q 57 133 57 -8 q 64 229 57 153 q 113 690 90 490 q 189 729 117 729 l 217 729 q 269 719 251 729 q 286 690 286 708 l 261 461 q 233 181 238 238 l 233 168 q 256 133 233 133 q 269 135 263 133 q 282 138 276 138 q 299 101 299 138 q 297 86 299 90 q 263 17 293 43 q 181 -8 232 -8 z "},"í":{"ha":353,"x_min":57,"x_max":376,"o":"m 181 -8 q 57 133 57 -8 q 64 229 57 153 q 113 690 90 490 q 189 729 117 729 l 217 729 q 269 719 251 729 q 286 690 286 708 l 261 461 q 233 181 238 238 l 233 168 q 256 133 233 133 q 269 135 263 133 q 282 138 276 138 q 299 101 299 138 q 297 86 299 90 q 263 17 293 43 q 181 -8 232 -8 m 171 804 q 142 808 150 804 q 135 822 135 813 q 144 849 135 829 q 163 890 153 869 q 179 921 174 911 l 210 982 q 307 1018 226 1018 q 360 1014 343 1018 q 376 1000 376 1010 q 369 980 376 992 q 332 931 363 968 l 260 835 q 229 812 249 819 q 171 804 210 804 z "},"ĭ":{"ha":353,"x_min":53,"x_max":403,"o":"m 181 -8 q 57 133 57 -8 q 64 229 57 153 q 113 690 90 490 q 189 729 117 729 l 217 729 q 269 719 251 729 q 286 690 286 708 l 261 461 q 233 181 238 238 l 233 168 q 256 133 233 133 q 269 135 263 133 q 282 138 276 138 q 299 101 299 138 q 297 86 299 90 q 263 17 293 43 q 181 -8 232 -8 m 213 804 q 90 848 132 804 q 54 956 47 892 q 103 993 58 993 q 125 986 118 993 q 136 964 132 979 q 163 930 144 942 q 225 918 182 918 q 291 931 271 918 q 324 967 311 944 q 340 987 332 981 q 363 993 349 993 q 403 956 407 993 q 345 848 396 892 q 213 804 294 804 z "},"î":{"ha":353,"x_min":47,"x_max":378,"o":"m 181 -8 q 57 133 57 -8 q 64 229 57 153 q 113 690 90 490 q 189 729 117 729 l 217 729 q 269 719 251 729 q 286 690 286 708 l 261 461 q 233 181 238 238 l 233 168 q 256 133 233 133 q 269 135 263 133 q 282 138 276 138 q 299 101 299 138 q 297 86 299 90 q 263 17 293 43 q 181 -8 232 -8 m 74 796 q 53 801 60 796 q 47 813 46 806 q 52 824 47 815 q 58 836 57 832 l 151 969 q 181 991 164 985 q 226 997 199 997 l 236 997 q 279 991 263 997 q 304 969 296 985 l 369 836 q 378 813 378 824 q 369 801 376 806 q 349 796 361 796 l 313 796 q 258 819 268 796 l 219 897 l 167 821 q 107 796 150 796 l 74 796 z "},"ï":{"ha":353,"x_min":46,"x_max":400,"o":"m 181 -8 q 57 133 57 -8 q 64 229 57 153 q 113 690 90 490 q 189 729 117 729 l 217 729 q 269 719 251 729 q 286 690 286 708 l 261 461 q 233 181 238 238 l 233 168 q 256 133 233 133 q 269 135 263 133 q 282 138 276 138 q 299 101 299 138 q 297 86 299 90 q 263 17 293 43 q 181 -8 232 -8 m 111 818 q 58 828 74 818 q 46 857 43 838 l 53 936 q 126 975 57 975 q 193 936 197 975 l 186 857 q 111 818 179 818 m 318 818 q 265 828 281 818 q 253 857 250 838 l 260 936 q 333 975 264 975 q 400 936 404 975 l 393 857 q 318 818 386 818 z "},"ị":{"ha":353,"x_min":57,"x_max":307,"o":"m 181 -8 q 57 133 57 -8 q 64 229 57 153 q 113 690 90 490 q 189 729 117 729 l 217 729 q 269 719 251 729 q 286 690 286 708 l 261 461 q 233 181 238 238 l 233 168 q 256 133 233 133 q 269 135 263 133 q 282 138 276 138 q 299 101 299 138 q 297 86 299 90 q 263 17 293 43 q 181 -8 232 -8 m 211 818 q 149 828 168 818 q 132 857 129 838 l 140 936 q 226 975 144 975 q 307 936 311 975 l 299 857 q 211 818 294 818 m 139 -268 q 76 -258 96 -268 q 60 -229 57 -249 l 68 -150 q 154 -111 72 -111 q 235 -150 239 -111 l 226 -229 q 139 -268 222 -268 z "},"ì":{"ha":353,"x_min":35,"x_max":299,"o":"m 181 -8 q 57 133 57 -8 q 64 229 57 153 q 113 690 90 490 q 189 729 117 729 l 217 729 q 269 719 251 729 q 286 690 286 708 l 261 461 q 233 181 238 238 l 233 168 q 256 133 233 133 q 269 135 263 133 q 282 138 276 138 q 299 101 299 138 q 297 86 299 90 q 263 17 293 43 q 181 -8 232 -8 m 240 804 q 183 813 201 804 q 154 835 164 821 l 104 899 q 44 976 54 961 q 35 1000 35 990 q 51 1014 35 1010 q 104 1018 68 1018 q 204 982 183 1018 q 258 872 239 911 q 276 822 276 832 q 269 808 276 811 q 240 804 263 804 z "},"ỉ":{"ha":353,"x_min":57,"x_max":364,"o":"m 181 -8 q 57 133 57 -8 q 64 229 57 153 q 113 690 90 490 q 189 729 117 729 l 217 729 q 269 719 251 729 q 286 690 286 708 l 261 461 q 233 181 238 238 l 233 168 q 256 133 233 133 q 269 135 263 133 q 282 138 276 138 q 299 101 299 138 q 297 86 299 90 q 263 17 293 43 q 181 -8 232 -8 m 229 788 q 187 798 210 788 q 164 817 164 808 q 176 837 164 826 q 201 858 188 847 q 242 894 228 879 q 256 929 256 910 q 242 953 256 944 q 208 963 228 963 q 169 954 186 963 q 147 946 151 946 q 124 966 139 946 q 110 1000 110 986 q 147 1028 110 1014 q 219 1043 183 1043 q 324 1016 283 1043 q 364 938 364 989 q 337 867 364 901 q 276 810 310 832 q 229 788 243 788 z "}}}
